<?xml version="1.0" encoding="utf-8"?>
<!-- Generator: Adobe Illustrator 25.4.1, SVG Export Plug-In . SVG Version: 6.00 Build 0)  -->
<svg version="1.1" id="Layer_1" xmlns="http://www.w3.org/2000/svg" xmlns:xlink="http://www.w3.org/1999/xlink" x="0px" y="0px"
	 viewBox="0 0 430 932" enable-background="new 0 0 430 932" xml:space="preserve">
<g>
	<defs>
		<rect id="SVGID_1_" width="430" height="932"/>
	</defs>
	<clipPath id="SVGID_00000083090687220914402220000009868855034137817506_">
		<use xlink:href="#SVGID_1_"  overflow="visible"/>
	</clipPath>
	<g clip-path="url(#SVGID_00000083090687220914402220000009868855034137817506_)">
		<rect fill="#FFFFFF" width="430" height="932"/>
		<path opacity="0.15" fill-rule="evenodd" clip-rule="evenodd" fill="#F8991E" enable-background="new    " d="M278.96,403.68
			c0.01-0.55,0.01-1.1,0.01-1.65c0-69.75-56.54-126.29-126.29-126.29c-69.75,0-126.29,56.54-126.29,126.29
			c0,69.21,55.67,125.41,124.66,126.28c-0.01,0.55-0.01,1.1-0.01,1.65c0,69.75,56.54,126.29,126.29,126.29
			c69.75,0,126.29-56.54,126.29-126.29C403.62,460.76,347.96,404.56,278.96,403.68z"/>
		<path fill="#F8991E" d="M78.32,156.8v3.2h-10.6v-3.2H78.32z M69.07,140.09V160h-4.1v-19.91H69.07z M76.94,148.2v3.12h-9.21v-3.12
			H76.94z M78.31,140.09v3.21H67.73v-3.21H78.31z M93.51,156.8v3.2H83.49v-3.2H93.51z M84.82,140.09V160h-4.1v-19.91H84.82z
			 M100.22,140.09V160h-4.09v-19.91H100.22z M119.84,149.6v7.89c-0.31,0.37-0.79,0.78-1.44,1.22c-0.65,0.43-1.48,0.8-2.5,1.11
			c-1.02,0.31-2.26,0.46-3.71,0.46c-1.28,0-2.46-0.21-3.51-0.63c-1.06-0.43-1.97-1.05-2.74-1.87c-0.76-0.82-1.34-1.82-1.75-3.01
			c-0.41-1.19-0.62-2.56-0.62-4.09v-1.24c0-1.53,0.2-2.89,0.59-4.09c0.4-1.19,0.97-2.2,1.71-3.02c0.74-0.82,1.62-1.44,2.64-1.87
			c1.02-0.43,2.16-0.64,3.4-0.64c1.73,0,3.15,0.28,4.26,0.85c1.11,0.56,1.96,1.33,2.54,2.32c0.59,0.98,0.96,2.11,1.09,3.39h-3.98
			c-0.1-0.67-0.29-1.26-0.57-1.76c-0.28-0.5-0.69-0.89-1.22-1.18c-0.52-0.28-1.19-0.42-2.02-0.42c-0.68,0-1.29,0.14-1.83,0.42
			c-0.53,0.27-0.97,0.68-1.34,1.22c-0.36,0.54-0.64,1.2-0.83,2c-0.19,0.79-0.29,1.71-0.29,2.76v1.27c0,1.04,0.1,1.96,0.3,2.76
			c0.2,0.79,0.5,1.46,0.89,2.01c0.4,0.54,0.89,0.94,1.48,1.22c0.58,0.27,1.26,0.41,2.04,0.41c0.65,0,1.19-0.05,1.61-0.16
			c0.44-0.11,0.79-0.24,1.05-0.4c0.27-0.16,0.48-0.32,0.63-0.47v-3.53H112v-2.93H119.84z M136.51,156.8v3.2h-10.6v-3.2H136.51z
			 M127.25,140.09V160h-4.1v-19.91H127.25z M135.13,148.2v3.12h-9.21v-3.12H135.13z M136.5,140.09v3.21h-10.58v-3.21H136.5z
			 M154.04,140.09V160h-4.09v-19.91H154.04z M160.16,140.09v3.21h-16.24v-3.21H160.16z M173.49,140.09h4.09v13.15
			c0,1.53-0.33,2.82-0.98,3.87c-0.65,1.05-1.54,1.84-2.69,2.36c-1.14,0.53-2.45,0.79-3.94,0.79c-1.49,0-2.81-0.26-3.96-0.79
			c-1.15-0.53-2.05-1.32-2.71-2.36c-0.65-1.05-0.97-2.34-0.97-3.87v-13.15h4.1v13.15c0,0.89,0.14,1.62,0.42,2.19
			c0.28,0.56,0.69,0.98,1.22,1.24c0.54,0.26,1.17,0.4,1.9,0.4c0.75,0,1.38-0.13,1.9-0.4c0.53-0.26,0.93-0.68,1.2-1.24
			c0.28-0.57,0.42-1.29,0.42-2.19V140.09z M191.32,154.79c0-0.35-0.05-0.67-0.16-0.96c-0.1-0.29-0.29-0.56-0.57-0.79
			c-0.28-0.25-0.68-0.49-1.19-0.73c-0.51-0.24-1.17-0.48-1.98-0.74c-0.9-0.29-1.76-0.62-2.57-0.98c-0.8-0.36-1.51-0.79-2.13-1.27
			c-0.61-0.49-1.09-1.06-1.45-1.71c-0.35-0.65-0.52-1.4-0.52-2.26c0-0.83,0.18-1.58,0.55-2.25c0.36-0.68,0.88-1.27,1.53-1.75
			c0.66-0.49,1.43-0.87,2.33-1.14c0.9-0.26,1.89-0.4,2.97-0.4c1.47,0,2.75,0.26,3.84,0.79c1.09,0.53,1.94,1.25,2.54,2.17
			c0.61,0.92,0.92,1.97,0.92,3.16h-4.07c0-0.58-0.12-1.09-0.37-1.53c-0.24-0.45-0.6-0.8-1.09-1.05c-0.48-0.25-1.09-0.38-1.83-0.38
			c-0.71,0-1.3,0.11-1.78,0.33c-0.47,0.21-0.83,0.5-1.07,0.86c-0.24,0.35-0.36,0.76-0.36,1.2c0,0.34,0.08,0.64,0.25,0.92
			c0.17,0.27,0.43,0.53,0.77,0.77c0.34,0.24,0.75,0.46,1.24,0.67c0.49,0.21,1.06,0.41,1.71,0.61c1.08,0.33,2.04,0.7,2.86,1.11
			c0.83,0.41,1.52,0.87,2.08,1.38c0.56,0.51,0.97,1.09,1.26,1.74c0.28,0.65,0.42,1.38,0.42,2.2c0,0.87-0.17,1.64-0.51,2.32
			c-0.34,0.68-0.82,1.26-1.46,1.74s-1.4,0.83-2.28,1.08c-0.88,0.25-1.87,0.37-2.97,0.37c-0.98,0-1.96-0.13-2.91-0.38
			c-0.96-0.26-1.83-0.66-2.61-1.19c-0.77-0.53-1.39-1.2-1.86-2.02c-0.47-0.82-0.7-1.79-0.7-2.91h4.12c0,0.62,0.1,1.14,0.29,1.57
			c0.19,0.43,0.46,0.78,0.81,1.04c0.36,0.26,0.77,0.46,1.26,0.57c0.49,0.12,1.03,0.18,1.61,0.18c0.71,0,1.29-0.1,1.75-0.3
			c0.46-0.2,0.81-0.48,1.03-0.83C191.21,155.64,191.32,155.24,191.32,154.79z M212.94,152.9h-5.07v-3.2h5.07
			c0.78,0,1.42-0.13,1.91-0.38c0.49-0.26,0.85-0.63,1.08-1.09c0.23-0.46,0.34-0.99,0.34-1.57c0-0.59-0.11-1.14-0.34-1.65
			c-0.23-0.51-0.59-0.92-1.08-1.23c-0.49-0.31-1.13-0.46-1.91-0.46h-3.65V160h-4.1v-19.91h7.75c1.56,0,2.89,0.28,4,0.85
			c1.12,0.56,1.98,1.33,2.57,2.31c0.59,0.98,0.89,2.11,0.89,3.38c0,1.29-0.3,2.4-0.89,3.34c-0.59,0.94-1.45,1.66-2.57,2.17
			C215.83,152.65,214.49,152.9,212.94,152.9z M223.23,140.09h7.42c1.52,0,2.83,0.23,3.92,0.68c1.1,0.46,1.95,1.13,2.54,2.02
			c0.59,0.89,0.89,1.99,0.89,3.29c0,1.07-0.18,1.98-0.55,2.75c-0.36,0.76-0.86,1.39-1.52,1.9c-0.65,0.5-1.41,0.9-2.28,1.2l-1.3,0.68
			h-6.45l-0.03-3.2h4.8c0.72,0,1.32-0.13,1.79-0.38c0.47-0.25,0.83-0.61,1.07-1.07c0.25-0.46,0.37-0.98,0.37-1.59
			c0-0.64-0.12-1.19-0.36-1.65c-0.24-0.47-0.6-0.82-1.08-1.07c-0.48-0.25-1.09-0.37-1.82-0.37h-3.32V160h-4.1V140.09z M234.36,160
			l-4.54-8.87l4.33-0.03l4.59,8.71V160H234.36z M257.52,149.58v0.94c0,1.51-0.21,2.87-0.62,4.08c-0.41,1.2-0.99,2.23-1.74,3.08
			c-0.75,0.84-1.64,1.48-2.68,1.93c-1.03,0.45-2.17,0.67-3.43,0.67c-1.25,0-2.39-0.22-3.43-0.67c-1.03-0.45-1.92-1.09-2.68-1.93
			c-0.76-0.85-1.34-1.87-1.76-3.08c-0.41-1.2-0.62-2.56-0.62-4.08v-0.94c0-1.52,0.21-2.88,0.62-4.07c0.41-1.2,0.99-2.23,1.74-3.08
			c0.76-0.85,1.65-1.5,2.68-1.94c1.04-0.45,2.18-0.67,3.43-0.67c1.26,0,2.4,0.22,3.43,0.67c1.04,0.45,1.93,1.09,2.68,1.94
			c0.76,0.85,1.34,1.87,1.75,3.08C257.31,146.7,257.52,148.06,257.52,149.58z M253.38,150.52v-0.97c0-1.06-0.1-1.99-0.29-2.79
			c-0.19-0.8-0.47-1.48-0.85-2.02c-0.37-0.55-0.83-0.96-1.37-1.23c-0.54-0.28-1.15-0.42-1.85-0.42c-0.69,0-1.31,0.14-1.85,0.42
			c-0.53,0.27-0.98,0.68-1.35,1.23c-0.37,0.55-0.64,1.22-0.83,2.02c-0.19,0.8-0.29,1.73-0.29,2.79v0.97c0,1.05,0.1,1.98,0.29,2.79
			c0.19,0.8,0.47,1.48,0.85,2.04c0.37,0.55,0.83,0.96,1.37,1.24c0.54,0.28,1.15,0.42,1.85,0.42c0.69,0,1.31-0.14,1.84-0.42
			c0.54-0.28,0.99-0.7,1.35-1.24c0.36-0.56,0.64-1.24,0.83-2.04C253.28,152.5,253.38,151.57,253.38,150.52z M266.58,160h-4.33
			l0.03-3.2h4.31c1.08,0,1.98-0.24,2.72-0.72c0.74-0.49,1.29-1.21,1.67-2.15c0.38-0.94,0.57-2.07,0.57-3.4v-0.97
			c0-1.02-0.11-1.92-0.33-2.69c-0.21-0.77-0.52-1.43-0.94-1.95c-0.42-0.53-0.93-0.93-1.54-1.19c-0.61-0.27-1.31-0.41-2.11-0.41
			h-4.46v-3.21h4.46c1.33,0,2.55,0.23,3.65,0.68c1.11,0.45,2.07,1.09,2.89,1.93c0.81,0.84,1.44,1.84,1.87,3.01
			c0.45,1.16,0.67,2.45,0.67,3.87v0.94c0,1.41-0.22,2.7-0.67,3.87c-0.44,1.17-1.06,2.17-1.87,3.01c-0.8,0.83-1.76,1.47-2.89,1.93
			C269.16,159.78,267.93,160,266.58,160z M264.57,140.09V160h-4.1v-19.91H264.57z M289.68,140.09h4.09v13.15
			c0,1.53-0.33,2.82-0.99,3.87c-0.65,1.05-1.54,1.84-2.69,2.36c-1.14,0.53-2.45,0.79-3.94,0.79c-1.49,0-2.81-0.26-3.96-0.79
			c-1.15-0.53-2.05-1.32-2.71-2.36c-0.65-1.05-0.97-2.34-0.97-3.87v-13.15h4.1v13.15c0,0.89,0.14,1.62,0.42,2.19
			c0.28,0.56,0.69,0.98,1.22,1.24c0.54,0.26,1.17,0.4,1.9,0.4c0.75,0,1.38-0.13,1.9-0.4c0.53-0.26,0.93-0.68,1.2-1.24
			c0.28-0.57,0.42-1.29,0.42-2.19V140.09z M308.68,153.4h4.09c-0.08,1.34-0.45,2.53-1.11,3.57c-0.65,1.04-1.55,1.85-2.72,2.43
			c-1.16,0.58-2.55,0.88-4.18,0.88c-1.28,0-2.42-0.22-3.43-0.66c-1.01-0.45-1.88-1.08-2.6-1.91c-0.71-0.83-1.25-1.83-1.63-3.01
			c-0.37-1.18-0.56-2.49-0.56-3.95v-1.38c0-1.46,0.19-2.78,0.57-3.95c0.39-1.18,0.95-2.19,1.67-3.02c0.73-0.83,1.6-1.47,2.61-1.91
			c1.01-0.45,2.14-0.67,3.39-0.67c1.66,0,3.06,0.3,4.2,0.9c1.15,0.6,2.04,1.43,2.67,2.49c0.64,1.06,1.02,2.26,1.15,3.61h-4.1
			c-0.04-0.8-0.2-1.48-0.48-2.04c-0.27-0.57-0.69-0.99-1.24-1.27c-0.55-0.29-1.28-0.44-2.19-0.44c-0.68,0-1.28,0.13-1.79,0.38
			c-0.51,0.26-0.94,0.64-1.29,1.16c-0.35,0.52-0.61,1.18-0.78,1.97c-0.16,0.78-0.25,1.71-0.25,2.76v1.41c0,1.03,0.08,1.94,0.23,2.72
			c0.15,0.78,0.39,1.43,0.71,1.97c0.33,0.53,0.75,0.93,1.26,1.2c0.52,0.26,1.14,0.4,1.87,0.4c0.86,0,1.56-0.14,2.12-0.41
			s0.98-0.68,1.27-1.22C308.45,154.87,308.62,154.2,308.68,153.4z M323.95,140.09V160h-4.09v-19.91H323.95z M330.08,140.09v3.21
			h-16.24v-3.21H330.08z M348.38,149.58v0.94c0,1.51-0.2,2.87-0.61,4.08c-0.41,1.2-0.99,2.23-1.74,3.08
			c-0.75,0.84-1.64,1.48-2.68,1.93c-1.03,0.45-2.17,0.67-3.43,0.67c-1.25,0-2.39-0.22-3.43-0.67c-1.03-0.45-1.92-1.09-2.68-1.93
			c-0.76-0.85-1.35-1.87-1.76-3.08c-0.41-1.2-0.62-2.56-0.62-4.08v-0.94c0-1.52,0.21-2.88,0.62-4.07c0.41-1.2,0.99-2.23,1.74-3.08
			c0.76-0.85,1.65-1.5,2.68-1.94c1.04-0.45,2.18-0.67,3.43-0.67c1.26,0,2.4,0.22,3.43,0.67c1.04,0.45,1.93,1.09,2.68,1.94
			c0.76,0.85,1.34,1.87,1.75,3.08C348.17,146.7,348.38,148.06,348.38,149.58z M344.24,150.52v-0.97c0-1.06-0.1-1.99-0.29-2.79
			c-0.19-0.8-0.47-1.48-0.85-2.02c-0.37-0.55-0.83-0.96-1.37-1.23c-0.54-0.28-1.15-0.42-1.85-0.42c-0.69,0-1.31,0.14-1.85,0.42
			c-0.53,0.27-0.98,0.68-1.35,1.23c-0.36,0.55-0.64,1.22-0.83,2.02c-0.19,0.8-0.29,1.73-0.29,2.79v0.97c0,1.05,0.1,1.98,0.29,2.79
			c0.19,0.8,0.47,1.48,0.85,2.04c0.37,0.55,0.83,0.96,1.37,1.24c0.54,0.28,1.15,0.42,1.85,0.42c0.69,0,1.31-0.14,1.85-0.42
			c0.54-0.28,0.99-0.7,1.35-1.24c0.37-0.56,0.64-1.24,0.83-2.04C344.14,152.5,344.24,151.57,344.24,150.52z M361.7,154.79
			c0-0.35-0.05-0.67-0.16-0.96c-0.1-0.29-0.29-0.56-0.57-0.79c-0.28-0.25-0.68-0.49-1.19-0.73c-0.51-0.24-1.17-0.48-1.98-0.74
			c-0.9-0.29-1.76-0.62-2.57-0.98c-0.8-0.36-1.51-0.79-2.13-1.27c-0.61-0.49-1.09-1.06-1.45-1.71c-0.35-0.65-0.52-1.4-0.52-2.26
			c0-0.83,0.18-1.58,0.55-2.25c0.36-0.68,0.88-1.27,1.53-1.75c0.66-0.49,1.43-0.87,2.32-1.14c0.9-0.26,1.89-0.4,2.97-0.4
			c1.47,0,2.75,0.26,3.84,0.79c1.09,0.53,1.94,1.25,2.54,2.17c0.61,0.92,0.92,1.97,0.92,3.16h-4.07c0-0.58-0.12-1.09-0.37-1.53
			c-0.24-0.45-0.6-0.8-1.09-1.05c-0.48-0.25-1.09-0.38-1.83-0.38c-0.71,0-1.3,0.11-1.78,0.33c-0.47,0.21-0.83,0.5-1.07,0.86
			c-0.24,0.35-0.36,0.76-0.36,1.2c0,0.34,0.08,0.64,0.25,0.92c0.17,0.27,0.43,0.53,0.77,0.77c0.34,0.24,0.75,0.46,1.24,0.67
			c0.49,0.21,1.06,0.41,1.71,0.61c1.08,0.33,2.04,0.7,2.86,1.11c0.83,0.41,1.52,0.87,2.08,1.38c0.56,0.51,0.98,1.09,1.26,1.74
			c0.28,0.65,0.42,1.38,0.42,2.2c0,0.87-0.17,1.64-0.51,2.32c-0.34,0.68-0.83,1.26-1.46,1.74s-1.4,0.83-2.28,1.08
			c-0.88,0.25-1.87,0.37-2.97,0.37c-0.98,0-1.95-0.13-2.91-0.38c-0.96-0.26-1.83-0.66-2.61-1.19c-0.77-0.53-1.39-1.2-1.86-2.02
			c-0.46-0.82-0.7-1.79-0.7-2.91h4.11c0,0.62,0.1,1.14,0.29,1.57c0.19,0.43,0.46,0.78,0.81,1.04c0.36,0.26,0.77,0.46,1.26,0.57
			c0.49,0.12,1.03,0.18,1.61,0.18c0.71,0,1.29-0.1,1.75-0.3c0.46-0.2,0.81-0.48,1.02-0.83C361.58,155.64,361.7,155.24,361.7,154.79z
			"/>
		<path fill="#707070" d="M85.94,742c-0.12,0-0.2-0.05-0.24-0.16l-0.8-2.52c-0.01-0.04-0.04-0.06-0.08-0.06h-5.98
			c-0.04,0-0.07,0.02-0.08,0.06l-0.8,2.52c-0.04,0.11-0.12,0.16-0.24,0.16h-1.08c-0.15,0-0.2-0.07-0.16-0.22l4.42-13.62
			c0.04-0.11,0.12-0.16,0.24-0.16h1.36c0.12,0,0.2,0.05,0.24,0.16l4.44,13.62l0.02,0.08c0,0.09-0.06,0.14-0.18,0.14H85.94z
			 M79.16,738c-0.01,0.03-0.01,0.05,0,0.08c0.03,0.01,0.05,0.02,0.08,0.02h5.16c0.03,0,0.05-0.01,0.06-0.02
			c0.03-0.03,0.03-0.05,0.02-0.08l-2.6-8.16c-0.01-0.03-0.03-0.04-0.06-0.04c-0.03,0-0.05,0.01-0.06,0.04L79.16,738z M95.32,732.08
			c0-0.13,0.07-0.2,0.2-0.2h1.02c0.13,0,0.2,0.07,0.2,0.2v9.58c0,1.49-0.43,2.59-1.3,3.28c-0.85,0.69-2.03,1.04-3.54,1.04
			c-0.31,0-0.54-0.01-0.7-0.02c-0.13-0.01-0.2-0.09-0.2-0.22l0.04-0.92c0-0.07,0.02-0.12,0.06-0.16c0.04-0.03,0.09-0.03,0.14-0.02
			l0.54,0.02c1.24,0,2.14-0.25,2.7-0.74c0.56-0.48,0.84-1.25,0.84-2.3v-0.74c0-0.03-0.01-0.04-0.04-0.04
			c-0.01-0.01-0.03-0.01-0.06,0.02c-0.61,0.8-1.49,1.2-2.62,1.2c-0.87,0-1.64-0.23-2.32-0.7c-0.67-0.47-1.11-1.13-1.34-1.98
			c-0.16-0.55-0.24-1.36-0.24-2.44c0-0.59,0.01-1.08,0.04-1.48c0.04-0.4,0.11-0.76,0.22-1.08c0.24-0.8,0.67-1.44,1.3-1.92
			c0.63-0.49,1.38-0.74,2.26-0.74c1.19,0,2.09,0.39,2.7,1.18c0.03,0.03,0.05,0.03,0.06,0.02c0.03-0.01,0.04-0.03,0.04-0.06V732.08z
			 M95.22,738.94c0.04-0.2,0.07-0.45,0.08-0.74c0.01-0.29,0.02-0.72,0.02-1.28c0-0.68-0.01-1.13-0.02-1.36
			c-0.01-0.24-0.05-0.46-0.1-0.66c-0.11-0.56-0.37-1.02-0.8-1.38c-0.41-0.37-0.94-0.56-1.58-0.56c-0.63,0-1.16,0.18-1.6,0.54
			c-0.43,0.36-0.73,0.83-0.9,1.4c-0.13,0.43-0.2,1.09-0.2,2c0,0.97,0.07,1.65,0.2,2.02c0.13,0.56,0.42,1.03,0.86,1.4
			c0.45,0.36,1,0.54,1.64,0.54c0.65,0,1.19-0.18,1.6-0.54C94.85,739.96,95.11,739.5,95.22,738.94z M103.86,731.78
			c0.44,0,0.82,0.09,1.14,0.26c0.11,0.05,0.15,0.14,0.12,0.26l-0.22,0.98c-0.04,0.13-0.13,0.17-0.26,0.12
			c-0.23-0.09-0.49-0.14-0.78-0.14l-0.26,0.02c-0.69,0.03-1.27,0.29-1.72,0.78c-0.45,0.48-0.68,1.09-0.68,1.84v5.9
			c0,0.13-0.07,0.2-0.2,0.2h-1.02c-0.13,0-0.2-0.07-0.2-0.2v-9.72c0-0.13,0.07-0.2,0.2-0.2H101c0.13,0,0.2,0.07,0.2,0.2v1.22
			c0,0.04,0.01,0.07,0.02,0.08c0.03,0,0.05-0.01,0.06-0.04c0.28-0.49,0.63-0.87,1.06-1.14
			C102.78,731.92,103.29,731.78,103.86,731.78z M114.73,735.24c0.05,0.37,0.08,0.84,0.08,1.4v0.64c0,0.13-0.07,0.2-0.2,0.2h-6.46
			c-0.05,0-0.08,0.03-0.08,0.08c0.03,0.73,0.07,1.21,0.12,1.42c0.15,0.6,0.46,1.07,0.94,1.42c0.48,0.35,1.09,0.52,1.84,0.52
			c0.56,0,1.05-0.13,1.48-0.38c0.43-0.25,0.76-0.61,1-1.08c0.08-0.12,0.17-0.15,0.28-0.08l0.78,0.46c0.11,0.07,0.13,0.16,0.08,0.28
			c-0.33,0.64-0.83,1.15-1.5,1.52c-0.67,0.36-1.43,0.54-2.3,0.54c-0.95-0.01-1.74-0.24-2.38-0.68s-1.1-1.05-1.38-1.84
			c-0.24-0.64-0.36-1.56-0.36-2.76c0-0.56,0.01-1.01,0.02-1.36c0.03-0.36,0.08-0.68,0.16-0.96c0.23-0.87,0.68-1.56,1.36-2.08
			c0.69-0.52,1.53-0.78,2.5-0.78c1.21,0,2.15,0.31,2.8,0.92C114.16,733.25,114.57,734.12,114.73,735.24z M110.71,732.96
			c-0.65,0-1.2,0.17-1.64,0.52c-0.43,0.33-0.71,0.79-0.84,1.36c-0.08,0.28-0.13,0.73-0.16,1.36c0,0.05,0.03,0.08,0.08,0.08h5.18
			c0.05,0,0.08-0.03,0.08-0.08c-0.03-0.6-0.07-1.03-0.12-1.28c-0.15-0.6-0.45-1.07-0.9-1.42
			C111.95,733.14,111.39,732.96,110.71,732.96z M123.88,732.08c0-0.13,0.07-0.2,0.2-0.2h1.02c0.13,0,0.2,0.07,0.2,0.2v9.58
			c0,1.49-0.43,2.59-1.3,3.28c-0.85,0.69-2.03,1.04-3.54,1.04c-0.31,0-0.54-0.01-0.7-0.02c-0.13-0.01-0.2-0.09-0.2-0.22l0.04-0.92
			c0-0.07,0.02-0.12,0.06-0.16c0.04-0.03,0.09-0.03,0.14-0.02l0.54,0.02c1.24,0,2.14-0.25,2.7-0.74c0.56-0.48,0.84-1.25,0.84-2.3
			v-0.74c0-0.03-0.01-0.04-0.04-0.04c-0.01-0.01-0.03-0.01-0.06,0.02c-0.61,0.8-1.49,1.2-2.62,1.2c-0.87,0-1.64-0.23-2.32-0.7
			c-0.67-0.47-1.11-1.13-1.34-1.98c-0.16-0.55-0.24-1.36-0.24-2.44c0-0.59,0.01-1.08,0.04-1.48c0.04-0.4,0.11-0.76,0.22-1.08
			c0.24-0.8,0.67-1.44,1.3-1.92c0.63-0.49,1.38-0.74,2.26-0.74c1.19,0,2.09,0.39,2.7,1.18c0.03,0.03,0.05,0.03,0.06,0.02
			c0.03-0.01,0.04-0.03,0.04-0.06V732.08z M123.78,738.94c0.04-0.2,0.07-0.45,0.08-0.74c0.01-0.29,0.02-0.72,0.02-1.28
			c0-0.68-0.01-1.13-0.02-1.36c-0.01-0.24-0.05-0.46-0.1-0.66c-0.11-0.56-0.37-1.02-0.8-1.38c-0.41-0.37-0.94-0.56-1.58-0.56
			c-0.63,0-1.16,0.18-1.6,0.54c-0.43,0.36-0.73,0.83-0.9,1.4c-0.13,0.43-0.2,1.09-0.2,2c0,0.97,0.07,1.65,0.2,2.02
			c0.13,0.56,0.42,1.03,0.86,1.4c0.45,0.36,1,0.54,1.64,0.54c0.65,0,1.19-0.18,1.6-0.54C123.4,739.96,123.67,739.5,123.78,738.94z
			 M131.84,731.72c1.2,0,2.13,0.31,2.78,0.92c0.65,0.61,0.98,1.43,0.98,2.44v6.72c0,0.13-0.07,0.2-0.2,0.2h-1.02
			c-0.13,0-0.2-0.07-0.2-0.2v-0.82c0-0.03-0.01-0.05-0.04-0.06c-0.01-0.01-0.03-0.01-0.06,0.02c-0.33,0.4-0.77,0.71-1.3,0.92
			c-0.53,0.2-1.13,0.3-1.78,0.3c-0.95,0-1.74-0.24-2.38-0.72s-0.96-1.21-0.96-2.2c0-1,0.36-1.79,1.08-2.36
			c0.73-0.59,1.75-0.88,3.04-0.88h2.32c0.05,0,0.08-0.03,0.08-0.08v-0.76c0-0.68-0.19-1.21-0.58-1.6c-0.37-0.4-0.96-0.6-1.76-0.6
			c-0.64,0-1.16,0.13-1.56,0.38c-0.4,0.24-0.65,0.58-0.74,1.02c-0.04,0.13-0.12,0.19-0.24,0.18l-1.08-0.14
			c-0.15-0.03-0.21-0.08-0.18-0.16c0.11-0.75,0.51-1.35,1.2-1.82C129.93,731.95,130.8,731.72,131.84,731.72z M131.28,740.94
			c0.79,0,1.47-0.19,2.04-0.58c0.57-0.4,0.86-0.93,0.86-1.6v-1.56c0-0.05-0.03-0.08-0.08-0.08H132c-0.88,0-1.59,0.18-2.12,0.54
			c-0.53,0.36-0.8,0.86-0.8,1.5c0,0.59,0.2,1.03,0.6,1.34C130.09,740.79,130.62,740.94,131.28,740.94z M147.1,732.86
			c0,0.13-0.07,0.2-0.2,0.2h-2.26c-0.05,0-0.08,0.03-0.08,0.08v5.9c0,0.64,0.14,1.09,0.42,1.36c0.29,0.25,0.75,0.38,1.36,0.38h0.5
			c0.13,0,0.2,0.07,0.2,0.2v0.82c0,0.13-0.07,0.2-0.2,0.2c-0.16,0.01-0.41,0.02-0.74,0.02c-0.96,0-1.69-0.18-2.18-0.54
			c-0.49-0.36-0.74-1.03-0.74-2v-6.34c0-0.05-0.03-0.08-0.08-0.08h-1.22c-0.13,0-0.2-0.07-0.2-0.2v-0.78c0-0.13,0.07-0.2,0.2-0.2
			h1.22c0.05,0,0.08-0.03,0.08-0.08v-2.32c0-0.13,0.07-0.2,0.2-0.2h0.98c0.13,0,0.2,0.07,0.2,0.2v2.32c0,0.05,0.03,0.08,0.08,0.08
			h2.26c0.13,0,0.2,0.07,0.2,0.2V732.86z M155.96,732.08c0-0.13,0.07-0.2,0.2-0.2h1.02c0.13,0,0.2,0.07,0.2,0.2v9.72
			c0,0.13-0.07,0.2-0.2,0.2h-1.02c-0.13,0-0.2-0.07-0.2-0.2v-0.86c0-0.03-0.01-0.05-0.04-0.06c-0.03-0.01-0.05-0.01-0.06,0.02
			c-0.56,0.83-1.45,1.24-2.66,1.24c-0.64,0-1.23-0.13-1.78-0.38c-0.53-0.27-0.96-0.65-1.28-1.14c-0.31-0.49-0.46-1.09-0.46-1.78
			v-6.76c0-0.13,0.07-0.2,0.2-0.2h1.02c0.13,0,0.2,0.07,0.2,0.2v6.34c0,0.76,0.21,1.37,0.64,1.82c0.43,0.44,1.01,0.66,1.74,0.66
			c0.76,0,1.36-0.23,1.8-0.68c0.45-0.45,0.68-1.05,0.68-1.8V732.08z M163.88,742.1c-0.75,0-1.41-0.12-2-0.36
			c-0.57-0.24-1.02-0.56-1.34-0.96c-0.31-0.4-0.46-0.85-0.46-1.34v-0.24c0-0.13,0.07-0.2,0.2-0.2h0.96c0.13,0,0.2,0.07,0.2,0.2v0.16
			c0,0.44,0.23,0.83,0.68,1.16c0.47,0.32,1.05,0.48,1.74,0.48c0.69,0,1.25-0.15,1.68-0.46c0.43-0.32,0.64-0.72,0.64-1.2
			c0-0.33-0.11-0.61-0.34-0.82c-0.21-0.21-0.47-0.38-0.78-0.5c-0.29-0.12-0.75-0.27-1.38-0.46c-0.75-0.21-1.36-0.43-1.84-0.64
			s-0.89-0.51-1.22-0.88c-0.32-0.39-0.48-0.87-0.48-1.46c0-0.85,0.33-1.53,1-2.04c0.67-0.51,1.55-0.76,2.64-0.76
			c0.73,0,1.38,0.12,1.94,0.36c0.57,0.24,1.01,0.57,1.32,1c0.31,0.41,0.46,0.88,0.46,1.4v0.06c0,0.13-0.07,0.2-0.2,0.2h-0.94
			c-0.13,0-0.2-0.07-0.2-0.2v-0.06c0-0.45-0.22-0.83-0.66-1.14c-0.43-0.31-1.01-0.46-1.74-0.46c-0.68,0-1.23,0.14-1.64,0.42
			c-0.41,0.27-0.62,0.64-0.62,1.12c0,0.45,0.2,0.8,0.6,1.04c0.4,0.24,1.02,0.48,1.86,0.72c0.77,0.23,1.4,0.44,1.88,0.64
			s0.89,0.49,1.24,0.88c0.35,0.37,0.52,0.87,0.52,1.48c0,0.87-0.34,1.56-1.02,2.08C165.9,741.84,165.01,742.1,163.88,742.1z
			 M177.7,731.72c1.2,0,2.13,0.31,2.78,0.92c0.65,0.61,0.98,1.43,0.98,2.44v6.72c0,0.13-0.07,0.2-0.2,0.2h-1.02
			c-0.13,0-0.2-0.07-0.2-0.2v-0.82c0-0.03-0.01-0.05-0.04-0.06c-0.01-0.01-0.03-0.01-0.06,0.02c-0.33,0.4-0.77,0.71-1.3,0.92
			c-0.53,0.2-1.13,0.3-1.78,0.3c-0.95,0-1.74-0.24-2.38-0.72s-0.96-1.21-0.96-2.2c0-1,0.36-1.79,1.08-2.36
			c0.73-0.59,1.75-0.88,3.04-0.88h2.32c0.05,0,0.08-0.03,0.08-0.08v-0.76c0-0.68-0.19-1.21-0.58-1.6c-0.37-0.4-0.96-0.6-1.76-0.6
			c-0.64,0-1.16,0.13-1.56,0.38c-0.4,0.24-0.65,0.58-0.74,1.02c-0.04,0.13-0.12,0.19-0.24,0.18l-1.08-0.14
			c-0.15-0.03-0.21-0.08-0.18-0.16c0.11-0.75,0.51-1.35,1.2-1.82C175.79,731.95,176.66,731.72,177.7,731.72z M177.14,740.94
			c0.79,0,1.47-0.19,2.04-0.58c0.57-0.4,0.86-0.93,0.86-1.6v-1.56c0-0.05-0.03-0.08-0.08-0.08h-2.1c-0.88,0-1.59,0.18-2.12,0.54
			c-0.53,0.36-0.8,0.86-0.8,1.5c0,0.59,0.2,1.03,0.6,1.34C175.95,740.79,176.48,740.94,177.14,740.94z M188.49,731.78
			c0.44,0,0.82,0.09,1.14,0.26c0.11,0.05,0.15,0.14,0.12,0.26l-0.22,0.98c-0.04,0.13-0.13,0.17-0.26,0.12
			c-0.23-0.09-0.49-0.14-0.78-0.14l-0.26,0.02c-0.69,0.03-1.27,0.29-1.72,0.78c-0.45,0.48-0.68,1.09-0.68,1.84v5.9
			c0,0.13-0.07,0.2-0.2,0.2h-1.02c-0.13,0-0.2-0.07-0.2-0.2v-9.72c0-0.13,0.07-0.2,0.2-0.2h1.02c0.13,0,0.2,0.07,0.2,0.2v1.22
			c0,0.04,0.01,0.07,0.02,0.08c0.03,0,0.05-0.01,0.06-0.04c0.28-0.49,0.63-0.87,1.06-1.14
			C187.41,731.92,187.92,731.78,188.49,731.78z M196.51,732.86c0,0.13-0.07,0.2-0.2,0.2h-2.26c-0.05,0-0.08,0.03-0.08,0.08v5.9
			c0,0.64,0.14,1.09,0.42,1.36c0.29,0.25,0.75,0.38,1.36,0.38h0.5c0.13,0,0.2,0.07,0.2,0.2v0.82c0,0.13-0.07,0.2-0.2,0.2
			c-0.16,0.01-0.41,0.02-0.74,0.02c-0.96,0-1.69-0.18-2.18-0.54c-0.49-0.36-0.74-1.03-0.74-2v-6.34c0-0.05-0.03-0.08-0.08-0.08
			h-1.22c-0.13,0-0.2-0.07-0.2-0.2v-0.78c0-0.13,0.07-0.2,0.2-0.2h1.22c0.05,0,0.08-0.03,0.08-0.08v-2.32c0-0.13,0.07-0.2,0.2-0.2
			h0.98c0.13,0,0.2,0.07,0.2,0.2v2.32c0,0.05,0.03,0.08,0.08,0.08h2.26c0.13,0,0.2,0.07,0.2,0.2V732.86z M199.26,742
			c-0.13,0-0.2-0.07-0.2-0.2v-9.72c0-0.13,0.07-0.2,0.2-0.2h1.02c0.13,0,0.2,0.07,0.2,0.2v9.72c0,0.13-0.07,0.2-0.2,0.2H199.26z
			 M199.12,730.56c-0.08,0-0.13-0.02-0.16-0.06c-0.03-0.05-0.02-0.11,0.02-0.18l1.2-2.18c0.04-0.09,0.12-0.14,0.24-0.14h0.9
			c0.08,0,0.13,0.03,0.14,0.08c0.03,0.04,0.02,0.09-0.02,0.16l-1.36,2.18c-0.07,0.09-0.15,0.14-0.24,0.14H199.12z M207.32,742.16
			c-0.96,0-1.79-0.25-2.48-0.74c-0.68-0.51-1.15-1.19-1.4-2.04c-0.17-0.59-0.26-1.41-0.26-2.48c0-0.96,0.09-1.77,0.26-2.44
			c0.24-0.83,0.71-1.49,1.4-1.98c0.69-0.51,1.52-0.76,2.48-0.76c0.97,0,1.81,0.25,2.52,0.74c0.72,0.49,1.19,1.11,1.4,1.84
			c0.07,0.24,0.11,0.44,0.12,0.6v0.04c0,0.09-0.06,0.15-0.18,0.18l-1,0.14h-0.04c-0.09,0-0.15-0.06-0.18-0.18l-0.06-0.3
			c-0.12-0.51-0.41-0.93-0.88-1.28c-0.47-0.36-1.03-0.54-1.7-0.54c-0.67,0-1.23,0.18-1.68,0.54c-0.44,0.35-0.73,0.81-0.86,1.4
			c-0.12,0.51-0.18,1.18-0.18,2.02c0,0.88,0.06,1.56,0.18,2.04c0.13,0.6,0.42,1.08,0.86,1.44c0.45,0.35,1.01,0.52,1.68,0.52
			c0.65,0,1.21-0.17,1.68-0.5c0.48-0.35,0.78-0.79,0.9-1.32v-0.08l0.02-0.08c0.01-0.13,0.09-0.19,0.24-0.16l0.98,0.16
			c0.13,0.03,0.19,0.1,0.18,0.22l-0.08,0.4c-0.2,0.77-0.66,1.4-1.38,1.88S208.29,742.16,207.32,742.16z M220.01,732.08
			c0-0.13,0.07-0.2,0.2-0.2h1.02c0.13,0,0.2,0.07,0.2,0.2v9.72c0,0.13-0.07,0.2-0.2,0.2h-1.02c-0.13,0-0.2-0.07-0.2-0.2v-0.86
			c0-0.03-0.01-0.05-0.04-0.06c-0.03-0.01-0.05-0.01-0.06,0.02c-0.56,0.83-1.45,1.24-2.66,1.24c-0.64,0-1.23-0.13-1.78-0.38
			c-0.53-0.27-0.96-0.65-1.28-1.14c-0.31-0.49-0.46-1.09-0.46-1.78v-6.76c0-0.13,0.07-0.2,0.2-0.2h1.02c0.13,0,0.2,0.07,0.2,0.2
			v6.34c0,0.76,0.21,1.37,0.64,1.82c0.43,0.44,1.01,0.66,1.74,0.66c0.76,0,1.36-0.23,1.8-0.68c0.45-0.45,0.68-1.05,0.68-1.8V732.08z
			 M224.81,742c-0.13,0-0.2-0.07-0.2-0.2v-13.6c0-0.13,0.07-0.2,0.2-0.2h1.02c0.13,0,0.2,0.07,0.2,0.2v13.6c0,0.13-0.07,0.2-0.2,0.2
			H224.81z M233.08,742.16c-0.96,0-1.79-0.25-2.48-0.74c-0.69-0.49-1.17-1.17-1.44-2.04c-0.19-0.61-0.28-1.43-0.28-2.46
			c0-1.03,0.09-1.84,0.28-2.44c0.25-0.85,0.73-1.53,1.42-2.02c0.69-0.49,1.53-0.74,2.52-0.74c0.95,0,1.76,0.25,2.44,0.74
			c0.69,0.49,1.17,1.16,1.42,2c0.19,0.57,0.28,1.39,0.28,2.46c0,1.08-0.09,1.9-0.28,2.46c-0.25,0.87-0.73,1.55-1.42,2.04
			C234.86,741.91,234.04,742.16,233.08,742.16z M233.08,740.92c0.64,0,1.19-0.17,1.64-0.52c0.45-0.36,0.76-0.84,0.92-1.44
			c0.12-0.48,0.18-1.15,0.18-2.02c0-0.88-0.05-1.55-0.16-2.02c-0.16-0.6-0.47-1.07-0.94-1.42c-0.45-0.36-1.01-0.54-1.66-0.54
			c-0.65,0-1.21,0.18-1.66,0.54c-0.45,0.35-0.76,0.82-0.92,1.42c-0.11,0.47-0.16,1.14-0.16,2.02s0.05,1.55,0.16,2.02
			c0.15,0.6,0.45,1.08,0.9,1.44C231.84,740.75,232.41,740.92,233.08,740.92z M243.44,742.1c-0.75,0-1.41-0.12-2-0.36
			c-0.57-0.24-1.02-0.56-1.34-0.96c-0.31-0.4-0.46-0.85-0.46-1.34v-0.24c0-0.13,0.07-0.2,0.2-0.2h0.96c0.13,0,0.2,0.07,0.2,0.2v0.16
			c0,0.44,0.23,0.83,0.68,1.16c0.47,0.32,1.05,0.48,1.74,0.48c0.69,0,1.25-0.15,1.68-0.46c0.43-0.32,0.64-0.72,0.64-1.2
			c0-0.33-0.11-0.61-0.34-0.82c-0.21-0.21-0.47-0.38-0.78-0.5c-0.29-0.12-0.75-0.27-1.38-0.46c-0.75-0.21-1.36-0.43-1.84-0.64
			c-0.48-0.21-0.89-0.51-1.22-0.88c-0.32-0.39-0.48-0.87-0.48-1.46c0-0.85,0.33-1.53,1-2.04c0.67-0.51,1.55-0.76,2.64-0.76
			c0.73,0,1.38,0.12,1.94,0.36c0.57,0.24,1.01,0.57,1.32,1c0.31,0.41,0.46,0.88,0.46,1.4v0.06c0,0.13-0.07,0.2-0.2,0.2h-0.94
			c-0.13,0-0.2-0.07-0.2-0.2v-0.06c0-0.45-0.22-0.83-0.66-1.14c-0.43-0.31-1.01-0.46-1.74-0.46c-0.68,0-1.23,0.14-1.64,0.42
			c-0.41,0.27-0.62,0.64-0.62,1.12c0,0.45,0.2,0.8,0.6,1.04c0.4,0.24,1.02,0.48,1.86,0.72c0.77,0.23,1.4,0.44,1.88,0.64
			c0.48,0.2,0.89,0.49,1.24,0.88c0.35,0.37,0.52,0.87,0.52,1.48c0,0.87-0.34,1.56-1.02,2.08
			C245.46,741.84,244.56,742.1,243.44,742.1z M260.03,728.2c0-0.13,0.07-0.2,0.2-0.2h1.02c0.13,0,0.2,0.07,0.2,0.2v13.6
			c0,0.13-0.07,0.2-0.2,0.2h-1.02c-0.13,0-0.2-0.07-0.2-0.2v-0.84c0-0.03-0.01-0.04-0.04-0.04c-0.01-0.01-0.03-0.01-0.06,0.02
			c-0.29,0.39-0.66,0.69-1.1,0.9c-0.43,0.21-0.91,0.32-1.44,0.32c-0.93,0-1.72-0.24-2.36-0.72c-0.63-0.48-1.06-1.13-1.3-1.96
			c-0.19-0.6-0.28-1.45-0.28-2.54c0-1.11,0.08-1.93,0.24-2.48c0.24-0.85,0.68-1.52,1.32-2c0.64-0.49,1.43-0.74,2.38-0.74
			c0.52,0,1,0.11,1.44,0.32c0.44,0.2,0.81,0.49,1.1,0.88c0.03,0.03,0.05,0.04,0.06,0.04c0.03-0.01,0.04-0.03,0.04-0.06V728.2z
			 M259.67,739.38c0.12-0.27,0.21-0.58,0.26-0.94c0.05-0.36,0.08-0.86,0.08-1.5s-0.03-1.14-0.08-1.5c-0.05-0.37-0.15-0.7-0.28-0.98
			c-0.16-0.45-0.43-0.81-0.8-1.08c-0.36-0.28-0.79-0.42-1.3-0.42c-0.53,0-0.99,0.13-1.38,0.4c-0.39,0.27-0.67,0.62-0.84,1.06
			c-0.16,0.29-0.28,0.63-0.36,1c-0.07,0.36-0.1,0.87-0.1,1.52c0,0.63,0.03,1.12,0.08,1.48c0.05,0.35,0.15,0.66,0.28,0.94
			c0.16,0.48,0.44,0.86,0.84,1.14c0.41,0.28,0.9,0.42,1.46,0.42c0.53,0,0.98-0.14,1.34-0.42
			C259.23,740.22,259.49,739.85,259.67,739.38z M272.43,735.24c0.05,0.37,0.08,0.84,0.08,1.4v0.64c0,0.13-0.07,0.2-0.2,0.2h-6.46
			c-0.05,0-0.08,0.03-0.08,0.08c0.03,0.73,0.07,1.21,0.12,1.42c0.15,0.6,0.46,1.07,0.94,1.42c0.48,0.35,1.09,0.52,1.84,0.52
			c0.56,0,1.05-0.13,1.48-0.38c0.43-0.25,0.76-0.61,1-1.08c0.08-0.12,0.17-0.15,0.28-0.08l0.78,0.46c0.11,0.07,0.13,0.16,0.08,0.28
			c-0.33,0.64-0.83,1.15-1.5,1.52c-0.67,0.36-1.43,0.54-2.3,0.54c-0.95-0.01-1.74-0.24-2.38-0.68c-0.64-0.44-1.1-1.05-1.38-1.84
			c-0.24-0.64-0.36-1.56-0.36-2.76c0-0.56,0.01-1.01,0.02-1.36c0.03-0.36,0.08-0.68,0.16-0.96c0.23-0.87,0.68-1.56,1.36-2.08
			c0.69-0.52,1.53-0.78,2.5-0.78c1.21,0,2.15,0.31,2.8,0.92C271.86,733.25,272.27,734.12,272.43,735.24z M268.41,732.96
			c-0.65,0-1.2,0.17-1.64,0.52c-0.43,0.33-0.71,0.79-0.84,1.36c-0.08,0.28-0.13,0.73-0.16,1.36c0,0.05,0.03,0.08,0.08,0.08h5.18
			c0.05,0,0.08-0.03,0.08-0.08c-0.03-0.6-0.07-1.03-0.12-1.28c-0.15-0.6-0.45-1.07-0.9-1.42
			C269.65,733.14,269.09,732.96,268.41,732.96z M278.48,742.1c-0.75,0-1.41-0.12-2-0.36c-0.57-0.24-1.02-0.56-1.34-0.96
			c-0.31-0.4-0.46-0.85-0.46-1.34v-0.24c0-0.13,0.07-0.2,0.2-0.2h0.96c0.13,0,0.2,0.07,0.2,0.2v0.16c0,0.44,0.23,0.83,0.68,1.16
			c0.47,0.32,1.05,0.48,1.74,0.48c0.69,0,1.25-0.15,1.68-0.46c0.43-0.32,0.64-0.72,0.64-1.2c0-0.33-0.11-0.61-0.34-0.82
			c-0.21-0.21-0.47-0.38-0.78-0.5c-0.29-0.12-0.75-0.27-1.38-0.46c-0.75-0.21-1.36-0.43-1.84-0.64s-0.89-0.51-1.22-0.88
			c-0.32-0.39-0.48-0.87-0.48-1.46c0-0.85,0.33-1.53,1-2.04c0.67-0.51,1.55-0.76,2.64-0.76c0.73,0,1.38,0.12,1.94,0.36
			c0.57,0.24,1.01,0.57,1.32,1c0.31,0.41,0.46,0.88,0.46,1.4v0.06c0,0.13-0.07,0.2-0.2,0.2h-0.94c-0.13,0-0.2-0.07-0.2-0.2v-0.06
			c0-0.45-0.22-0.83-0.66-1.14c-0.43-0.31-1.01-0.46-1.74-0.46c-0.68,0-1.23,0.14-1.64,0.42c-0.41,0.27-0.62,0.64-0.62,1.12
			c0,0.45,0.2,0.8,0.6,1.04s1.02,0.48,1.86,0.72c0.77,0.23,1.4,0.44,1.88,0.64s0.89,0.49,1.24,0.88c0.35,0.37,0.52,0.87,0.52,1.48
			c0,0.87-0.34,1.56-1.02,2.08C280.49,741.84,279.6,742.1,278.48,742.1z M292.54,735.24c0.05,0.37,0.08,0.84,0.08,1.4v0.64
			c0,0.13-0.07,0.2-0.2,0.2h-6.46c-0.05,0-0.08,0.03-0.08,0.08c0.03,0.73,0.07,1.21,0.12,1.42c0.15,0.6,0.46,1.07,0.94,1.42
			c0.48,0.35,1.09,0.52,1.84,0.52c0.56,0,1.05-0.13,1.48-0.38c0.43-0.25,0.76-0.61,1-1.08c0.08-0.12,0.17-0.15,0.28-0.08l0.78,0.46
			c0.11,0.07,0.13,0.16,0.08,0.28c-0.33,0.64-0.83,1.15-1.5,1.52c-0.67,0.36-1.43,0.54-2.3,0.54c-0.95-0.01-1.74-0.24-2.38-0.68
			c-0.64-0.44-1.1-1.05-1.38-1.84c-0.24-0.64-0.36-1.56-0.36-2.76c0-0.56,0.01-1.01,0.02-1.36c0.03-0.36,0.08-0.68,0.16-0.96
			c0.23-0.87,0.68-1.56,1.36-2.08c0.69-0.52,1.53-0.78,2.5-0.78c1.21,0,2.15,0.31,2.8,0.92
			C291.98,733.25,292.38,734.12,292.54,735.24z M288.52,732.96c-0.65,0-1.2,0.17-1.64,0.52c-0.43,0.33-0.71,0.79-0.84,1.36
			c-0.08,0.28-0.13,0.73-0.16,1.36c0,0.05,0.03,0.08,0.08,0.08h5.18c0.05,0,0.08-0.03,0.08-0.08c-0.03-0.6-0.07-1.03-0.12-1.28
			c-0.15-0.6-0.45-1.07-0.9-1.42C289.76,733.14,289.2,732.96,288.52,732.96z M298.85,731.72c1.2,0,2.13,0.31,2.78,0.92
			c0.65,0.61,0.98,1.43,0.98,2.44v6.72c0,0.13-0.07,0.2-0.2,0.2h-1.02c-0.13,0-0.2-0.07-0.2-0.2v-0.82c0-0.03-0.01-0.05-0.04-0.06
			c-0.01-0.01-0.03-0.01-0.06,0.02c-0.33,0.4-0.77,0.71-1.3,0.92c-0.53,0.2-1.13,0.3-1.78,0.3c-0.95,0-1.74-0.24-2.38-0.72
			c-0.64-0.48-0.96-1.21-0.96-2.2c0-1,0.36-1.79,1.08-2.36c0.73-0.59,1.75-0.88,3.04-0.88h2.32c0.05,0,0.08-0.03,0.08-0.08v-0.76
			c0-0.68-0.19-1.21-0.58-1.6c-0.37-0.4-0.96-0.6-1.76-0.6c-0.64,0-1.16,0.13-1.56,0.38c-0.4,0.24-0.65,0.58-0.74,1.02
			c-0.04,0.13-0.12,0.19-0.24,0.18l-1.08-0.14c-0.15-0.03-0.21-0.08-0.18-0.16c0.11-0.75,0.51-1.35,1.2-1.82
			C296.94,731.95,297.81,731.72,298.85,731.72z M298.29,740.94c0.79,0,1.47-0.19,2.04-0.58c0.57-0.4,0.86-0.93,0.86-1.6v-1.56
			c0-0.05-0.03-0.08-0.08-0.08h-2.1c-0.88,0-1.59,0.18-2.12,0.54c-0.53,0.36-0.8,0.86-0.8,1.5c0,0.59,0.2,1.03,0.6,1.34
			C297.1,740.79,297.64,740.94,298.29,740.94z M311.85,728.2c0-0.13,0.07-0.2,0.2-0.2h1.02c0.13,0,0.2,0.07,0.2,0.2v13.6
			c0,0.13-0.07,0.2-0.2,0.2h-1.02c-0.13,0-0.2-0.07-0.2-0.2v-0.84c0-0.03-0.01-0.04-0.04-0.04c-0.01-0.01-0.03-0.01-0.06,0.02
			c-0.29,0.39-0.66,0.69-1.1,0.9c-0.43,0.21-0.91,0.32-1.44,0.32c-0.93,0-1.72-0.24-2.36-0.72c-0.63-0.48-1.06-1.13-1.3-1.96
			c-0.19-0.6-0.28-1.45-0.28-2.54c0-1.11,0.08-1.93,0.24-2.48c0.24-0.85,0.68-1.52,1.32-2c0.64-0.49,1.43-0.74,2.38-0.74
			c0.52,0,1,0.11,1.44,0.32c0.44,0.2,0.81,0.49,1.1,0.88c0.03,0.03,0.05,0.04,0.06,0.04c0.03-0.01,0.04-0.03,0.04-0.06V728.2z
			 M311.48,739.38c0.12-0.27,0.21-0.58,0.26-0.94s0.08-0.86,0.08-1.5s-0.03-1.14-0.08-1.5c-0.05-0.37-0.15-0.7-0.28-0.98
			c-0.16-0.45-0.43-0.81-0.8-1.08c-0.36-0.28-0.79-0.42-1.3-0.42c-0.53,0-0.99,0.13-1.38,0.4c-0.39,0.27-0.67,0.62-0.84,1.06
			c-0.16,0.29-0.28,0.63-0.36,1c-0.07,0.36-0.1,0.87-0.1,1.52c0,0.63,0.03,1.12,0.08,1.48c0.05,0.35,0.15,0.66,0.28,0.94
			c0.16,0.48,0.44,0.86,0.84,1.14c0.41,0.28,0.9,0.42,1.46,0.42c0.53,0,0.98-0.14,1.34-0.42
			C311.05,740.22,311.31,739.85,311.48,739.38z M320.34,742.16c-0.96,0-1.79-0.25-2.48-0.74c-0.69-0.49-1.17-1.17-1.44-2.04
			c-0.19-0.61-0.28-1.43-0.28-2.46c0-1.03,0.09-1.84,0.28-2.44c0.25-0.85,0.73-1.53,1.42-2.02c0.69-0.49,1.53-0.74,2.52-0.74
			c0.95,0,1.76,0.25,2.44,0.74c0.69,0.49,1.17,1.16,1.42,2c0.19,0.57,0.28,1.39,0.28,2.46c0,1.08-0.09,1.9-0.28,2.46
			c-0.25,0.87-0.73,1.55-1.42,2.04C322.12,741.91,321.3,742.16,320.34,742.16z M320.34,740.92c0.64,0,1.19-0.17,1.64-0.52
			c0.45-0.36,0.76-0.84,0.92-1.44c0.12-0.48,0.18-1.15,0.18-2.02c0-0.88-0.05-1.55-0.16-2.02c-0.16-0.6-0.47-1.07-0.94-1.42
			c-0.45-0.36-1.01-0.54-1.66-0.54c-0.65,0-1.21,0.18-1.66,0.54c-0.45,0.35-0.76,0.82-0.92,1.42c-0.11,0.47-0.16,1.14-0.16,2.02
			s0.05,1.55,0.16,2.02c0.15,0.6,0.45,1.08,0.9,1.44C319.11,740.75,319.68,740.92,320.34,740.92z M330.7,742.1
			c-0.75,0-1.41-0.12-2-0.36c-0.57-0.24-1.02-0.56-1.34-0.96c-0.31-0.4-0.46-0.85-0.46-1.34v-0.24c0-0.13,0.07-0.2,0.2-0.2h0.96
			c0.13,0,0.2,0.07,0.2,0.2v0.16c0,0.44,0.23,0.83,0.68,1.16c0.47,0.32,1.05,0.48,1.74,0.48c0.69,0,1.25-0.15,1.68-0.46
			c0.43-0.32,0.64-0.72,0.64-1.2c0-0.33-0.11-0.61-0.34-0.82c-0.21-0.21-0.47-0.38-0.78-0.5c-0.29-0.12-0.75-0.27-1.38-0.46
			c-0.75-0.21-1.36-0.43-1.84-0.64c-0.48-0.21-0.89-0.51-1.22-0.88c-0.32-0.39-0.48-0.87-0.48-1.46c0-0.85,0.33-1.53,1-2.04
			c0.67-0.51,1.55-0.76,2.64-0.76c0.73,0,1.38,0.12,1.94,0.36c0.57,0.24,1.01,0.57,1.32,1c0.31,0.41,0.46,0.88,0.46,1.4v0.06
			c0,0.13-0.07,0.2-0.2,0.2h-0.94c-0.13,0-0.2-0.07-0.2-0.2v-0.06c0-0.45-0.22-0.83-0.66-1.14c-0.43-0.31-1.01-0.46-1.74-0.46
			c-0.68,0-1.23,0.14-1.64,0.42c-0.41,0.27-0.62,0.64-0.62,1.12c0,0.45,0.2,0.8,0.6,1.04c0.4,0.24,1.02,0.48,1.86,0.72
			c0.77,0.23,1.4,0.44,1.88,0.64c0.48,0.2,0.89,0.49,1.24,0.88c0.35,0.37,0.52,0.87,0.52,1.48c0,0.87-0.34,1.56-1.02,2.08
			S331.82,742.1,330.7,742.1z M344.51,731.72c1.2,0,2.13,0.31,2.78,0.92c0.65,0.61,0.98,1.43,0.98,2.44v6.72
			c0,0.13-0.07,0.2-0.2,0.2h-1.02c-0.13,0-0.2-0.07-0.2-0.2v-0.82c0-0.03-0.01-0.05-0.04-0.06c-0.01-0.01-0.03-0.01-0.06,0.02
			c-0.33,0.4-0.77,0.71-1.3,0.92c-0.53,0.2-1.13,0.3-1.78,0.3c-0.95,0-1.74-0.24-2.38-0.72c-0.64-0.48-0.96-1.21-0.96-2.2
			c0-1,0.36-1.79,1.08-2.36c0.73-0.59,1.75-0.88,3.04-0.88h2.32c0.05,0,0.08-0.03,0.08-0.08v-0.76c0-0.68-0.19-1.21-0.58-1.6
			c-0.37-0.4-0.96-0.6-1.76-0.6c-0.64,0-1.16,0.13-1.56,0.38c-0.4,0.24-0.65,0.58-0.74,1.02c-0.04,0.13-0.12,0.19-0.24,0.18
			l-1.08-0.14c-0.15-0.03-0.21-0.08-0.18-0.16c0.11-0.75,0.51-1.35,1.2-1.82C342.61,731.95,343.47,731.72,344.51,731.72z
			 M343.95,740.94c0.79,0,1.47-0.19,2.04-0.58c0.57-0.4,0.86-0.93,0.86-1.6v-1.56c0-0.05-0.03-0.08-0.08-0.08h-2.1
			c-0.88,0-1.59,0.18-2.12,0.54c-0.53,0.36-0.8,0.86-0.8,1.5c0,0.59,0.2,1.03,0.6,1.34C342.77,740.79,343.3,740.94,343.95,740.94z
			 M351.43,742c-0.13,0-0.2-0.07-0.2-0.2v-13.6c0-0.13,0.07-0.2,0.2-0.2h1.02c0.13,0,0.2,0.07,0.2,0.2v13.6c0,0.13-0.07,0.2-0.2,0.2
			H351.43z M88.53,766.16c-0.96,0-1.79-0.25-2.48-0.74c-0.68-0.51-1.15-1.19-1.4-2.04c-0.17-0.59-0.26-1.41-0.26-2.48
			c0-0.96,0.09-1.77,0.26-2.44c0.24-0.83,0.71-1.49,1.4-1.98c0.69-0.51,1.52-0.76,2.48-0.76c0.97,0,1.81,0.25,2.52,0.74
			c0.72,0.49,1.19,1.11,1.4,1.84c0.07,0.24,0.11,0.44,0.12,0.6v0.04c0,0.09-0.06,0.15-0.18,0.18l-1,0.14h-0.04
			c-0.09,0-0.15-0.06-0.18-0.18l-0.06-0.3c-0.12-0.51-0.41-0.93-0.88-1.28c-0.47-0.36-1.03-0.54-1.7-0.54
			c-0.67,0-1.23,0.18-1.68,0.54c-0.44,0.35-0.73,0.81-0.86,1.4c-0.12,0.51-0.18,1.18-0.18,2.02c0,0.88,0.06,1.56,0.18,2.04
			c0.13,0.6,0.42,1.08,0.86,1.44c0.45,0.35,1.01,0.52,1.68,0.52c0.65,0,1.21-0.17,1.68-0.5c0.48-0.35,0.78-0.79,0.9-1.32v-0.08
			l0.02-0.08c0.01-0.13,0.09-0.19,0.24-0.16l0.98,0.16c0.13,0.03,0.19,0.1,0.18,0.22l-0.08,0.4c-0.2,0.77-0.66,1.4-1.38,1.88
			S89.5,766.16,88.53,766.16z M98.6,755.72c1.2,0,2.13,0.31,2.78,0.92c0.65,0.61,0.98,1.43,0.98,2.44v6.72c0,0.13-0.07,0.2-0.2,0.2
			h-1.02c-0.13,0-0.2-0.07-0.2-0.2v-0.82c0-0.03-0.01-0.05-0.04-0.06c-0.01-0.01-0.03-0.01-0.06,0.02c-0.33,0.4-0.77,0.71-1.3,0.92
			c-0.53,0.2-1.13,0.3-1.78,0.3c-0.95,0-1.74-0.24-2.38-0.72s-0.96-1.21-0.96-2.2c0-1,0.36-1.79,1.08-2.36
			c0.73-0.59,1.75-0.88,3.04-0.88h2.32c0.05,0,0.08-0.03,0.08-0.08v-0.76c0-0.68-0.19-1.21-0.58-1.6c-0.37-0.4-0.96-0.6-1.76-0.6
			c-0.64,0-1.16,0.13-1.56,0.38c-0.4,0.24-0.65,0.58-0.74,1.02c-0.04,0.13-0.12,0.19-0.24,0.18l-1.08-0.14
			c-0.15-0.03-0.21-0.08-0.18-0.16c0.11-0.75,0.51-1.35,1.2-1.82C96.69,755.95,97.56,755.72,98.6,755.72z M98.04,764.94
			c0.79,0,1.47-0.19,2.04-0.58c0.57-0.4,0.86-0.93,0.86-1.6v-1.56c0-0.05-0.03-0.08-0.08-0.08h-2.1c-0.88,0-1.59,0.18-2.12,0.54
			c-0.53,0.36-0.8,0.86-0.8,1.5c0,0.59,0.2,1.03,0.6,1.34C96.85,764.79,97.38,764.94,98.04,764.94z M109.39,755.78
			c0.44,0,0.82,0.09,1.14,0.26c0.11,0.05,0.15,0.14,0.12,0.26l-0.22,0.98c-0.04,0.13-0.13,0.17-0.26,0.12
			c-0.23-0.09-0.49-0.14-0.78-0.14l-0.26,0.02c-0.69,0.03-1.27,0.29-1.72,0.78c-0.45,0.48-0.68,1.09-0.68,1.84v5.9
			c0,0.13-0.07,0.2-0.2,0.2h-1.02c-0.13,0-0.2-0.07-0.2-0.2v-9.72c0-0.13,0.07-0.2,0.2-0.2h1.02c0.13,0,0.2,0.07,0.2,0.2v1.22
			c0,0.04,0.01,0.07,0.02,0.08c0.03,0,0.05-0.01,0.06-0.04c0.28-0.49,0.63-0.87,1.06-1.14
			C108.31,755.92,108.82,755.78,109.39,755.78z M116.68,755.78c0.44,0,0.82,0.09,1.14,0.26c0.11,0.05,0.15,0.14,0.12,0.26
			l-0.22,0.98c-0.04,0.13-0.13,0.17-0.26,0.12c-0.23-0.09-0.49-0.14-0.78-0.14l-0.26,0.02c-0.69,0.03-1.27,0.29-1.72,0.78
			c-0.45,0.48-0.68,1.09-0.68,1.84v5.9c0,0.13-0.07,0.2-0.2,0.2h-1.02c-0.13,0-0.2-0.07-0.2-0.2v-9.72c0-0.13,0.07-0.2,0.2-0.2h1.02
			c0.13,0,0.2,0.07,0.2,0.2v1.22c0,0.04,0.01,0.07,0.02,0.08c0.03,0,0.05-0.01,0.06-0.04c0.28-0.49,0.63-0.87,1.06-1.14
			C115.6,755.92,116.1,755.78,116.68,755.78z M120.84,754.04c-0.32,0-0.59-0.11-0.8-0.32c-0.21-0.21-0.32-0.48-0.32-0.8
			c0-0.33,0.11-0.6,0.32-0.8c0.21-0.21,0.48-0.32,0.8-0.32s0.59,0.11,0.8,0.32c0.21,0.2,0.32,0.47,0.32,0.8
			c0,0.32-0.11,0.59-0.32,0.8C121.43,753.93,121.16,754.04,120.84,754.04z M120.28,765.98c-0.13,0-0.2-0.07-0.2-0.2v-9.72
			c0-0.13,0.07-0.2,0.2-0.2h1.02c0.13,0,0.2,0.07,0.2,0.2v9.72c0,0.13-0.07,0.2-0.2,0.2H120.28z M129.52,756.86
			c0,0.13-0.07,0.2-0.2,0.2h-2.26c-0.05,0-0.08,0.03-0.08,0.08v5.9c0,0.64,0.14,1.09,0.42,1.36c0.29,0.25,0.75,0.38,1.36,0.38h0.5
			c0.13,0,0.2,0.07,0.2,0.2v0.82c0,0.13-0.07,0.2-0.2,0.2c-0.16,0.01-0.41,0.02-0.74,0.02c-0.96,0-1.69-0.18-2.18-0.54
			c-0.49-0.36-0.74-1.03-0.74-2v-6.34c0-0.05-0.03-0.08-0.08-0.08h-1.22c-0.13,0-0.2-0.07-0.2-0.2v-0.78c0-0.13,0.07-0.2,0.2-0.2
			h1.22c0.05,0,0.08-0.03,0.08-0.08v-2.32c0-0.13,0.07-0.2,0.2-0.2h0.98c0.13,0,0.2,0.07,0.2,0.2v2.32c0,0.05,0.03,0.08,0.08,0.08
			h2.26c0.13,0,0.2,0.07,0.2,0.2V756.86z M135.83,766.16c-0.96,0-1.79-0.25-2.48-0.74c-0.69-0.49-1.17-1.17-1.44-2.04
			c-0.19-0.61-0.28-1.43-0.28-2.46c0-1.03,0.09-1.84,0.28-2.44c0.25-0.85,0.73-1.53,1.42-2.02c0.69-0.49,1.53-0.74,2.52-0.74
			c0.95,0,1.76,0.25,2.44,0.74c0.69,0.49,1.17,1.16,1.42,2c0.19,0.57,0.28,1.39,0.28,2.46c0,1.08-0.09,1.9-0.28,2.46
			c-0.25,0.87-0.73,1.55-1.42,2.04C137.61,765.91,136.79,766.16,135.83,766.16z M135.83,764.92c0.64,0,1.19-0.17,1.64-0.52
			c0.45-0.36,0.76-0.84,0.92-1.44c0.12-0.48,0.18-1.15,0.18-2.02c0-0.88-0.05-1.55-0.16-2.02c-0.16-0.6-0.47-1.07-0.94-1.42
			c-0.45-0.36-1.01-0.54-1.66-0.54s-1.21,0.18-1.66,0.54c-0.45,0.35-0.76,0.82-0.92,1.42c-0.11,0.47-0.16,1.14-0.16,2.02
			s0.05,1.55,0.16,2.02c0.15,0.6,0.45,1.08,0.9,1.44C134.6,764.75,135.16,764.92,135.83,764.92z M146.41,770
			c-0.09,0-0.14-0.07-0.14-0.2V769c0-0.13,0.07-0.2,0.2-0.2h0.08c0.52-0.01,0.92-0.09,1.2-0.24c0.29-0.13,0.54-0.39,0.74-0.78
			c0.21-0.37,0.44-0.95,0.68-1.72c0.03-0.05,0.03-0.09,0-0.12l-3.38-9.84l-0.02-0.08c0-0.09,0.06-0.14,0.18-0.14h1.06
			c0.12,0,0.2,0.05,0.24,0.16l2.6,8.08c0.01,0.03,0.03,0.04,0.06,0.04c0.03,0,0.05-0.01,0.06-0.04l2.56-8.08
			c0.04-0.11,0.12-0.16,0.24-0.16h1.04c0.15,0,0.2,0.07,0.16,0.22l-3.7,10.78c-0.32,0.89-0.62,1.55-0.9,1.98s-0.63,0.72-1.06,0.88
			c-0.41,0.17-1,0.26-1.76,0.26H146.41z M164.3,755.74c1.07,0,1.91,0.31,2.54,0.94c0.64,0.63,0.96,1.47,0.96,2.52v6.6
			c0,0.13-0.07,0.2-0.2,0.2h-1.02c-0.13,0-0.2-0.07-0.2-0.2v-6.32c0-0.73-0.23-1.33-0.68-1.8c-0.44-0.47-1.01-0.7-1.72-0.7
			c-0.73,0-1.33,0.23-1.78,0.68s-0.68,1.05-0.68,1.78v6.36c0,0.13-0.07,0.2-0.2,0.2h-1.02c-0.13,0-0.2-0.07-0.2-0.2v-13.6
			c0-0.13,0.07-0.2,0.2-0.2h1.02c0.13,0,0.2,0.07,0.2,0.2v4.74c0,0.03,0.01,0.05,0.02,0.06c0.03,0.01,0.05,0.01,0.06-0.02
			C162.18,756.15,163.08,755.74,164.3,755.74z M174.38,755.72c1.2,0,2.13,0.31,2.78,0.92c0.65,0.61,0.98,1.43,0.98,2.44v6.72
			c0,0.13-0.07,0.2-0.2,0.2h-1.02c-0.13,0-0.2-0.07-0.2-0.2v-0.82c0-0.03-0.01-0.05-0.04-0.06c-0.01-0.01-0.03-0.01-0.06,0.02
			c-0.33,0.4-0.77,0.71-1.3,0.92c-0.53,0.2-1.13,0.3-1.78,0.3c-0.95,0-1.74-0.24-2.38-0.72s-0.96-1.21-0.96-2.2
			c0-1,0.36-1.79,1.08-2.36c0.73-0.59,1.75-0.88,3.04-0.88h2.32c0.05,0,0.08-0.03,0.08-0.08v-0.76c0-0.68-0.19-1.21-0.58-1.6
			c-0.37-0.4-0.96-0.6-1.76-0.6c-0.64,0-1.16,0.13-1.56,0.38c-0.4,0.24-0.65,0.58-0.74,1.02c-0.04,0.13-0.12,0.19-0.24,0.18
			l-1.08-0.14c-0.15-0.03-0.21-0.08-0.18-0.16c0.11-0.75,0.51-1.35,1.2-1.82C172.47,755.95,173.34,755.72,174.38,755.72z
			 M173.82,764.94c0.79,0,1.47-0.19,2.04-0.58c0.57-0.4,0.86-0.93,0.86-1.6v-1.56c0-0.05-0.03-0.08-0.08-0.08h-2.1
			c-0.88,0-1.59,0.18-2.12,0.54c-0.53,0.36-0.8,0.86-0.8,1.5c0,0.59,0.2,1.03,0.6,1.34C172.63,764.79,173.16,764.94,173.82,764.94z
			 M180.37,766c-0.13,0-0.2-0.07-0.2-0.2v-0.96c0-0.09,0.03-0.17,0.08-0.24l5.68-7.32c0.03-0.03,0.03-0.05,0.02-0.06
			c-0.01-0.03-0.03-0.04-0.06-0.04h-5.44c-0.13,0-0.2-0.07-0.2-0.2v-0.9c0-0.13,0.07-0.2,0.2-0.2h7.02c0.13,0,0.2,0.07,0.2,0.2v0.96
			c0,0.09-0.03,0.17-0.08,0.24l-5.74,7.32c-0.03,0.03-0.03,0.05-0.02,0.08c0.01,0.01,0.03,0.02,0.06,0.02h5.58
			c0.13,0,0.2,0.07,0.2,0.2v0.9c0,0.13-0.07,0.2-0.2,0.2H180.37z M200.28,756.08c0-0.13,0.07-0.2,0.2-0.2h1.02
			c0.13,0,0.2,0.07,0.2,0.2v13.6c0,0.13-0.07,0.2-0.2,0.2h-1.02c-0.13,0-0.2-0.07-0.2-0.2v-4.7c0-0.03-0.01-0.04-0.04-0.04
			c-0.01-0.01-0.03-0.01-0.06,0.02c-0.29,0.39-0.66,0.69-1.1,0.9c-0.44,0.2-0.92,0.3-1.44,0.3c-0.95,0-1.74-0.24-2.38-0.72
			c-0.64-0.49-1.08-1.17-1.32-2.02c-0.16-0.55-0.24-1.37-0.24-2.48c0-1.09,0.09-1.94,0.28-2.54c0.24-0.83,0.67-1.48,1.3-1.96
			c0.64-0.48,1.43-0.72,2.36-0.72c0.53,0,1.01,0.11,1.44,0.32c0.44,0.21,0.81,0.51,1.1,0.9c0.03,0.03,0.05,0.04,0.06,0.04
			c0.03-0.01,0.04-0.03,0.04-0.06V756.08z M199.9,763.42c0.13-0.28,0.23-0.6,0.28-0.96c0.05-0.37,0.08-0.88,0.08-1.52
			s-0.03-1.14-0.08-1.5c-0.05-0.36-0.14-0.67-0.26-0.94c-0.17-0.47-0.44-0.84-0.8-1.12c-0.36-0.28-0.81-0.42-1.34-0.42
			c-0.56,0-1.05,0.14-1.46,0.42c-0.4,0.28-0.68,0.66-0.84,1.14c-0.13,0.28-0.23,0.6-0.28,0.96c-0.05,0.35-0.08,0.83-0.08,1.46
			c0,0.65,0.03,1.17,0.1,1.54c0.08,0.36,0.2,0.69,0.36,0.98c0.17,0.44,0.45,0.79,0.84,1.06c0.39,0.27,0.85,0.4,1.38,0.4
			c0.51,0,0.94-0.13,1.3-0.4C199.48,764.24,199.74,763.87,199.9,763.42z M211.16,756.08c0-0.13,0.07-0.2,0.2-0.2h1.02
			c0.13,0,0.2,0.07,0.2,0.2v9.72c0,0.13-0.07,0.2-0.2,0.2h-1.02c-0.13,0-0.2-0.07-0.2-0.2v-0.86c0-0.03-0.01-0.05-0.04-0.06
			c-0.03-0.01-0.05-0.01-0.06,0.02c-0.56,0.83-1.45,1.24-2.66,1.24c-0.64,0-1.23-0.13-1.78-0.38c-0.53-0.27-0.96-0.65-1.28-1.14
			c-0.31-0.49-0.46-1.09-0.46-1.78v-6.76c0-0.13,0.07-0.2,0.2-0.2h1.02c0.13,0,0.2,0.07,0.2,0.2v6.34c0,0.76,0.21,1.37,0.64,1.82
			c0.43,0.44,1.01,0.66,1.74,0.66c0.76,0,1.36-0.23,1.8-0.68c0.45-0.45,0.68-1.05,0.68-1.8V756.08z M223.52,759.24
			c0.05,0.37,0.08,0.84,0.08,1.4v0.64c0,0.13-0.07,0.2-0.2,0.2h-6.46c-0.05,0-0.08,0.03-0.08,0.08c0.03,0.73,0.07,1.21,0.12,1.42
			c0.15,0.6,0.46,1.07,0.94,1.42c0.48,0.35,1.09,0.52,1.84,0.52c0.56,0,1.05-0.13,1.48-0.38c0.43-0.25,0.76-0.61,1-1.08
			c0.08-0.12,0.17-0.15,0.28-0.08l0.78,0.46c0.11,0.07,0.13,0.16,0.08,0.28c-0.33,0.64-0.83,1.15-1.5,1.52
			c-0.67,0.36-1.43,0.54-2.3,0.54c-0.95-0.01-1.74-0.24-2.38-0.68s-1.1-1.05-1.38-1.84c-0.24-0.64-0.36-1.56-0.36-2.76
			c0-0.56,0.01-1.01,0.02-1.36c0.03-0.36,0.08-0.68,0.16-0.96c0.23-0.87,0.68-1.56,1.36-2.08c0.69-0.52,1.53-0.78,2.5-0.78
			c1.21,0,2.15,0.31,2.8,0.92C222.95,757.25,223.36,758.12,223.52,759.24z M219.5,756.96c-0.65,0-1.2,0.17-1.64,0.52
			c-0.43,0.33-0.71,0.79-0.84,1.36c-0.08,0.28-0.13,0.73-0.16,1.36c0,0.05,0.03,0.08,0.08,0.08h5.18c0.05,0,0.08-0.03,0.08-0.08
			c-0.03-0.6-0.07-1.03-0.12-1.28c-0.15-0.6-0.45-1.07-0.9-1.42C220.74,757.14,220.18,756.96,219.5,756.96z M233.75,766.1
			c-0.75,0-1.41-0.12-2-0.36c-0.57-0.24-1.02-0.56-1.34-0.96c-0.31-0.4-0.46-0.85-0.46-1.34v-0.24c0-0.13,0.07-0.2,0.2-0.2h0.96
			c0.13,0,0.2,0.07,0.2,0.2v0.16c0,0.44,0.23,0.83,0.68,1.16c0.47,0.32,1.05,0.48,1.74,0.48c0.69,0,1.25-0.15,1.68-0.46
			c0.43-0.32,0.64-0.72,0.64-1.2c0-0.33-0.11-0.61-0.34-0.82c-0.21-0.21-0.47-0.38-0.78-0.5c-0.29-0.12-0.75-0.27-1.38-0.46
			c-0.75-0.21-1.36-0.43-1.84-0.64c-0.48-0.21-0.89-0.51-1.22-0.88c-0.32-0.39-0.48-0.87-0.48-1.46c0-0.85,0.33-1.53,1-2.04
			c0.67-0.51,1.55-0.76,2.64-0.76c0.73,0,1.38,0.12,1.94,0.36c0.57,0.24,1.01,0.57,1.32,1c0.31,0.41,0.46,0.88,0.46,1.4v0.06
			c0,0.13-0.07,0.2-0.2,0.2h-0.94c-0.13,0-0.2-0.07-0.2-0.2v-0.06c0-0.45-0.22-0.83-0.66-1.14c-0.43-0.31-1.01-0.46-1.74-0.46
			c-0.68,0-1.23,0.14-1.64,0.42c-0.41,0.27-0.62,0.64-0.62,1.12c0,0.45,0.2,0.8,0.6,1.04c0.4,0.24,1.02,0.48,1.86,0.72
			c0.77,0.23,1.4,0.44,1.88,0.64c0.48,0.2,0.89,0.49,1.24,0.88c0.35,0.37,0.52,0.87,0.52,1.48c0,0.87-0.34,1.56-1.02,2.08
			C235.77,765.84,234.87,766.1,233.75,766.1z M247.82,759.24c0.05,0.37,0.08,0.84,0.08,1.4v0.64c0,0.13-0.07,0.2-0.2,0.2h-6.46
			c-0.05,0-0.08,0.03-0.08,0.08c0.03,0.73,0.07,1.21,0.12,1.42c0.15,0.6,0.46,1.07,0.94,1.42c0.48,0.35,1.09,0.52,1.84,0.52
			c0.56,0,1.05-0.13,1.48-0.38c0.43-0.25,0.76-0.61,1-1.08c0.08-0.12,0.17-0.15,0.28-0.08l0.78,0.46c0.11,0.07,0.13,0.16,0.08,0.28
			c-0.33,0.64-0.83,1.15-1.5,1.52c-0.67,0.36-1.43,0.54-2.3,0.54c-0.95-0.01-1.74-0.24-2.38-0.68s-1.1-1.05-1.38-1.84
			c-0.24-0.64-0.36-1.56-0.36-2.76c0-0.56,0.01-1.01,0.02-1.36c0.03-0.36,0.08-0.68,0.16-0.96c0.23-0.87,0.68-1.56,1.36-2.08
			c0.69-0.52,1.53-0.78,2.5-0.78c1.21,0,2.15,0.31,2.8,0.92C247.25,757.25,247.66,758.12,247.82,759.24z M243.8,756.96
			c-0.65,0-1.2,0.17-1.64,0.52c-0.43,0.33-0.71,0.79-0.84,1.36c-0.08,0.28-0.13,0.73-0.16,1.36c0,0.05,0.03,0.08,0.08,0.08h5.18
			c0.05,0,0.08-0.03,0.08-0.08c-0.03-0.6-0.07-1.03-0.12-1.28c-0.15-0.6-0.45-1.07-0.9-1.42
			C245.04,757.14,244.48,756.96,243.8,756.96z M254.12,755.72c1.2,0,2.13,0.31,2.78,0.92c0.65,0.61,0.98,1.43,0.98,2.44v6.72
			c0,0.13-0.07,0.2-0.2,0.2h-1.02c-0.13,0-0.2-0.07-0.2-0.2v-0.82c0-0.03-0.01-0.05-0.04-0.06c-0.01-0.01-0.03-0.01-0.06,0.02
			c-0.33,0.4-0.77,0.71-1.3,0.92c-0.53,0.2-1.13,0.3-1.78,0.3c-0.95,0-1.74-0.24-2.38-0.72s-0.96-1.21-0.96-2.2
			c0-1,0.36-1.79,1.08-2.36c0.73-0.59,1.75-0.88,3.04-0.88h2.32c0.05,0,0.08-0.03,0.08-0.08v-0.76c0-0.68-0.19-1.21-0.58-1.6
			c-0.37-0.4-0.96-0.6-1.76-0.6c-0.64,0-1.16,0.13-1.56,0.38c-0.4,0.24-0.65,0.58-0.74,1.02c-0.04,0.13-0.12,0.19-0.24,0.18
			l-1.08-0.14c-0.15-0.03-0.21-0.08-0.18-0.16c0.11-0.75,0.51-1.35,1.2-1.82C252.22,755.95,253.08,755.72,254.12,755.72z
			 M253.56,764.94c0.79,0,1.47-0.19,2.04-0.58c0.57-0.4,0.86-0.93,0.86-1.6v-1.56c0-0.05-0.03-0.08-0.08-0.08h-2.1
			c-0.88,0-1.59,0.18-2.12,0.54c-0.53,0.36-0.8,0.86-0.8,1.5c0,0.59,0.2,1.03,0.6,1.34C252.38,764.79,252.91,764.94,253.56,764.94z
			 M265.04,755.74c1.07,0,1.91,0.31,2.54,0.94c0.64,0.63,0.96,1.47,0.96,2.52v6.6c0,0.13-0.07,0.2-0.2,0.2h-1.02
			c-0.13,0-0.2-0.07-0.2-0.2v-6.32c0-0.73-0.23-1.33-0.68-1.8c-0.44-0.47-1.01-0.7-1.72-0.7c-0.73,0-1.33,0.23-1.78,0.68
			c-0.45,0.45-0.68,1.05-0.68,1.78v6.36c0,0.13-0.07,0.2-0.2,0.2h-1.02c-0.13,0-0.2-0.07-0.2-0.2v-9.72c0-0.13,0.07-0.2,0.2-0.2
			h1.02c0.13,0,0.2,0.07,0.2,0.2v0.86c0,0.03,0.01,0.05,0.02,0.06c0.03,0.01,0.05,0.01,0.06-0.02
			C262.92,756.15,263.83,755.74,265.04,755.74z M280.16,756.86c0,0.13-0.07,0.2-0.2,0.2h-2.26c-0.05,0-0.08,0.03-0.08,0.08v5.9
			c0,0.64,0.14,1.09,0.42,1.36c0.29,0.25,0.75,0.38,1.36,0.38h0.5c0.13,0,0.2,0.07,0.2,0.2v0.82c0,0.13-0.07,0.2-0.2,0.2
			c-0.16,0.01-0.41,0.02-0.74,0.02c-0.96,0-1.69-0.18-2.18-0.54c-0.49-0.36-0.74-1.03-0.74-2v-6.34c0-0.05-0.03-0.08-0.08-0.08
			h-1.22c-0.13,0-0.2-0.07-0.2-0.2v-0.78c0-0.13,0.07-0.2,0.2-0.2h1.22c0.05,0,0.08-0.03,0.08-0.08v-2.32c0-0.13,0.07-0.2,0.2-0.2
			h0.98c0.13,0,0.2,0.07,0.2,0.2v2.32c0,0.05,0.03,0.08,0.08,0.08h2.26c0.13,0,0.2,0.07,0.2,0.2V756.86z M289.03,756.08
			c0-0.13,0.07-0.2,0.2-0.2h1.02c0.13,0,0.2,0.07,0.2,0.2v9.72c0,0.13-0.07,0.2-0.2,0.2h-1.02c-0.13,0-0.2-0.07-0.2-0.2v-0.86
			c0-0.03-0.01-0.05-0.04-0.06c-0.03-0.01-0.05-0.01-0.06,0.02c-0.56,0.83-1.45,1.24-2.66,1.24c-0.64,0-1.23-0.13-1.78-0.38
			c-0.53-0.27-0.96-0.65-1.28-1.14c-0.31-0.49-0.46-1.09-0.46-1.78v-6.76c0-0.13,0.07-0.2,0.2-0.2h1.02c0.13,0,0.2,0.07,0.2,0.2
			v6.34c0,0.76,0.21,1.37,0.64,1.82c0.43,0.44,1.01,0.66,1.74,0.66c0.76,0,1.36-0.23,1.8-0.68c0.45-0.45,0.68-1.05,0.68-1.8V756.08z
			 M293.17,770c-0.09,0-0.14-0.07-0.14-0.2V769c0-0.13,0.07-0.2,0.2-0.2h0.08c0.52-0.01,0.92-0.09,1.2-0.24
			c0.29-0.13,0.54-0.39,0.74-0.78c0.21-0.37,0.44-0.95,0.68-1.72c0.03-0.05,0.03-0.09,0-0.12l-3.38-9.84l-0.02-0.08
			c0-0.09,0.06-0.14,0.18-0.14h1.06c0.12,0,0.2,0.05,0.24,0.16l2.6,8.08c0.01,0.03,0.03,0.04,0.06,0.04c0.03,0,0.05-0.01,0.06-0.04
			l2.56-8.08c0.04-0.11,0.12-0.16,0.24-0.16h1.04c0.15,0,0.2,0.07,0.16,0.22l-3.7,10.78c-0.32,0.89-0.62,1.55-0.9,1.98
			s-0.63,0.72-1.06,0.88c-0.41,0.17-1,0.26-1.76,0.26H293.17z M306.38,766.16c-0.96,0-1.79-0.25-2.48-0.74
			c-0.69-0.49-1.17-1.17-1.44-2.04c-0.19-0.61-0.28-1.43-0.28-2.46c0-1.03,0.09-1.84,0.28-2.44c0.25-0.85,0.73-1.53,1.42-2.02
			c0.69-0.49,1.53-0.74,2.52-0.74c0.95,0,1.76,0.25,2.44,0.74c0.69,0.49,1.17,1.16,1.42,2c0.19,0.57,0.28,1.39,0.28,2.46
			c0,1.08-0.09,1.9-0.28,2.46c-0.25,0.87-0.73,1.55-1.42,2.04C308.16,765.91,307.34,766.16,306.38,766.16z M306.38,764.92
			c0.64,0,1.19-0.17,1.64-0.52c0.45-0.36,0.76-0.84,0.92-1.44c0.12-0.48,0.18-1.15,0.18-2.02c0-0.88-0.05-1.55-0.16-2.02
			c-0.16-0.6-0.47-1.07-0.94-1.42c-0.45-0.36-1.01-0.54-1.66-0.54c-0.65,0-1.21,0.18-1.66,0.54c-0.45,0.35-0.76,0.82-0.92,1.42
			c-0.11,0.47-0.16,1.14-0.16,2.02s0.05,1.55,0.16,2.02c0.15,0.6,0.45,1.08,0.9,1.44C305.14,764.75,305.71,764.92,306.38,764.92z
			 M316.74,766.1c-0.75,0-1.41-0.12-2-0.36c-0.57-0.24-1.02-0.56-1.34-0.96c-0.31-0.4-0.46-0.85-0.46-1.34v-0.24
			c0-0.13,0.07-0.2,0.2-0.2h0.96c0.13,0,0.2,0.07,0.2,0.2v0.16c0,0.44,0.23,0.83,0.68,1.16c0.47,0.32,1.05,0.48,1.74,0.48
			c0.69,0,1.25-0.15,1.68-0.46c0.43-0.32,0.64-0.72,0.64-1.2c0-0.33-0.11-0.61-0.34-0.82c-0.21-0.21-0.47-0.38-0.78-0.5
			c-0.29-0.12-0.75-0.27-1.38-0.46c-0.75-0.21-1.36-0.43-1.84-0.64c-0.48-0.21-0.89-0.51-1.22-0.88c-0.32-0.39-0.48-0.87-0.48-1.46
			c0-0.85,0.33-1.53,1-2.04c0.67-0.51,1.55-0.76,2.64-0.76c0.73,0,1.38,0.12,1.94,0.36c0.57,0.24,1.01,0.57,1.32,1
			c0.31,0.41,0.46,0.88,0.46,1.4v0.06c0,0.13-0.07,0.2-0.2,0.2h-0.94c-0.13,0-0.2-0.07-0.2-0.2v-0.06c0-0.45-0.22-0.83-0.66-1.14
			c-0.43-0.31-1.01-0.46-1.74-0.46c-0.68,0-1.23,0.14-1.64,0.42c-0.41,0.27-0.62,0.64-0.62,1.12c0,0.45,0.2,0.8,0.6,1.04
			s1.02,0.48,1.86,0.72c0.77,0.23,1.4,0.44,1.88,0.64c0.48,0.2,0.89,0.49,1.24,0.88c0.35,0.37,0.52,0.87,0.52,1.48
			c0,0.87-0.34,1.56-1.02,2.08S317.86,766.1,316.74,766.1z M334.81,759.24c0.05,0.37,0.08,0.84,0.08,1.4v0.64
			c0,0.13-0.07,0.2-0.2,0.2h-6.46c-0.05,0-0.08,0.03-0.08,0.08c0.03,0.73,0.07,1.21,0.12,1.42c0.15,0.6,0.46,1.07,0.94,1.42
			c0.48,0.35,1.09,0.52,1.84,0.52c0.56,0,1.05-0.13,1.48-0.38c0.43-0.25,0.76-0.61,1-1.08c0.08-0.12,0.17-0.15,0.28-0.08l0.78,0.46
			c0.11,0.07,0.13,0.16,0.08,0.28c-0.33,0.64-0.83,1.15-1.5,1.52c-0.67,0.36-1.43,0.54-2.3,0.54c-0.95-0.01-1.74-0.24-2.38-0.68
			c-0.64-0.44-1.1-1.05-1.38-1.84c-0.24-0.64-0.36-1.56-0.36-2.76c0-0.56,0.01-1.01,0.02-1.36c0.03-0.36,0.08-0.68,0.16-0.96
			c0.23-0.87,0.68-1.56,1.36-2.08c0.69-0.52,1.53-0.78,2.5-0.78c1.21,0,2.15,0.31,2.8,0.92
			C334.24,757.25,334.65,758.12,334.81,759.24z M330.79,756.96c-0.65,0-1.2,0.17-1.64,0.52c-0.43,0.33-0.71,0.79-0.84,1.36
			c-0.08,0.28-0.13,0.73-0.16,1.36c0,0.05,0.03,0.08,0.08,0.08h5.18c0.05,0,0.08-0.03,0.08-0.08c-0.03-0.6-0.07-1.03-0.12-1.28
			c-0.15-0.6-0.45-1.07-0.9-1.42C332.03,757.14,331.47,756.96,330.79,756.96z M341.91,755.74c1.07,0,1.91,0.31,2.54,0.94
			c0.64,0.63,0.96,1.47,0.96,2.52v6.6c0,0.13-0.07,0.2-0.2,0.2h-1.02c-0.13,0-0.2-0.07-0.2-0.2v-6.32c0-0.73-0.23-1.33-0.68-1.8
			c-0.44-0.47-1.01-0.7-1.72-0.7c-0.73,0-1.33,0.23-1.78,0.68c-0.45,0.45-0.68,1.05-0.68,1.78v6.36c0,0.13-0.07,0.2-0.2,0.2h-1.02
			c-0.13,0-0.2-0.07-0.2-0.2v-9.72c0-0.13,0.07-0.2,0.2-0.2h1.02c0.13,0,0.2,0.07,0.2,0.2v0.86c0,0.03,0.01,0.05,0.02,0.06
			c0.03,0.01,0.05,0.01,0.06-0.02C339.8,756.15,340.7,755.74,341.91,755.74z M135.77,780.08c0-0.13,0.07-0.2,0.2-0.2h1.02
			c0.13,0,0.2,0.07,0.2,0.2v9.72c0,0.13-0.07,0.2-0.2,0.2h-1.02c-0.13,0-0.2-0.07-0.2-0.2v-0.86c0-0.03-0.01-0.05-0.04-0.06
			c-0.03-0.01-0.05-0.01-0.06,0.02c-0.56,0.83-1.45,1.24-2.66,1.24c-0.64,0-1.23-0.13-1.78-0.38c-0.53-0.27-0.96-0.65-1.28-1.14
			c-0.31-0.49-0.46-1.09-0.46-1.78v-6.76c0-0.13,0.07-0.2,0.2-0.2h1.02c0.13,0,0.2,0.07,0.2,0.2v6.34c0,0.76,0.21,1.37,0.64,1.82
			c0.43,0.44,1.01,0.66,1.74,0.66c0.76,0,1.36-0.23,1.8-0.68c0.45-0.45,0.68-1.05,0.68-1.8V780.08z M144.57,779.74
			c1.07,0,1.91,0.31,2.54,0.94c0.64,0.63,0.96,1.47,0.96,2.52v6.6c0,0.13-0.07,0.2-0.2,0.2h-1.02c-0.13,0-0.2-0.07-0.2-0.2v-6.32
			c0-0.73-0.23-1.33-0.68-1.8c-0.44-0.47-1.01-0.7-1.72-0.7c-0.73,0-1.33,0.23-1.78,0.68c-0.45,0.45-0.68,1.05-0.68,1.78v6.36
			c0,0.13-0.07,0.2-0.2,0.2h-1.02c-0.13,0-0.2-0.07-0.2-0.2v-9.72c0-0.13,0.07-0.2,0.2-0.2h1.02c0.13,0,0.2,0.07,0.2,0.2v0.86
			c0,0.03,0.01,0.05,0.02,0.06c0.03,0.01,0.05,0.01,0.06-0.02C142.46,780.15,143.36,779.74,144.57,779.74z M154.87,790.16
			c-0.96,0-1.79-0.25-2.48-0.74c-0.69-0.49-1.17-1.17-1.44-2.04c-0.19-0.61-0.28-1.43-0.28-2.46c0-1.03,0.09-1.84,0.28-2.44
			c0.25-0.85,0.73-1.53,1.42-2.02c0.69-0.49,1.53-0.74,2.52-0.74c0.95,0,1.76,0.25,2.44,0.74c0.69,0.49,1.17,1.16,1.42,2
			c0.19,0.57,0.28,1.39,0.28,2.46c0,1.08-0.09,1.9-0.28,2.46c-0.25,0.87-0.73,1.55-1.42,2.04
			C156.65,789.91,155.83,790.16,154.87,790.16z M154.87,788.92c0.64,0,1.19-0.17,1.64-0.52c0.45-0.36,0.76-0.84,0.92-1.44
			c0.12-0.48,0.18-1.15,0.18-2.02c0-0.88-0.05-1.55-0.16-2.02c-0.16-0.6-0.47-1.07-0.94-1.42c-0.45-0.36-1.01-0.54-1.66-0.54
			s-1.21,0.18-1.66,0.54c-0.45,0.35-0.76,0.82-0.92,1.42c-0.11,0.47-0.16,1.14-0.16,2.02s0.05,1.55,0.16,2.02
			c0.15,0.6,0.45,1.08,0.9,1.44C153.64,788.75,154.21,788.92,154.87,788.92z M165.23,790.1c-0.75,0-1.41-0.12-2-0.36
			c-0.57-0.24-1.02-0.56-1.34-0.96c-0.31-0.4-0.46-0.85-0.46-1.34v-0.24c0-0.13,0.07-0.2,0.2-0.2h0.96c0.13,0,0.2,0.07,0.2,0.2v0.16
			c0,0.44,0.23,0.83,0.68,1.16c0.47,0.32,1.05,0.48,1.74,0.48c0.69,0,1.25-0.15,1.68-0.46c0.43-0.32,0.64-0.72,0.64-1.2
			c0-0.33-0.11-0.61-0.34-0.82c-0.21-0.21-0.47-0.38-0.78-0.5c-0.29-0.12-0.75-0.27-1.38-0.46c-0.75-0.21-1.36-0.43-1.84-0.64
			c-0.48-0.21-0.89-0.51-1.22-0.88c-0.32-0.39-0.48-0.87-0.48-1.46c0-0.85,0.33-1.53,1-2.04c0.67-0.51,1.55-0.76,2.64-0.76
			c0.73,0,1.38,0.12,1.94,0.36c0.57,0.24,1.01,0.57,1.32,1c0.31,0.41,0.46,0.88,0.46,1.4v0.06c0,0.13-0.07,0.2-0.2,0.2h-0.94
			c-0.13,0-0.2-0.07-0.2-0.2v-0.06c0-0.45-0.22-0.83-0.66-1.14c-0.43-0.31-1.01-0.46-1.74-0.46c-0.68,0-1.23,0.14-1.64,0.42
			c-0.41,0.27-0.62,0.64-0.62,1.12c0,0.45,0.2,0.8,0.6,1.04c0.4,0.24,1.02,0.48,1.86,0.72c0.77,0.23,1.4,0.44,1.88,0.64
			c0.48,0.2,0.89,0.49,1.24,0.88c0.35,0.37,0.52,0.87,0.52,1.48c0,0.87-0.34,1.56-1.02,2.08
			C167.25,789.84,166.35,790.1,165.23,790.1z M178.87,790.1c-0.75,0-1.41-0.12-2-0.36c-0.57-0.24-1.02-0.56-1.34-0.96
			c-0.31-0.4-0.46-0.85-0.46-1.34v-0.24c0-0.13,0.07-0.2,0.2-0.2h0.96c0.13,0,0.2,0.07,0.2,0.2v0.16c0,0.44,0.23,0.83,0.68,1.16
			c0.47,0.32,1.05,0.48,1.74,0.48c0.69,0,1.25-0.15,1.68-0.46c0.43-0.32,0.64-0.72,0.64-1.2c0-0.33-0.11-0.61-0.34-0.82
			c-0.21-0.21-0.47-0.38-0.78-0.5c-0.29-0.12-0.75-0.27-1.38-0.46c-0.75-0.21-1.36-0.43-1.84-0.64s-0.89-0.51-1.22-0.88
			c-0.32-0.39-0.48-0.87-0.48-1.46c0-0.85,0.33-1.53,1-2.04c0.67-0.51,1.55-0.76,2.64-0.76c0.73,0,1.38,0.12,1.94,0.36
			c0.57,0.24,1.01,0.57,1.32,1c0.31,0.41,0.46,0.88,0.46,1.4v0.06c0,0.13-0.07,0.2-0.2,0.2h-0.94c-0.13,0-0.2-0.07-0.2-0.2v-0.06
			c0-0.45-0.22-0.83-0.66-1.14c-0.43-0.31-1.01-0.46-1.74-0.46c-0.68,0-1.23,0.14-1.64,0.42c-0.41,0.27-0.62,0.64-0.62,1.12
			c0,0.45,0.2,0.8,0.6,1.04c0.4,0.24,1.02,0.48,1.86,0.72c0.77,0.23,1.4,0.44,1.88,0.64s0.89,0.49,1.24,0.88
			c0.35,0.37,0.52,0.87,0.52,1.48c0,0.87-0.34,1.56-1.02,2.08C180.88,789.84,179.99,790.1,178.87,790.1z M186.13,778.04
			c-0.32,0-0.59-0.11-0.8-0.32c-0.21-0.21-0.32-0.48-0.32-0.8c0-0.33,0.11-0.6,0.32-0.8c0.21-0.21,0.48-0.32,0.8-0.32
			c0.32,0,0.59,0.11,0.8,0.32c0.21,0.2,0.32,0.47,0.32,0.8c0,0.32-0.11,0.59-0.32,0.8C186.72,777.93,186.45,778.04,186.13,778.04z
			 M185.57,789.98c-0.13,0-0.2-0.07-0.2-0.2v-9.72c0-0.13,0.07-0.2,0.2-0.2h1.02c0.13,0,0.2,0.07,0.2,0.2v9.72
			c0,0.13-0.07,0.2-0.2,0.2H185.57z M200.51,779.74c1,0,1.79,0.3,2.36,0.9c0.59,0.6,0.88,1.42,0.88,2.46v6.7
			c0,0.13-0.07,0.2-0.2,0.2h-1c-0.13,0-0.2-0.07-0.2-0.2v-6.42c0-0.73-0.21-1.31-0.64-1.74c-0.41-0.44-0.96-0.66-1.64-0.66
			c-0.71,0-1.28,0.21-1.72,0.64c-0.43,0.43-0.64,1-0.64,1.72v6.46c0,0.13-0.07,0.2-0.2,0.2h-1.02c-0.13,0-0.2-0.07-0.2-0.2v-6.42
			c0-0.73-0.21-1.31-0.62-1.74c-0.41-0.44-0.97-0.66-1.66-0.66c-0.71,0-1.27,0.21-1.7,0.64c-0.41,0.43-0.62,1-0.62,1.72v6.46
			c0,0.13-0.07,0.2-0.2,0.2h-1.02c-0.13,0-0.2-0.07-0.2-0.2v-9.72c0-0.13,0.07-0.2,0.2-0.2h1.02c0.13,0,0.2,0.07,0.2,0.2v0.8
			c0,0.03,0.01,0.05,0.02,0.06c0.03,0,0.05-0.01,0.08-0.04c0.29-0.39,0.67-0.67,1.12-0.86c0.47-0.2,0.98-0.3,1.54-0.3
			c0.69,0,1.29,0.14,1.78,0.42c0.49,0.28,0.87,0.69,1.12,1.22c0.03,0.07,0.06,0.07,0.1,0c0.29-0.55,0.71-0.95,1.24-1.22
			C199.23,779.88,199.83,779.74,200.51,779.74z M214.68,782.4c0.2,0.64,0.3,1.49,0.3,2.54c0,1.07-0.09,1.89-0.26,2.48
			c-0.24,0.85-0.68,1.53-1.32,2.02c-0.63,0.48-1.42,0.72-2.38,0.72c-0.52,0-1-0.1-1.44-0.3c-0.44-0.21-0.81-0.51-1.1-0.9
			c-0.03-0.03-0.05-0.03-0.08-0.02c-0.01,0-0.02,0.01-0.02,0.04v4.7c0,0.13-0.07,0.2-0.2,0.2h-1.02c-0.13,0-0.2-0.07-0.2-0.2v-13.6
			c0-0.13,0.07-0.2,0.2-0.2h1.02c0.13,0,0.2,0.07,0.2,0.2v0.84c0,0.03,0.01,0.05,0.02,0.06c0.03,0,0.05-0.01,0.08-0.04
			c0.29-0.39,0.65-0.69,1.08-0.9c0.44-0.21,0.93-0.32,1.46-0.32c0.93,0,1.71,0.24,2.34,0.72
			C213.99,780.92,214.43,781.57,214.68,782.4z M213.1,787.46c0.15-0.29,0.25-0.62,0.32-0.98c0.08-0.37,0.12-0.89,0.12-1.54
			c0-0.63-0.03-1.11-0.08-1.46c-0.05-0.36-0.15-0.68-0.28-0.96c-0.16-0.48-0.45-0.86-0.86-1.14c-0.4-0.28-0.88-0.42-1.44-0.42
			c-0.53,0-0.98,0.14-1.34,0.42c-0.36,0.28-0.63,0.65-0.8,1.12c-0.12,0.27-0.21,0.58-0.26,0.94c-0.05,0.36-0.08,0.86-0.08,1.5
			s0.03,1.15,0.08,1.52c0.05,0.36,0.15,0.68,0.28,0.96c0.16,0.45,0.42,0.82,0.78,1.1c0.37,0.27,0.81,0.4,1.32,0.4
			c0.53,0,0.99-0.13,1.38-0.4C212.63,788.25,212.92,787.9,213.1,787.46z M218.05,790c-0.13,0-0.2-0.07-0.2-0.2v-13.6
			c0-0.13,0.07-0.2,0.2-0.2h1.02c0.13,0,0.2,0.07,0.2,0.2v13.6c0,0.13-0.07,0.2-0.2,0.2H218.05z M230.22,783.24
			c0.05,0.37,0.08,0.84,0.08,1.4v0.64c0,0.13-0.07,0.2-0.2,0.2h-6.46c-0.05,0-0.08,0.03-0.08,0.08c0.03,0.73,0.07,1.21,0.12,1.42
			c0.15,0.6,0.46,1.07,0.94,1.42c0.48,0.35,1.09,0.52,1.84,0.52c0.56,0,1.05-0.13,1.48-0.38c0.43-0.25,0.76-0.61,1-1.08
			c0.08-0.12,0.17-0.15,0.28-0.08l0.78,0.46c0.11,0.07,0.13,0.16,0.08,0.28c-0.33,0.64-0.83,1.15-1.5,1.52
			c-0.67,0.36-1.43,0.54-2.3,0.54c-0.95-0.01-1.74-0.24-2.38-0.68s-1.1-1.05-1.38-1.84c-0.24-0.64-0.36-1.56-0.36-2.76
			c0-0.56,0.01-1.01,0.02-1.36c0.03-0.36,0.08-0.68,0.16-0.96c0.23-0.87,0.68-1.56,1.36-2.08c0.69-0.52,1.53-0.78,2.5-0.78
			c1.21,0,2.15,0.31,2.8,0.92C229.65,781.25,230.06,782.12,230.22,783.24z M226.2,780.96c-0.65,0-1.2,0.17-1.64,0.52
			c-0.43,0.33-0.71,0.79-0.84,1.36c-0.08,0.28-0.13,0.73-0.16,1.36c0,0.05,0.03,0.08,0.08,0.08h5.18c0.05,0,0.08-0.03,0.08-0.08
			c-0.03-0.6-0.07-1.03-0.12-1.28c-0.15-0.6-0.45-1.07-0.9-1.42C227.44,781.14,226.88,780.96,226.2,780.96z M236.27,790.1
			c-0.75,0-1.41-0.12-2-0.36c-0.57-0.24-1.02-0.56-1.34-0.96c-0.31-0.4-0.46-0.85-0.46-1.34v-0.24c0-0.13,0.07-0.2,0.2-0.2h0.96
			c0.13,0,0.2,0.07,0.2,0.2v0.16c0,0.44,0.23,0.83,0.68,1.16c0.47,0.32,1.05,0.48,1.74,0.48c0.69,0,1.25-0.15,1.68-0.46
			c0.43-0.32,0.64-0.72,0.64-1.2c0-0.33-0.11-0.61-0.34-0.82c-0.21-0.21-0.47-0.38-0.78-0.5c-0.29-0.12-0.75-0.27-1.38-0.46
			c-0.75-0.21-1.36-0.43-1.84-0.64s-0.89-0.51-1.22-0.88c-0.32-0.39-0.48-0.87-0.48-1.46c0-0.85,0.33-1.53,1-2.04
			c0.67-0.51,1.55-0.76,2.64-0.76c0.73,0,1.38,0.12,1.94,0.36c0.57,0.24,1.01,0.57,1.32,1c0.31,0.41,0.46,0.88,0.46,1.4v0.06
			c0,0.13-0.07,0.2-0.2,0.2h-0.94c-0.13,0-0.2-0.07-0.2-0.2v-0.06c0-0.45-0.22-0.83-0.66-1.14c-0.43-0.31-1.01-0.46-1.74-0.46
			c-0.68,0-1.23,0.14-1.64,0.42c-0.41,0.27-0.62,0.64-0.62,1.12c0,0.45,0.2,0.8,0.6,1.04c0.4,0.24,1.02,0.48,1.86,0.72
			c0.77,0.23,1.4,0.44,1.88,0.64s0.89,0.49,1.24,0.88c0.35,0.37,0.52,0.87,0.52,1.48c0,0.87-0.34,1.56-1.02,2.08
			C238.29,789.84,237.39,790.1,236.27,790.1z M254.44,782.4c0.2,0.64,0.3,1.49,0.3,2.54c0,1.07-0.09,1.89-0.26,2.48
			c-0.24,0.85-0.68,1.53-1.32,2.02c-0.63,0.48-1.42,0.72-2.38,0.72c-0.52,0-1-0.1-1.44-0.3c-0.44-0.21-0.81-0.51-1.1-0.9
			c-0.03-0.03-0.05-0.03-0.08-0.02c-0.01,0-0.02,0.01-0.02,0.04v4.7c0,0.13-0.07,0.2-0.2,0.2h-1.02c-0.13,0-0.2-0.07-0.2-0.2v-13.6
			c0-0.13,0.07-0.2,0.2-0.2h1.02c0.13,0,0.2,0.07,0.2,0.2v0.84c0,0.03,0.01,0.05,0.02,0.06c0.03,0,0.05-0.01,0.08-0.04
			c0.29-0.39,0.65-0.69,1.08-0.9c0.44-0.21,0.93-0.32,1.46-0.32c0.93,0,1.71,0.24,2.34,0.72
			C253.76,780.92,254.2,781.57,254.44,782.4z M252.86,787.46c0.15-0.29,0.25-0.62,0.32-0.98c0.08-0.37,0.12-0.89,0.12-1.54
			c0-0.63-0.03-1.11-0.08-1.46c-0.05-0.36-0.15-0.68-0.28-0.96c-0.16-0.48-0.45-0.86-0.86-1.14c-0.4-0.28-0.88-0.42-1.44-0.42
			c-0.53,0-0.98,0.14-1.34,0.42c-0.36,0.28-0.63,0.65-0.8,1.12c-0.12,0.27-0.21,0.58-0.26,0.94c-0.05,0.36-0.08,0.86-0.08,1.5
			s0.03,1.15,0.08,1.52c0.05,0.36,0.15,0.68,0.28,0.96c0.16,0.45,0.42,0.82,0.78,1.1c0.37,0.27,0.81,0.4,1.32,0.4
			c0.53,0,0.99-0.13,1.38-0.4C252.4,788.25,252.69,787.9,252.86,787.46z M261.12,779.72c1.2,0,2.13,0.31,2.78,0.92
			c0.65,0.61,0.98,1.43,0.98,2.44v6.72c0,0.13-0.07,0.2-0.2,0.2h-1.02c-0.13,0-0.2-0.07-0.2-0.2v-0.82c0-0.03-0.01-0.05-0.04-0.06
			c-0.01-0.01-0.03-0.01-0.06,0.02c-0.33,0.4-0.77,0.71-1.3,0.92c-0.53,0.2-1.13,0.3-1.78,0.3c-0.95,0-1.74-0.24-2.38-0.72
			c-0.64-0.48-0.96-1.21-0.96-2.2c0-1,0.36-1.79,1.08-2.36c0.73-0.59,1.75-0.88,3.04-0.88h2.32c0.05,0,0.08-0.03,0.08-0.08v-0.76
			c0-0.68-0.19-1.21-0.58-1.6c-0.37-0.4-0.96-0.6-1.76-0.6c-0.64,0-1.16,0.13-1.56,0.38c-0.4,0.24-0.65,0.58-0.74,1.02
			c-0.04,0.13-0.12,0.19-0.24,0.18l-1.08-0.14c-0.15-0.03-0.21-0.08-0.18-0.16c0.11-0.75,0.51-1.35,1.2-1.82
			C259.21,779.95,260.08,779.72,261.12,779.72z M260.56,788.94c0.79,0,1.47-0.19,2.04-0.58c0.57-0.4,0.86-0.93,0.86-1.6v-1.56
			c0-0.05-0.03-0.08-0.08-0.08h-2.1c-0.88,0-1.59,0.18-2.12,0.54c-0.53,0.36-0.8,0.86-0.8,1.5c0,0.59,0.2,1.03,0.6,1.34
			C259.37,788.79,259.9,788.94,260.56,788.94z M271.15,790.1c-0.75,0-1.41-0.12-2-0.36c-0.57-0.24-1.02-0.56-1.34-0.96
			c-0.31-0.4-0.46-0.85-0.46-1.34v-0.24c0-0.13,0.07-0.2,0.2-0.2h0.96c0.13,0,0.2,0.07,0.2,0.2v0.16c0,0.44,0.23,0.83,0.68,1.16
			c0.47,0.32,1.05,0.48,1.74,0.48c0.69,0,1.25-0.15,1.68-0.46c0.43-0.32,0.64-0.72,0.64-1.2c0-0.33-0.11-0.61-0.34-0.82
			c-0.21-0.21-0.47-0.38-0.78-0.5c-0.29-0.12-0.75-0.27-1.38-0.46c-0.75-0.21-1.36-0.43-1.84-0.64c-0.48-0.21-0.89-0.51-1.22-0.88
			c-0.32-0.39-0.48-0.87-0.48-1.46c0-0.85,0.33-1.53,1-2.04c0.67-0.51,1.55-0.76,2.64-0.76c0.73,0,1.38,0.12,1.94,0.36
			c0.57,0.24,1.01,0.57,1.32,1c0.31,0.41,0.46,0.88,0.46,1.4v0.06c0,0.13-0.07,0.2-0.2,0.2h-0.94c-0.13,0-0.2-0.07-0.2-0.2v-0.06
			c0-0.45-0.22-0.83-0.66-1.14c-0.43-0.31-1.01-0.46-1.74-0.46c-0.68,0-1.23,0.14-1.64,0.42c-0.41,0.27-0.62,0.64-0.62,1.12
			c0,0.45,0.2,0.8,0.6,1.04s1.02,0.48,1.86,0.72c0.77,0.23,1.4,0.44,1.88,0.64c0.48,0.2,0.89,0.49,1.24,0.88
			c0.35,0.37,0.52,0.87,0.52,1.48c0,0.87-0.34,1.56-1.02,2.08S272.27,790.1,271.15,790.1z M281.32,790.16
			c-0.96,0-1.79-0.25-2.48-0.74c-0.69-0.49-1.17-1.17-1.44-2.04c-0.19-0.61-0.28-1.43-0.28-2.46c0-1.03,0.09-1.84,0.28-2.44
			c0.25-0.85,0.73-1.53,1.42-2.02c0.69-0.49,1.53-0.74,2.52-0.74c0.95,0,1.76,0.25,2.44,0.74c0.69,0.49,1.17,1.16,1.42,2
			c0.19,0.57,0.28,1.39,0.28,2.46c0,1.08-0.09,1.9-0.28,2.46c-0.25,0.87-0.73,1.55-1.42,2.04
			C283.1,789.91,282.28,790.16,281.32,790.16z M281.32,788.92c0.64,0,1.19-0.17,1.64-0.52c0.45-0.36,0.76-0.84,0.92-1.44
			c0.12-0.48,0.18-1.15,0.18-2.02c0-0.88-0.05-1.55-0.16-2.02c-0.16-0.6-0.47-1.07-0.94-1.42c-0.45-0.36-1.01-0.54-1.66-0.54
			c-0.65,0-1.21,0.18-1.66,0.54c-0.45,0.35-0.76,0.82-0.92,1.42c-0.11,0.47-0.16,1.14-0.16,2.02s0.05,1.55,0.16,2.02
			c0.15,0.6,0.45,1.08,0.9,1.44C280.09,788.75,280.65,788.92,281.32,788.92z M291.68,790.1c-0.75,0-1.41-0.12-2-0.36
			c-0.57-0.24-1.02-0.56-1.34-0.96c-0.31-0.4-0.46-0.85-0.46-1.34v-0.24c0-0.13,0.07-0.2,0.2-0.2h0.96c0.13,0,0.2,0.07,0.2,0.2v0.16
			c0,0.44,0.23,0.83,0.68,1.16c0.47,0.32,1.05,0.48,1.74,0.48c0.69,0,1.25-0.15,1.68-0.46c0.43-0.32,0.64-0.72,0.64-1.2
			c0-0.33-0.11-0.61-0.34-0.82c-0.21-0.21-0.47-0.38-0.78-0.5c-0.29-0.12-0.75-0.27-1.38-0.46c-0.75-0.21-1.36-0.43-1.84-0.64
			s-0.89-0.51-1.22-0.88c-0.32-0.39-0.48-0.87-0.48-1.46c0-0.85,0.33-1.53,1-2.04c0.67-0.51,1.55-0.76,2.64-0.76
			c0.73,0,1.38,0.12,1.94,0.36c0.57,0.24,1.01,0.57,1.32,1c0.31,0.41,0.46,0.88,0.46,1.4v0.06c0,0.13-0.07,0.2-0.2,0.2h-0.94
			c-0.13,0-0.2-0.07-0.2-0.2v-0.06c0-0.45-0.22-0.83-0.66-1.14c-0.43-0.31-1.01-0.46-1.74-0.46c-0.68,0-1.23,0.14-1.64,0.42
			c-0.41,0.27-0.62,0.64-0.62,1.12c0,0.45,0.2,0.8,0.6,1.04c0.4,0.24,1.02,0.48,1.86,0.72c0.77,0.23,1.4,0.44,1.88,0.64
			s0.89,0.49,1.24,0.88c0.35,0.37,0.52,0.87,0.52,1.48c0,0.87-0.34,1.56-1.02,2.08C293.7,789.84,292.8,790.1,291.68,790.1z
			 M299.15,789.96c-0.33,0-0.61-0.11-0.82-0.32c-0.2-0.21-0.3-0.48-0.3-0.8c0-0.33,0.1-0.6,0.3-0.8c0.21-0.21,0.49-0.32,0.82-0.32
			c0.32,0,0.59,0.11,0.8,0.32c0.21,0.2,0.32,0.47,0.32,0.8c0,0.32-0.11,0.59-0.32,0.8C299.73,789.85,299.47,789.96,299.15,789.96z"
			/>
		<path fill="#F8991E" d="M383.54,358.6H47L73.89,294h295.79l0.03,0.08l5.46,25.51l6.3,29.32l2.07,9.61V358.6z"/>
		<path fill="#979797" d="M72.91,358.6v12.2c0.08,3.43-1.21,6.75-3.58,9.23c-2.37,2.48-5.63,3.92-9.06,4h-0.6
			c-1.7-0.04-3.38-0.41-4.94-1.09c-1.56-0.68-2.96-1.67-4.14-2.9s-2.1-2.68-2.72-4.26s-0.91-3.28-0.88-4.98v-12.2H72.91z"/>
		<path fill="#D9800E" d="M98.81,358.6v12.2c0.08,3.43-1.21,6.75-3.58,9.23s-5.63,3.92-9.06,4h-0.6c-1.7-0.04-3.38-0.41-4.94-1.09
			c-1.56-0.68-2.96-1.67-4.14-2.9c-1.18-1.23-2.1-2.68-2.72-4.26c-0.62-1.59-0.91-3.28-0.88-4.98v-12.2H98.81z"/>
		<path fill="#979797" d="M124.71,358.6v12.2c0.08,3.43-1.21,6.75-3.58,9.23c-2.37,2.48-5.63,3.92-9.06,4h-0.6
			c-1.7-0.04-3.38-0.41-4.93-1.09s-2.96-1.67-4.14-2.9c-1.18-1.23-2.1-2.68-2.71-4.26c-0.62-1.59-0.91-3.28-0.88-4.98v-12.2H124.71z
			"/>
		<path fill="#D9800E" d="M150.64,358.6v12.2c0.04,1.7-0.26,3.39-0.88,4.98c-0.62,1.59-1.54,3.04-2.72,4.26
			c-1.18,1.23-2.58,2.21-4.14,2.9c-1.56,0.68-3.23,1.06-4.93,1.09h-0.6c-1.7-0.04-3.38-0.41-4.93-1.09
			c-1.56-0.68-2.96-1.67-4.14-2.9c-1.18-1.23-2.1-2.68-2.71-4.26c-0.62-1.59-0.91-3.28-0.88-4.98v-12.2H150.64z"/>
		<path fill="#979797" d="M176.55,358.6v12.2c0.04,1.7-0.26,3.39-0.88,4.98c-0.62,1.59-1.54,3.04-2.72,4.26
			c-1.18,1.23-2.58,2.21-4.14,2.9c-1.56,0.68-3.24,1.06-4.94,1.09h-0.6c-3.43-0.08-6.69-1.52-9.06-4c-2.37-2.48-3.66-5.8-3.58-9.23
			v-12.2H176.55z"/>
		<path fill="#D9800E" d="M202.45,358.6v12.2c0.08,3.43-1.21,6.75-3.58,9.23c-2.37,2.48-5.63,3.92-9.06,4h-0.62
			c-3.43-0.08-6.69-1.52-9.06-4s-3.66-5.8-3.58-9.23v-12.2H202.45z"/>
		<path fill="#979797" d="M228.35,358.6v12.2c0.08,3.43-1.21,6.75-3.58,9.23c-2.37,2.48-5.63,3.92-9.06,4h-0.62
			c-3.43-0.08-6.69-1.52-9.06-4c-2.37-2.48-3.66-5.8-3.58-9.23v-12.2H228.35z"/>
		<path fill="#D9800E" d="M254.26,358.6v12.2c0.08,3.43-1.21,6.75-3.58,9.23c-2.37,2.48-5.63,3.92-9.06,4h-0.6
			c-1.7-0.04-3.38-0.41-4.93-1.09c-1.56-0.68-2.96-1.67-4.14-2.9c-1.18-1.23-2.1-2.68-2.72-4.26c-0.62-1.59-0.91-3.28-0.88-4.98
			v-12.2H254.26z"/>
		<path fill="#979797" d="M280.19,358.6v12.2c0.04,1.7-0.26,3.39-0.88,4.98c-0.62,1.59-1.54,3.04-2.72,4.26
			c-1.18,1.23-2.58,2.21-4.14,2.9s-3.23,1.06-4.93,1.09h-0.6c-1.7-0.04-3.38-0.41-4.93-1.09c-1.56-0.68-2.96-1.67-4.14-2.9
			s-2.1-2.68-2.71-4.26s-0.91-3.28-0.88-4.98v-12.2H280.19z"/>
		<path fill="#D9800E" d="M306.09,358.6v12.2c0.04,1.7-0.26,3.39-0.88,4.98s-1.54,3.04-2.71,4.26s-2.58,2.21-4.14,2.9
			c-1.56,0.68-3.23,1.06-4.94,1.09h-0.6c-3.43-0.08-6.69-1.52-9.06-4c-2.37-2.48-3.66-5.8-3.58-9.23v-12.2H306.09z"/>
		<path fill="#979797" d="M331.99,358.6v12.2c0.04,1.7-0.26,3.39-0.88,4.98s-1.54,3.04-2.71,4.26c-1.18,1.23-2.58,2.21-4.14,2.9
			s-3.23,1.06-4.93,1.09h-0.6c-3.43-0.08-6.69-1.52-9.06-4s-3.66-5.8-3.58-9.23v-12.2H331.99z"/>
		<path fill="#D9800E" d="M357.9,358.6v12.2c0.08,3.43-1.21,6.75-3.58,9.23c-2.37,2.48-5.63,3.92-9.06,4h-0.62
			c-3.43-0.08-6.69-1.52-9.06-4s-3.66-5.8-3.58-9.23v-12.2H357.9z"/>
		<path fill="#979797" d="M383.8,358.6v12.2c0.08,3.43-1.21,6.75-3.58,9.23s-5.63,3.92-9.06,4h-0.6c-1.7-0.04-3.38-0.41-4.93-1.09
			s-2.96-1.67-4.14-2.9c-1.18-1.23-2.1-2.68-2.72-4.26c-0.62-1.59-0.91-3.28-0.88-4.98v-12.2H383.8z"/>
		<path fill="#F0F0F0" d="M228.35,358.6h-25.8l0.88-64.6h24.04l0.03,1.81L228.35,358.6z"/>
		<path fill="#F0F0F0" d="M184.79,294l-8.26,64.6H150.7l11.81-64.6H184.79z"/>
		<path fill="#F0F0F0" d="M142.38,294l-17.69,64.6H98.86l18.88-64.6H142.38z"/>
		<path fill="#F0F0F0" d="M280.21,358.6h-25.83l-6.4-58.49l-0.67-6.11h23.75l1.71,12.12L280.21,358.6z"/>
		<path fill="#F0F0F0" d="M332.07,358.6h-25.83l-9.22-45.77L293.27,294h25.8l5.57,27.69L332.07,358.6z"/>
		<path fill="#F0F0F0" d="M96.69,294l-23.93,64.53l-4.69,0.08H47L73.89,294H96.69z"/>
		<path fill="#F0F0F0" d="M383.8,358.6h-25.72c0,0-2.05-11.27-4.95-25.28c-2.59-12.95-6.22-28.36-9.56-39.27h25.9h0.26h0.18
			l5.18,25.44l6.53,29.5L383.8,358.6z"/>
		<path opacity="0.07" fill="#333333" enable-background="new    " d="M381.7,349.1l-0.23-0.15c-9.07-5.88-18.54-11.12-28.34-15.67
			c-9.27-4.33-18.83-8.13-28.49-11.58c-8.65-3.06-17.36-5.83-26.08-8.42l-1.53-0.44c-8.05-2.38-16.13-4.62-24.25-6.71
			c-8.12-2.09-16.39-4.08-24.81-5.98c-6.63-1.5-13.29-2.9-19.97-4.2h-0.49c-3.21-0.65-6.42-1.24-9.66-1.84h151.82h0.18l5.18,25.44
			L381.7,349.1z"/>
		<path fill="#F8991E" d="M198.51,396.19h-98.31c-2.99,0-5.41,2.42-5.41,5.41v98.3c0,2.99,2.42,5.41,5.41,5.41h98.31
			c2.99,0,5.41-2.42,5.41-5.41v-98.3C203.93,398.61,201.5,396.19,198.51,396.19z"/>
		<path fill="#FFB556" d="M197.63,505.32h-96.59c-1.66,0-3.25-0.66-4.42-1.83c-1.17-1.17-1.84-2.76-1.85-4.42l102.86-102.86
			c1.66,0.01,3.25,0.67,4.43,1.84c1.17,1.17,1.84,2.77,1.84,4.43v96.6c-0.01,1.66-0.67,3.25-1.85,4.42
			C200.88,504.67,199.29,505.32,197.63,505.32z"/>
		<path fill="#FFFFFF" d="M147.79,486.13c23.22,0,42.04-3.73,42.04-8.34c0-4.61-18.82-8.34-42.04-8.34s-42.04,3.73-42.04,8.34
			C105.75,482.4,124.57,486.13,147.79,486.13z"/>
		<path fill="#FFFFFF" d="M120.98,426.45c-2.11,0.7-4.03,1.88-5.61,3.45c-1.57,1.57-2.76,3.49-3.46,5.6
			c-0.69-2.11-1.87-4.03-3.44-5.6c-1.57-1.57-3.49-2.75-5.6-3.44c2.11-0.7,4.03-1.89,5.6-3.46c1.57-1.57,2.75-3.49,3.44-5.61
			c0.71,2.11,1.89,4.03,3.46,5.6C116.96,424.55,118.87,425.74,120.98,426.45z"/>
		<path fill="#FFFFFF" d="M125.05,442.32c-1.2,0.37-2.3,1.03-3.2,1.9c-0.9,0.88-1.58,1.96-1.99,3.15c-0.39-1.18-1.05-2.25-1.92-3.13
			c-0.88-0.88-1.95-1.54-3.13-1.92c1.18-0.39,2.25-1.05,3.13-1.92c0.88-0.88,1.54-1.95,1.92-3.13c0.4,1.19,1.08,2.27,1.99,3.15
			C122.75,441.3,123.85,441.95,125.05,442.32z"/>
		<path fill="#F8991E" d="M198.51,529.85h-98.31c-2.99,0-5.41,2.42-5.41,5.41v98.3c0,2.99,2.42,5.41,5.41,5.41h98.31
			c2.99,0,5.41-2.42,5.41-5.41v-98.3C203.93,532.28,201.5,529.85,198.51,529.85z"/>
		<path fill="#FFB556" d="M197.63,638.98h-96.59c-1.66-0.01-3.25-0.67-4.42-1.84c-1.17-1.17-1.84-2.77-1.84-4.42l102.86-102.84
			c1.66,0.01,3.25,0.67,4.43,1.84s1.84,2.77,1.84,4.42v96.57c-0.01,1.66-0.67,3.25-1.84,4.42S199.29,638.98,197.63,638.98z"/>
		<path fill="#FFFFFF" d="M192.43,610.8c0,4.61-18.83,8.34-42.04,8.34c-23.21,0-42.04-3.73-42.04-8.34c0-4.61,18.83-8.37,42.04-8.37
			C173.59,602.43,192.43,606.19,192.43,610.8z"/>
		<path fill="#F8991E" d="M331.66,396.19h-98.3c-2.99,0-5.41,2.42-5.41,5.41v98.3c0,2.99,2.42,5.41,5.41,5.41h98.3
			c2.99,0,5.41-2.42,5.41-5.41v-98.3C337.07,398.61,334.65,396.19,331.66,396.19z"/>
		<path fill="#FFB556" d="M330.78,505.32h-96.49c-1.66,0-3.25-0.66-4.42-1.83c-1.18-1.17-1.84-2.76-1.85-4.42l102.86-102.86
			c1.66,0.01,3.25,0.67,4.42,1.84c1.17,1.17,1.84,2.77,1.84,4.43v96.6c0,0.83-0.17,1.65-0.49,2.41c-0.32,0.76-0.79,1.46-1.39,2.04
			c-0.59,0.58-1.3,1.04-2.07,1.35C332.43,505.18,331.61,505.33,330.78,505.32z"/>
		<path fill="#FFFFFF" d="M284.05,485.73c23.22,0,42.04-4.91,42.04-10.96c0-6.05-18.82-10.96-42.04-10.96s-42.04,4.91-42.04,10.96
			C242.01,480.82,260.83,485.73,284.05,485.73z"/>
		<path fill="#F8991E" d="M331.66,529.85h-98.3c-2.99,0-5.41,2.42-5.41,5.41v98.3c0,2.99,2.42,5.41,5.41,5.41h98.3
			c2.99,0,5.41-2.42,5.41-5.41v-98.3C337.07,532.28,334.65,529.85,331.66,529.85z"/>
		<path fill="#FFB556" d="M330.78,638.98h-96.49c-1.66-0.01-3.25-0.67-4.43-1.84c-1.17-1.17-1.84-2.77-1.84-4.42l102.86-102.84
			c1.66,0.01,3.25,0.67,4.42,1.84s1.84,2.77,1.84,4.42v96.57c0,0.83-0.17,1.65-0.49,2.42c-0.32,0.77-0.79,1.46-1.39,2.04
			c-0.59,0.58-1.29,1.04-2.07,1.35C332.43,638.84,331.61,638.99,330.78,638.98z"/>
		<path fill="#FFFFFF" d="M326.06,610.8c0,4.61-18.81,8.34-42.02,8.34c-23.21,0-41.99-3.73-41.99-8.34c0-4.61,18.83-8.37,42.04-8.37
			S326.06,606.19,326.06,610.8z"/>
		<g>
			<defs>
				<rect id="SVGID_00000110472680226484187730000008837659526214668424_" x="256.7" y="555.21" width="57" height="57"/>
			</defs>
			<clipPath id="SVGID_00000100383892209588439740000016252686242065070514_">
				<use xlink:href="#SVGID_00000110472680226484187730000008837659526214668424_"  overflow="visible"/>
			</clipPath>
			<g clip-path="url(#SVGID_00000100383892209588439740000016252686242065070514_)">
				<path fill="#FF94E6" d="M291.21,576.88c0,0-6.6,2.15-6.6,11.59v16.69c0,3.84,3.12,6.95,6.95,6.95h6.26
					c3.84,0,6.95-3.12,6.95-6.95v-16.69c0-9.44-6.6-11.59-6.6-11.59H291.21z"/>
				<path fill="#FF71D0" d="M298.16,576.88h-2.89c0,0,6.6,2.15,6.6,11.59v16.69v0.02c-0.01,2.41-2,4.38-4.42,4.38h-6.09
					c-0.79,0-1.35-0.77-1.1-1.52c0.3-0.9,0.46-1.87,0.46-2.88v-14.59c0-5.09-1.05-8.86-2.56-11.67c-1.73,1.68-3.55,4.62-3.55,9.59
					v16.69c0,3.85,3.16,6.95,6.95,6.95h6.26c3.84,0,6.95-3.12,6.95-6.95v-16.69C304.77,579.02,298.16,576.88,298.16,576.88z"/>
				<path fill="#EA66FF" d="M298.16,576.88h-6.95v-4.63c0-1.28,1.04-2.32,2.32-2.32h2.32c1.28,0,2.32,1.04,2.32,2.32V576.88z"/>
				<path fill="#AD39D6" d="M296.37,569.98c0.03,0.17,0.06,0.34,0.06,0.52v3.47c0,0.63-0.52,1.16-1.16,1.16h-4.05v1.74h6.95v-4.63
					C298.16,571.14,297.39,570.23,296.37,569.98z"/>
				<path fill="#88E9FF" d="M298.63,589.62c0,2.17-1.76,3.94-3.94,3.94c-2.17,0-3.94-1.76-3.94-3.94c0-2.17,1.76-3.94,3.94-3.94
					C296.87,585.68,298.63,587.45,298.63,589.62z"/>
				<path fill="#F2EED9" d="M273.58,559.73h4.63v4.63h-4.63V559.73z"/>
				<path fill="#E5DDBD" d="M273.58,559.73v1.39h1.97c0.64,0,1.16,0.52,1.16,1.16v2.08h1.5v-4.63H273.58z"/>
				<path fill="#88E9FF" d="M280.29,570.85v2.04c0,0.79,0.4,1.54,1.08,1.96c1.93,1.2,7.04,4.93,7.04,15.7v14.6
					c0,3.84-3.12,6.95-6.95,6.95h-11.12c-3.84,0.01-6.96-3.11-6.96-6.93v-14.61c0-10.78,5.06-14.51,7.01-15.71
					c0.68-0.42,1.09-1.17,1.09-1.97v-2.03h8.81V570.85z"/>
				<path fill="#2DD3F9" d="M281.37,574.85c-0.68-0.42-1.08-1.16-1.08-1.96v-2.04h-8.81v2.03c0,0.18-0.02,0.36-0.06,0.52h4.72
					c0.88,0,1.66,0.55,1.96,1.37c0.27,0.71,0.74,1.35,1.36,1.83c2.02,1.51,6.51,5.48,6.51,15.34v11.59c0,3.2-2.59,5.79-5.79,5.79
					h-15.42c1.27,1.69,3.28,2.78,5.57,2.78h11.12c3.84,0,6.95-3.12,6.95-6.95v-14.61C288.41,579.78,283.3,576.05,281.37,574.85z"/>
				<path fill="#F2EED9" d="M280.29,570.85h-8.81c-0.51,0-0.92-0.41-0.92-0.92v-4.4c0-0.65,0.52-1.16,1.16-1.16h8.34
					c0.64,0,1.16,0.52,1.16,1.16v4.4C281.23,570.44,280.8,570.85,280.29,570.85z"/>
				<path fill="#E5DDBD" d="M280.07,564.37h-0.69v3.71c0,0.51-0.41,0.92-0.92,0.92h-7.88v0.92c0,0.51,0.41,0.92,0.92,0.92h8.81
					c0.51,0,0.92-0.41,0.92-0.92v-4.4C281.23,564.89,280.7,564.37,280.07,564.37z"/>
				<path fill="#F2EED9" d="M285.15,555.1h-12.73c-1.28,0-2.32,1.04-2.32,2.32c0,1.28,1.04,2.32,2.32,2.32h12.75l0.57,0.57
					c0.46,0.46,1.19,0.46,1.64,0l0.91-0.91c0.46-0.46,0.46-1.19,0-1.64l-2.32-2.32C285.75,555.22,285.46,555.1,285.15,555.1z"/>
				<path fill="#E5DDBD" d="M284.9,557.88h-14.75c0.21,1.06,1.15,1.85,2.27,1.85h12.75l0.57,0.57c0.46,0.46,1.19,0.46,1.64,0
					l0.46-0.46l-1.29-1.28C286.1,558.13,285.51,557.88,284.9,557.88z"/>
				<path fill="#FFE266" d="M282.79,593.04c0-7.04-3.12-12.75-6.95-12.75c-3.83,0-6.95,5.71-6.95,12.75
					c0,7.04,3.12,12.75,6.95,12.75C279.67,605.79,282.79,600.08,282.79,593.04z"/>
				<path fill="#C6E3F7" d="M306.95,565.17c0,2.11-1.71,3.82-3.82,3.82c-2.12,0-3.82-1.71-3.82-3.82c0-2.12,1.71-3.82,3.82-3.82
					C305.23,561.36,306.95,563.07,306.95,565.17z"/>
				<path fill="#AACEE0" d="M304.86,561.78c0.27,0.52,0.42,1.11,0.42,1.74c0,2.11-1.71,3.82-3.82,3.82c-0.62,0-1.21-0.15-1.74-0.42
					c0.64,1.24,1.92,2.08,3.41,2.08c2.11,0,3.82-1.71,3.82-3.82C306.95,563.69,306.1,562.4,304.86,561.78z"/>
				<path fill="#C6E3F7" d="M298.14,557.41c0,1.28-1.04,2.32-2.32,2.32c-1.28,0-2.32-1.04-2.32-2.32c0-1.28,1.04-2.32,2.32-2.32
					C297.1,555.1,298.14,556.14,298.14,557.41z"/>
				<path fill="#AACEE0" d="M296.87,555.36c0.17,0.31,0.26,0.68,0.26,1.06c0,1.28-1.04,2.32-2.32,2.32c-0.38,0-0.73-0.09-1.06-0.26
					c0.38,0.75,1.17,1.27,2.06,1.27c1.28,0,2.32-1.04,2.32-2.32C298.14,556.51,297.63,555.73,296.87,555.36z"/>
			</g>
		</g>
		<g>
			<defs>
				<rect id="SVGID_00000173843579902020423540000012579876632214725302_" x="120.7" y="553.21" width="59" height="59"/>
			</defs>
			<clipPath id="SVGID_00000155842586595820568710000004080698292319501478_">
				<use xlink:href="#SVGID_00000173843579902020423540000012579876632214725302_"  overflow="visible"/>
			</clipPath>
			<g clip-path="url(#SVGID_00000155842586595820568710000004080698292319501478_)">
				<path fill="#B4F0FF" d="M150.2,612.21c-9.55,0-17.29-7.74-17.29-17.29V570.5c0-9.55,7.74-17.29,17.29-17.29
					c9.55,0,17.29,7.74,17.29,17.29v24.41C167.5,604.47,159.75,612.21,150.2,612.21z"/>
				<path fill="#91E1F5" d="M141.05,588.72v-6.54c0-0.82,0.92-1.3,1.6-0.83c2.14,1.5,4.74,2.38,7.56,2.38
					c7.21,0,13.07-5.77,13.22-12.94c0.13-6.4-4.55-12.06-10.83-13.28c-0.71-0.14-1.42-0.21-2.11-0.23c-1.05-0.02-1.4-1.4-0.47-1.91
					c1.32-0.73,2.76-1.29,4.26-1.66c-1.31-0.32-2.67-0.5-4.07-0.5c-9.55,0-17.29,7.74-17.29,17.29v24.41
					c0,9.55,7.74,17.29,17.29,17.29c1.4,0,2.76-0.19,4.07-0.5c-7.58-1.83-13.22-8.64-13.22-16.79v-0.16
					c5.94-0.4,13.65-1.65,20.96-5.02c0.51-0.23,0.73-0.84,0.5-1.35c-0.24-0.51-0.84-0.73-1.35-0.5c-6.93,3.19-14.36,4.4-20.11,4.8
					v-1.92c2-0.13,4.2-0.35,6.48-0.7c9.43-1.46,16.11-4.53,19.97-9.15v-3.58C162.86,585.76,149.95,588.12,141.05,588.72z"/>
				<path fill="#FFE1B4" d="M161.39,567.45c-0.14,0-0.28,0.02-0.42,0.04c-1.32-4.72-5.63-8.18-10.77-8.18
					c-5.14,0-9.45,3.46-10.77,8.18c-0.14-0.02-0.28-0.04-0.42-0.04c-1.69,0-3.05,1.37-3.05,3.05c0,1.68,1.37,3.05,3.05,3.05
					c0.14,0,0.28-0.02,0.42-0.04c1.32,4.72,5.63,8.18,10.77,8.18c5.13,0,9.45-3.46,10.77-8.18c0.14,0.02,0.28,0.04,0.42,0.04
					c1.69,0,3.05-1.37,3.05-3.05C164.44,568.82,163.08,567.45,161.39,567.45z"/>
				<path fill="#FAD098" d="M145.12,570.5c0-5.12,3.45-9.43,8.14-10.76c-0.97-0.28-1.99-0.43-3.05-0.43
					c-5.14,0-9.45,3.46-10.77,8.18c-0.14-0.02-0.28-0.04-0.42-0.04c-1.69,0-3.05,1.37-3.05,3.05c0,1.68,1.37,3.05,3.05,3.05
					c0.14,0,0.28-0.02,0.42-0.04c1.32,4.72,5.63,8.18,10.77,8.18c1.06,0,2.08-0.16,3.05-0.43
					C148.56,579.93,145.12,575.63,145.12,570.5z"/>
				<path fill="#D7AF7D" d="M149.95,562.37c-1.96,0-3.56-1.6-3.56-3.56c0-1.96,1.6-3.56,3.56-3.56c0.56,0,1.02,0.46,1.02,1.02
					c0,0.56-0.46,1.02-1.02,1.02c-0.84,0-1.53,0.68-1.53,1.53c0,0.84,0.68,1.52,1.53,1.52c0.56,0,1.02,0.46,1.02,1.02
					C150.97,561.91,150.51,562.37,149.95,562.37z"/>
				<path fill="#D7AF7D" d="M150.2,576.61c-1.4,0-2.72-0.44-3.7-1.25c-0.43-0.36-0.5-1-0.14-1.43c0.35-0.43,1-0.5,1.43-0.14
					c1.22,1,3.6,1,4.81,0c0.43-0.36,1.08-0.29,1.43,0.14c0.36,0.43,0.29,1.08-0.14,1.43C152.92,576.16,151.61,576.61,150.2,576.61z"
					/>
				<path fill="#64463C" d="M145.12,571.52c-0.56,0-1.02-0.46-1.02-1.02v-1.02c0-0.56,0.46-1.02,1.02-1.02
					c0.56,0,1.02,0.46,1.02,1.02v1.02C146.13,571.07,145.68,571.52,145.12,571.52z"/>
				<path fill="#64463C" d="M155.29,571.52c-0.56,0-1.02-0.46-1.02-1.02v-1.02c0-0.56,0.45-1.02,1.02-1.02
					c0.56,0,1.02,0.46,1.02,1.02v1.02C156.31,571.07,155.85,571.52,155.29,571.52z"/>
			</g>
		</g>
		<path fill="#FFFFFF" d="M258.7,552.21c-0.72,2.55-0.84,5.24-0.34,7.84c0.5,2.61,1.61,5.06,3.24,7.15
			c-2.56-0.72-5.25-0.84-7.86-0.34c-2.61,0.5-5.06,1.61-7.17,3.24c0.72-2.55,0.84-5.24,0.34-7.85c-0.5-2.61-1.6-5.06-3.22-7.17
			c2.55,0.72,5.24,0.84,7.84,0.34C254.15,554.93,256.6,553.83,258.7,552.21z"/>
		<path fill="#FFFFFF" d="M266.76,575.32c-0.31,1.08-0.36,2.21-0.15,3.31c0.21,1.1,0.68,2.13,1.37,3.01
			c-1.08-0.3-2.21-0.35-3.3-0.14c-1.1,0.21-2.13,0.68-3.02,1.36c0.3-1.08,0.34-2.21,0.13-3.31c-0.22-1.1-0.68-2.13-1.37-3.01
			c1.08,0.3,2.22,0.35,3.32,0.14C264.83,576.46,265.87,576,266.76,575.32z"/>
		<path fill="#FFFFFF" d="M131.78,563.28c-2.11,0.69-4.03,1.87-5.6,3.44c-1.57,1.57-2.75,3.49-3.44,5.6
			c-0.7-2.11-1.88-4.02-3.45-5.59s-3.49-2.75-5.59-3.45c2.11-0.71,4.02-1.89,5.59-3.47c1.57-1.57,2.75-3.49,3.45-5.6
			c0.7,2.11,1.88,4.03,3.44,5.61C127.76,561.39,129.67,562.58,131.78,563.28z"/>
		<path fill="#FFFFFF" d="M135.88,579.16c-1.18,0.39-2.25,1.05-3.13,1.92c-0.88,0.88-1.54,1.95-1.92,3.13
			c-0.4-1.19-1.08-2.27-1.98-3.15c-0.9-0.88-2-1.53-3.2-1.9c1.2-0.37,2.3-1.02,3.2-1.9c0.9-0.88,1.58-1.96,1.98-3.15
			c0.39,1.18,1.05,2.25,1.92,3.13C133.63,578.11,134.7,578.77,135.88,579.16z"/>
		<path fill="#FFFFFF" d="M321.76,535.55l-2.73,0.97l7.04,19.82l2.73-0.97L321.76,535.55z"/>
		<path fill="#FFFFFF" d="M336.17,576.1l-2.73,0.97l7.04,19.82l2.73-0.97L336.17,576.1z"/>
		<path fill="#FFFFFF" d="M300.44,575.56l0.97,2.73l19.82-7.04l-0.97-2.73L300.44,575.56z"/>
		<path fill="#FFFFFF" d="M341.03,561.18l0.97,2.73l19.82-7.04l-0.97-2.73L341.03,561.18z"/>
		<path fill="#FFFFFF" d="M316.05,594.54l2.62,1.25l9.04-18.99l-2.62-1.25L316.05,594.54z"/>
		<path fill="#FFFFFF" d="M334.58,555.65l2.62,1.25l9.04-18.99l-2.62-1.25L334.58,555.65z"/>
		<path fill="#FFFFFF" d="M359.44,581.25l1.25-2.62l-18.99-9.03l-1.25,2.62L359.44,581.25z"/>
		<path fill="#FFFFFF" d="M320.55,562.68l1.25-2.62l-18.99-9.04l-1.25,2.62L320.55,562.68z"/>
		<path fill="#F95C05" d="M370.25,574.25l-10,10.15l13.49,13.29l-12.2,12.43l-13.52-13.21l-10,10.18c-0.22,0.22-0.49,0.38-0.8,0.45
			c-0.3,0.07-0.62,0.05-0.92-0.05c-0.29-0.1-0.55-0.29-0.74-0.53c-0.19-0.25-0.31-0.54-0.34-0.85l-3.76-35.93
			c-0.04-0.25-0.01-0.51,0.08-0.75c0.09-0.24,0.24-0.45,0.43-0.62c0.17-0.15,0.36-0.27,0.58-0.34c0.21-0.07,0.44-0.1,0.67-0.07
			l35.98,3.13c0.3,0.04,0.57,0.16,0.81,0.34c0.23,0.18,0.41,0.43,0.52,0.71c0.11,0.28,0.13,0.58,0.08,0.87
			C370.58,573.75,370.45,574.03,370.25,574.25z"/>
		<path fill="#EA5307" d="M331.99,568.73l35.72,35.12l-6.17,6.27l-13.52-13.21l-10,10.18c-0.22,0.22-0.49,0.38-0.8,0.45
			c-0.3,0.07-0.62,0.05-0.92-0.05c-0.29-0.1-0.55-0.29-0.74-0.53c-0.19-0.25-0.31-0.54-0.34-0.85l-3.76-35.93
			c-0.05-0.27-0.03-0.54,0.06-0.8S331.79,568.91,331.99,568.73z"/>
		<g>
			<defs>
				<rect id="SVGID_00000052098748773802589700000011648499799107636903_" x="262.7" y="432.21" width="43" height="43"/>
			</defs>
			<clipPath id="SVGID_00000011713775993705958090000006749227397429555632_">
				<use xlink:href="#SVGID_00000052098748773802589700000011648499799107636903_"  overflow="visible"/>
			</clipPath>
			<g clip-path="url(#SVGID_00000011713775993705958090000006749227397429555632_)">
				<path fill="#605F6D" d="M269.69,433.45l4.66,4.66c0.59,0.59,0.59,1.55,0,2.14l-3.46,3.47c-0.59,0.59-1.55,0.59-2.14,0
					l-4.66-4.66c-0.32-0.32-0.87-0.17-0.98,0.26c-0.88,3.27-0.05,6.89,2.51,9.46c2.79,2.79,6.85,3.54,10.31,2.24l20.17,22.06
					c2.08,2.27,5.62,2.34,7.79,0.18c2.18-2.18,2.09-5.74-0.2-7.81l-22.11-19.94c1.4-3.51,0.68-7.68-2.16-10.52
					c-2.57-2.56-6.2-3.4-9.46-2.51C269.52,432.59,269.37,433.13,269.69,433.45z M301.59,469.42c0,0.89-0.72,1.61-1.61,1.61
					c-0.89,0-1.61-0.72-1.61-1.61c0-0.89,0.72-1.61,1.61-1.61C300.86,467.8,301.59,468.52,301.59,469.42z"/>
				<path fill="#53515E" d="M279.74,443.47l1.94,1.76c1.25-3.45,0.5-7.47-2.27-10.24c-0.21-0.21-0.42-0.4-0.65-0.59
					C280.6,437.1,280.93,440.52,279.74,443.47z"/>
				<path fill="#53515E" d="M294.26,471.06l1.86,2.02c2.07,2.27,5.62,2.34,7.79,0.18c2.18-2.18,2.09-5.74-0.2-7.81l-0.76-0.68
					c1.15,2.05,0.87,4.69-0.88,6.46C299.89,473.4,296.33,473.32,294.26,471.06z"/>
				<path fill="#53515E" d="M275.94,451.02l-1.84-2.03c-3.21,1.2-6.92,0.65-9.67-1.65c0.34,0.51,0.74,0.99,1.19,1.45
					C268.4,451.57,272.46,452.32,275.94,451.02z"/>
				<path fill="#53515E" d="M288.3,451.57l-1.71,1.71l-1.15-1.15c-0.71-0.71-1.86-0.71-2.58,0l-1.57,1.57
					c0.4,1.02,0.4,2.16-0.01,3.18l3.8,4.15c0.83-0.39,1.76-0.5,2.65-0.34c0.53,0.1,1.07-0.07,1.44-0.45l0.9-0.9
					c0.71-0.71,0.71-1.86,0-2.58c-0.64-0.64-0.64-1.66,0-2.3l0.69-0.69L288.3,451.57z"/>
				<path fill="#E9EBF2" d="M305.24,437.48l-2.95-2.95c-0.29-0.29-0.76-0.21-0.95,0.14l-1.59,3.01l-14.51,14.51l2.34,2.33
					l14.51-14.51l3.01-1.59C305.46,438.23,305.53,437.76,305.24,437.48z"/>
				<path fill="#C7CAD3" d="M305.24,437.48l-0.75-0.75c0.05,0.25-0.06,0.52-0.3,0.65l-3.01,1.59l-14.51,14.52l-1.36-1.36l-0.07,0.07
					l2.34,2.33l14.51-14.51l3.01-1.59C305.46,438.23,305.53,437.76,305.24,437.48z"/>
				<path fill="#FFDC64" d="M282.65,460.66c1.26-1.26,3.1-1.59,4.66-0.98l1.57-1.57c0.71-0.71,0.71-1.86,0-2.58l-4.64-4.64
					c-0.71-0.71-1.86-0.71-2.58,0l-1.57,1.57c0.6,1.56,0.28,3.4-0.98,4.66c-1.26,1.26-3.1,1.59-4.66,0.98l-8.32,8.32
					c-1.99,1.99-1.99,5.21,0,7.21c1.99,1.99,5.22,1.99,7.21,0l8.32-8.32C281.06,463.75,281.39,461.92,282.65,460.66z"/>
				<path fill="#FFC850" d="M288.88,455.52l-1.09-1.09c0.15,0.6,0,1.27-0.48,1.74l-1.57,1.57c-1.56-0.61-3.4-0.28-4.66,0.98
					c-1.26,1.26-1.59,3.1-0.98,4.66l-8.32,8.31c-1.81,1.81-4.66,1.97-6.66,0.48c0.24,0.53,0.59,1.03,1.02,1.45
					c1.99,1.99,5.22,1.99,7.21,0l8.32-8.32c-0.6-1.56-0.28-3.4,0.98-4.66c1.26-1.26,3.1-1.59,4.66-0.98l1.57-1.57
					C289.59,457.39,289.59,456.24,288.88,455.52z"/>
				<path fill="#FF6B5C" d="M269.08,469.05c-0.18,0-0.34-0.07-0.48-0.2c-0.27-0.27-0.27-0.7,0-0.96l6.44-6.44
					c0.27-0.27,0.7-0.27,0.96,0c0.27,0.27,0.27,0.7,0,0.96l-6.44,6.44C269.43,468.98,269.25,469.05,269.08,469.05z"/>
				<path fill="#FF6B5C" d="M271.46,471.42c-0.18,0-0.34-0.07-0.48-0.2c-0.27-0.27-0.27-0.7,0-0.96l6.44-6.44
					c0.27-0.27,0.7-0.27,0.96,0c0.27,0.27,0.27,0.7,0,0.96l-6.44,6.44C271.81,471.36,271.64,471.42,271.46,471.42z"/>
			</g>
		</g>
		<path fill="#FFFFFF" d="M299.82,432.74c-1.06,0.35-2.03,0.95-2.82,1.74c-0.79,0.79-1.39,1.76-1.74,2.82
			c-0.35-1.06-0.95-2.03-1.74-2.82c-0.79-0.79-1.76-1.39-2.82-1.74c1.06-0.34,2.03-0.93,2.82-1.72c0.79-0.79,1.39-1.75,1.74-2.81
			c0.35,1.06,0.94,2.02,1.74,2.81C297.79,431.81,298.76,432.4,299.82,432.74z"/>
		<path fill="#FFFFFF" d="M316.33,419.01c-2.52,0.84-4.82,2.25-6.7,4.13c-1.88,1.88-3.29,4.17-4.13,6.7
			c-0.83-2.52-2.23-4.82-4.11-6.7c-1.88-1.88-4.17-3.29-6.69-4.13c2.52-0.83,4.81-2.24,6.69-4.11c1.88-1.88,3.29-4.17,4.11-6.69
			c0.84,2.52,2.25,4.81,4.13,6.69C311.52,416.77,313.81,418.18,316.33,419.01z"/>
		<g>
			<defs>
				<rect id="SVGID_00000051359719914718369400000002262803446018499235_" x="117.7" y="419.21" width="59" height="59"/>
			</defs>
			<clipPath id="SVGID_00000170273720950061977350000016714779272543689125_">
				<use xlink:href="#SVGID_00000051359719914718369400000002262803446018499235_"  overflow="visible"/>
			</clipPath>
			<g clip-path="url(#SVGID_00000170273720950061977350000016714779272543689125_)">
				<path fill="#B1E8FF" d="M148.34,455.94c0.24-0.39,0.38-0.84,0.38-1.33c0-1.41-1.14-2.55-2.55-2.55c-0.51,0-0.98,0.15-1.38,0.4
					c-0.01-1.72-1.41-3.1-3.12-3.1c-0.21,0-0.41,0.02-0.61,0.06c-0.42-0.9-1.33-1.51-2.37-1.51c-1.2,0-2.21,0.81-2.52,1.91
					c-0.33-0.15-0.71-0.24-1.12-0.24c-1.19,0-2.19,0.77-2.55,1.83c-2.32,0.18-4.14,2.13-4.14,4.49c0,0.01,0,0.01,0,0.02H148.34z"/>
				<path fill="#B1E8FF" d="M147.57,448.04c0.95,0,1.72-0.77,1.72-1.72c0-0.95-0.77-1.72-1.72-1.72c-0.95,0-1.72,0.77-1.72,1.72
					C145.85,447.27,146.62,448.04,147.57,448.04z"/>
				<path fill="#D7F7FF" d="M142.2,441.91c1.07,0,1.94-0.87,1.94-1.94s-0.87-1.94-1.94-1.94c-1.07,0-1.93,0.87-1.93,1.94
					S141.13,441.91,142.2,441.91z"/>
				<path fill="#55DBCB" d="M127.82,457.56l1.25,19.74c0.02,0.44,0.4,0.8,0.84,0.8h17.26c0.44,0,0.82-0.36,0.84-0.8l1.24-19.74
					H127.82z"/>
				<path fill="#EF5A50" d="M128.95,475.4l0.12,1.9c0.02,0.44,0.4,0.8,0.84,0.8h17.26c0.44,0,0.82-0.36,0.84-0.8l0.11-1.9H128.95z"
					/>
				<path opacity="0.1" fill="#231F20" enable-background="new    " d="M131.66,477.3l-1.24-19.74h-2.59l1.25,19.74
					c0.02,0.44,0.4,0.8,0.84,0.8h2.58C132.06,478.1,131.68,477.74,131.66,477.3z"/>
				<path fill="#E6E9ED" d="M158.16,429.93h-3.68v31.99h3.68V429.93z"/>
				<path fill="#08375E" d="M143.24,477.5c0,0.32,0.26,0.6,0.6,0.6h24.98c0.32,0,0.59-0.27,0.59-0.6v-5.74h-26.17V477.5z"/>
				<path opacity="0.1" fill="#231F20" enable-background="new    " d="M145.69,477.5v-5.74h-2.45v5.74c0,0.32,0.26,0.6,0.6,0.6
					h2.45C145.96,478.1,145.69,477.83,145.69,477.5z"/>
				<path fill="#63C3EA" d="M139.21,453.12c-0.15,0-0.3-0.03-0.44-0.11c-0.41-0.24-0.55-0.77-0.3-1.19
					c0.51-0.85,1.43-1.37,2.41-1.37c0.98,0,1.91,0.53,2.41,1.37c0.24,0.42,0.1,0.95-0.3,1.19c-0.41,0.24-0.95,0.1-1.19-0.3
					c-0.2-0.33-0.54-0.53-0.92-0.53c-0.38,0-0.73,0.2-0.92,0.53C139.79,452.96,139.51,453.12,139.21,453.12z"/>
				<path fill="#63C3EA" d="M133.69,454.35c-0.15,0-0.3-0.04-0.44-0.12c-0.42-0.24-0.54-0.77-0.3-1.19c0.4-0.68,1.15-1.11,1.94-1.11
					c0.79,0,1.53,0.43,1.94,1.11c0.24,0.41,0.1,0.95-0.3,1.19c-0.41,0.24-0.95,0.1-1.19-0.3c-0.09-0.16-0.26-0.25-0.45-0.25
					c-0.18,0-0.36,0.09-0.45,0.26C134.27,454.2,133.99,454.35,133.69,454.35z"/>
				<path fill="#3EAF91" d="M169.41,472.1v-2.25c0-0.32-0.26-0.6-0.59-0.6h-9.37c-0.32,0-0.59-0.26-0.59-0.6v-6.91
					c0-0.32-0.26-0.6-0.59-0.6h-3.87c-0.32,0-0.6,0.27-0.6,0.6v6.91c0,0.32-0.27,0.6-0.59,0.6h-9.37c-0.32,0-0.6,0.27-0.6,0.6v2.25
					H169.41z"/>
				<path fill="#08375E" d="M149.79,457.56v6.74c0,0.76-0.62,1.38-1.38,1.38h-4.55v1.73h4.55c1.72,0,3.11-1.39,3.11-3.11v-6.74
					H149.79z"/>
				<path fill="#08375E" d="M134.53,465.68h-5.85c-0.76,0-1.38-0.62-1.38-1.38v-6.74h-1.73v6.74c0,1.72,1.39,3.11,3.11,3.11h5.85
					V465.68z"/>
				<path fill="#EF5A50" d="M144.53,466.91c0,0.73-0.6,1.33-1.33,1.33h-8.18c-0.73,0-1.32-0.6-1.32-1.33v-0.49
					c0-0.73,0.6-1.33,1.32-1.33h8.18c0.73,0,1.33,0.6,1.33,1.33V466.91z"/>
				<path fill="#36AEA0" d="M152.09,456.72c0,0.66-0.53,1.19-1.19,1.19h-24.72c-0.66,0-1.19-0.53-1.19-1.19v-0.25
					c0-0.66,0.53-1.19,1.19-1.19h24.72c0.66,0,1.19,0.53,1.19,1.19V456.72z"/>
				<path opacity="0.1" fill="#231F20" enable-background="new    " d="M128.21,456.72v-0.25c0-0.66,0.53-1.19,1.19-1.19h-3.22
					c-0.66,0-1.19,0.53-1.19,1.19v0.25c0,0.66,0.53,1.19,1.19,1.19h3.22C128.74,457.91,128.21,457.38,128.21,456.72z"/>
				<path fill="#3EAF91" d="M156.94,419.1h-1.22c-0.68,0-1.22,0.55-1.22,1.22v9.93h3.68v-9.93
					C158.16,419.65,157.61,419.1,156.94,419.1z"/>
			</g>
		</g>
	</g>
</g>
</svg>
