<?xml version="1.0" encoding="utf-8"?>
<!-- Generator: Adobe Illustrator 25.4.1, SVG Export Plug-In . SVG Version: 6.00 Build 0)  -->
<svg version="1.1" id="Layer_1" xmlns="http://www.w3.org/2000/svg" xmlns:xlink="http://www.w3.org/1999/xlink" x="0px" y="0px"
	 viewBox="0 0 430 932" enable-background="new 0 0 430 932" xml:space="preserve">
<g>
	<defs>
		<rect id="SVGID_1_" width="430" height="932"/>
	</defs>
	<clipPath id="SVGID_00000124841623276731979290000004693086248065559981_">
		<use xlink:href="#SVGID_1_"  overflow="visible"/>
	</clipPath>
	<g clip-path="url(#SVGID_00000124841623276731979290000004693086248065559981_)">
		<rect fill="#FFFFFF" width="430" height="932"/>
		<path opacity="0.15" fill-rule="evenodd" clip-rule="evenodd" fill="#F8991E" enable-background="new    " d="M268.58,393.42
			c0.01-0.55,0.01-1.1,0.01-1.65c0-69.75-56.54-126.29-126.29-126.29C72.54,265.48,16,322.02,16,391.77
			c0,69.21,55.67,125.41,124.66,126.28c-0.01,0.55-0.01,1.1-0.01,1.65c0,69.75,56.54,126.29,126.29,126.29
			c69.75,0,126.29-56.54,126.29-126.29C393.24,450.5,337.58,394.3,268.58,393.42z"/>
		<path fill="#F8991E" d="M91.2,149.58v0.94c0,1.51-0.21,2.87-0.62,4.08c-0.41,1.2-0.99,2.23-1.74,3.08
			c-0.75,0.84-1.64,1.48-2.68,1.93c-1.03,0.45-2.17,0.67-3.43,0.67c-1.25,0-2.39-0.22-3.43-0.67c-1.03-0.45-1.92-1.09-2.68-1.93
			c-0.76-0.85-1.34-1.87-1.76-3.08c-0.41-1.2-0.62-2.56-0.62-4.08v-0.94c0-1.52,0.21-2.88,0.62-4.07c0.41-1.2,0.99-2.23,1.74-3.08
			c0.76-0.85,1.65-1.5,2.68-1.94c1.04-0.45,2.18-0.67,3.43-0.67c1.26,0,2.4,0.22,3.43,0.67c1.04,0.45,1.93,1.09,2.68,1.94
			c0.76,0.85,1.34,1.87,1.75,3.08C90.99,146.7,91.2,148.06,91.2,149.58z M87.05,150.52v-0.97c0-1.06-0.1-1.99-0.29-2.79
			c-0.19-0.8-0.47-1.48-0.85-2.02s-0.83-0.96-1.37-1.23c-0.54-0.28-1.15-0.42-1.85-0.42c-0.69,0-1.31,0.14-1.85,0.42
			c-0.53,0.27-0.98,0.68-1.35,1.23c-0.36,0.55-0.64,1.22-0.83,2.02c-0.19,0.8-0.29,1.73-0.29,2.79v0.97c0,1.05,0.1,1.98,0.29,2.79
			c0.19,0.8,0.47,1.48,0.85,2.04c0.37,0.55,0.83,0.96,1.37,1.24c0.54,0.28,1.15,0.42,1.85,0.42c0.69,0,1.31-0.14,1.85-0.42
			c0.54-0.28,0.99-0.7,1.35-1.24c0.36-0.56,0.64-1.24,0.83-2.04C86.96,152.5,87.05,151.57,87.05,150.52z M101.94,151.26h-5.11
			l-0.03-2.82h4.29c0.76,0,1.38-0.1,1.86-0.29c0.48-0.2,0.84-0.49,1.08-0.86c0.25-0.38,0.37-0.85,0.37-1.39
			c0-0.62-0.12-1.12-0.36-1.5c-0.23-0.38-0.59-0.66-1.08-0.83c-0.48-0.17-1.11-0.26-1.87-0.26h-2.84V160h-4.1v-19.91h6.95
			c1.16,0,2.19,0.11,3.1,0.33c0.92,0.22,1.7,0.55,2.34,1c0.64,0.45,1.13,1.01,1.46,1.7c0.34,0.67,0.51,1.48,0.51,2.41
			c0,0.82-0.19,1.58-0.56,2.27c-0.36,0.69-0.94,1.26-1.74,1.69c-0.78,0.44-1.81,0.68-3.08,0.73L101.94,151.26z M101.76,160h-6.06
			l1.6-3.2h4.46c0.72,0,1.31-0.11,1.76-0.34c0.46-0.24,0.79-0.56,1.01-0.96s0.33-0.86,0.33-1.38c0-0.58-0.1-1.09-0.3-1.52
			c-0.19-0.43-0.5-0.76-0.93-0.99c-0.43-0.24-0.99-0.35-1.7-0.35h-3.95l0.03-2.82h4.92l0.94,1.11c1.21-0.02,2.19,0.2,2.93,0.64
			c0.75,0.44,1.29,1.01,1.63,1.71c0.35,0.7,0.52,1.45,0.52,2.26c0,1.28-0.28,2.35-0.83,3.23c-0.56,0.87-1.37,1.52-2.45,1.95
			C104.61,159.78,103.3,160,101.76,160z M120.55,140.09V160h-4.09v-19.91H120.55z M126.67,140.09v3.21h-16.24v-3.21H126.67z
			 M142.37,156.8v3.2h-10.6v-3.2H142.37z M133.11,140.09V160h-4.1v-19.91H133.11z M140.99,148.2v3.12h-9.22v-3.12H140.99z
			 M142.35,140.09v3.21h-10.58v-3.21H142.35z M134.06,138.92l2.68-4.21h4.28l-3.76,4.21H134.06z M160.96,140.09V160h-4.1l-8-13.34
			V160h-4.1v-19.91h4.1l8.01,13.36v-13.36H160.96z M179.67,140.09V160h-4.09v-19.91H179.67z M185.79,140.09v3.21h-16.24v-3.21
			H185.79z M199.12,140.09h4.09v13.15c0,1.53-0.33,2.82-0.98,3.87c-0.65,1.05-1.55,1.84-2.69,2.36c-1.14,0.53-2.45,0.79-3.94,0.79
			c-1.49,0-2.81-0.26-3.96-0.79c-1.15-0.53-2.05-1.32-2.71-2.36c-0.65-1.05-0.97-2.34-0.97-3.87v-13.15h4.1v13.15
			c0,0.89,0.14,1.62,0.42,2.19c0.28,0.56,0.69,0.98,1.22,1.24c0.54,0.26,1.17,0.4,1.9,0.4c0.75,0,1.38-0.13,1.9-0.4
			c0.53-0.26,0.93-0.68,1.2-1.24c0.28-0.57,0.42-1.29,0.42-2.19V140.09z M221.31,152.9h-5.07v-3.2h5.07c0.78,0,1.42-0.13,1.91-0.38
			c0.49-0.26,0.85-0.63,1.08-1.09c0.23-0.46,0.34-0.99,0.34-1.57c0-0.59-0.11-1.14-0.34-1.65c-0.23-0.51-0.59-0.92-1.08-1.23
			c-0.49-0.31-1.13-0.46-1.91-0.46h-3.65V160h-4.1v-19.91h7.75c1.56,0,2.89,0.28,4,0.85c1.12,0.56,1.98,1.33,2.57,2.31
			c0.59,0.98,0.89,2.11,0.89,3.38c0,1.29-0.3,2.4-0.89,3.34c-0.59,0.94-1.45,1.66-2.57,2.17C224.2,152.65,222.87,152.9,221.31,152.9
			z M231.6,140.09h7.42c1.52,0,2.83,0.23,3.92,0.68c1.1,0.46,1.95,1.13,2.54,2.02c0.59,0.89,0.89,1.99,0.89,3.29
			c0,1.07-0.18,1.98-0.55,2.75c-0.36,0.76-0.86,1.39-1.52,1.9c-0.65,0.5-1.41,0.9-2.28,1.2l-1.3,0.68h-6.45l-0.03-3.2h4.8
			c0.72,0,1.32-0.13,1.79-0.38c0.47-0.25,0.83-0.61,1.07-1.07c0.25-0.46,0.37-0.98,0.37-1.59c0-0.64-0.12-1.19-0.36-1.65
			c-0.24-0.47-0.6-0.82-1.08-1.07c-0.48-0.25-1.09-0.37-1.82-0.37h-3.32V160h-4.1V140.09z M242.73,160l-4.54-8.87l4.33-0.03
			l4.59,8.71V160H242.73z M265.89,149.58v0.94c0,1.51-0.21,2.87-0.62,4.08c-0.41,1.2-0.99,2.23-1.74,3.08
			c-0.75,0.84-1.64,1.48-2.68,1.93c-1.03,0.45-2.17,0.67-3.43,0.67c-1.25,0-2.39-0.22-3.43-0.67c-1.03-0.45-1.92-1.09-2.68-1.93
			c-0.76-0.85-1.34-1.87-1.76-3.08c-0.41-1.2-0.62-2.56-0.62-4.08v-0.94c0-1.52,0.21-2.88,0.62-4.07c0.41-1.2,0.99-2.23,1.74-3.08
			c0.76-0.85,1.65-1.5,2.68-1.94c1.04-0.45,2.18-0.67,3.43-0.67c1.26,0,2.4,0.22,3.43,0.67c1.04,0.45,1.93,1.09,2.68,1.94
			c0.76,0.85,1.34,1.87,1.75,3.08C265.68,146.7,265.89,148.06,265.89,149.58z M261.75,150.52v-0.97c0-1.06-0.1-1.99-0.29-2.79
			c-0.19-0.8-0.47-1.48-0.85-2.02s-0.83-0.96-1.37-1.23c-0.54-0.28-1.15-0.42-1.85-0.42c-0.69,0-1.31,0.14-1.84,0.42
			c-0.53,0.27-0.98,0.68-1.35,1.23c-0.37,0.55-0.64,1.22-0.83,2.02c-0.19,0.8-0.29,1.73-0.29,2.79v0.97c0,1.05,0.1,1.98,0.29,2.79
			c0.19,0.8,0.47,1.48,0.85,2.04c0.37,0.55,0.83,0.96,1.37,1.24c0.54,0.28,1.15,0.42,1.85,0.42c0.69,0,1.31-0.14,1.85-0.42
			c0.54-0.28,0.99-0.7,1.35-1.24c0.36-0.56,0.64-1.24,0.83-2.04C261.66,152.5,261.75,151.57,261.75,150.52z M274.96,160h-4.33
			l0.03-3.2h4.31c1.08,0,1.98-0.24,2.72-0.72c0.74-0.49,1.29-1.21,1.67-2.15c0.38-0.94,0.57-2.07,0.57-3.4v-0.97
			c0-1.02-0.11-1.92-0.33-2.69c-0.21-0.77-0.52-1.43-0.94-1.95c-0.42-0.53-0.93-0.93-1.54-1.19c-0.61-0.27-1.31-0.41-2.11-0.41
			h-4.46v-3.21H275c1.33,0,2.55,0.23,3.65,0.68c1.11,0.45,2.07,1.09,2.89,1.93c0.81,0.84,1.44,1.84,1.87,3.01
			c0.45,1.16,0.67,2.45,0.67,3.87v0.94c0,1.41-0.22,2.7-0.67,3.87c-0.44,1.17-1.06,2.17-1.87,3.01c-0.8,0.83-1.76,1.47-2.89,1.93
			C277.54,159.78,276.31,160,274.96,160z M272.95,140.09V160h-4.1v-19.91H272.95z M298.05,140.09h4.09v13.15
			c0,1.53-0.33,2.82-0.99,3.87c-0.65,1.05-1.54,1.84-2.69,2.36c-1.14,0.53-2.45,0.79-3.94,0.79c-1.49,0-2.81-0.26-3.96-0.79
			c-1.15-0.53-2.05-1.32-2.71-2.36c-0.65-1.05-0.97-2.34-0.97-3.87v-13.15h4.1v13.15c0,0.89,0.14,1.62,0.42,2.19
			c0.28,0.56,0.69,0.98,1.22,1.24c0.54,0.26,1.17,0.4,1.9,0.4c0.75,0,1.38-0.13,1.9-0.4c0.53-0.26,0.93-0.68,1.2-1.24
			c0.28-0.57,0.42-1.29,0.42-2.19V140.09z M317.05,153.4h4.09c-0.08,1.34-0.45,2.53-1.11,3.57c-0.65,1.04-1.55,1.85-2.72,2.43
			c-1.16,0.58-2.55,0.88-4.18,0.88c-1.28,0-2.42-0.22-3.43-0.66c-1.01-0.45-1.88-1.08-2.6-1.91c-0.71-0.83-1.25-1.83-1.63-3.01
			c-0.37-1.18-0.56-2.49-0.56-3.95v-1.38c0-1.46,0.19-2.78,0.57-3.95c0.39-1.18,0.95-2.19,1.67-3.02c0.73-0.83,1.6-1.47,2.61-1.91
			c1.01-0.45,2.14-0.67,3.39-0.67c1.66,0,3.06,0.3,4.2,0.9c1.15,0.6,2.04,1.43,2.67,2.49c0.64,1.06,1.02,2.26,1.15,3.61h-4.1
			c-0.04-0.8-0.2-1.48-0.48-2.04c-0.27-0.57-0.69-0.99-1.24-1.27c-0.55-0.29-1.28-0.44-2.19-0.44c-0.68,0-1.28,0.13-1.79,0.38
			c-0.51,0.26-0.94,0.64-1.29,1.16c-0.35,0.52-0.61,1.18-0.78,1.97c-0.16,0.78-0.25,1.71-0.25,2.76v1.41c0,1.03,0.08,1.94,0.23,2.72
			c0.15,0.78,0.39,1.43,0.71,1.97c0.33,0.53,0.75,0.93,1.26,1.2c0.52,0.26,1.14,0.4,1.87,0.4c0.86,0,1.56-0.14,2.12-0.41
			s0.98-0.68,1.27-1.22C316.82,154.87,317,154.2,317.05,153.4z M332.33,140.09V160h-4.09v-19.91H332.33z M338.45,140.09v3.21h-16.24
			v-3.21H338.45z M356.76,149.58v0.94c0,1.51-0.2,2.87-0.61,4.08c-0.41,1.2-0.99,2.23-1.74,3.08c-0.75,0.84-1.64,1.48-2.68,1.93
			c-1.03,0.45-2.17,0.67-3.43,0.67c-1.25,0-2.39-0.22-3.43-0.67c-1.03-0.45-1.92-1.09-2.68-1.93c-0.76-0.85-1.35-1.87-1.76-3.08
			c-0.41-1.2-0.62-2.56-0.62-4.08v-0.94c0-1.52,0.21-2.88,0.62-4.07c0.41-1.2,0.99-2.23,1.74-3.08c0.76-0.85,1.65-1.5,2.68-1.94
			c1.04-0.45,2.18-0.67,3.43-0.67c1.26,0,2.4,0.22,3.43,0.67c1.04,0.45,1.93,1.09,2.68,1.94c0.76,0.85,1.34,1.87,1.75,3.08
			C356.55,146.7,356.76,148.06,356.76,149.58z M352.61,150.52v-0.97c0-1.06-0.1-1.99-0.29-2.79c-0.19-0.8-0.47-1.48-0.85-2.02
			c-0.37-0.55-0.83-0.96-1.37-1.23c-0.54-0.28-1.15-0.42-1.85-0.42c-0.69,0-1.31,0.14-1.85,0.42c-0.53,0.27-0.98,0.68-1.35,1.23
			c-0.36,0.55-0.64,1.22-0.83,2.02c-0.19,0.8-0.29,1.73-0.29,2.79v0.97c0,1.05,0.1,1.98,0.29,2.79c0.19,0.8,0.47,1.48,0.85,2.04
			c0.37,0.55,0.83,0.96,1.37,1.24c0.54,0.28,1.15,0.42,1.85,0.42c0.69,0,1.31-0.14,1.85-0.42c0.54-0.28,0.99-0.7,1.35-1.24
			c0.37-0.56,0.64-1.24,0.83-2.04C352.52,152.5,352.61,151.57,352.61,150.52z"/>
		<path fill="#707070" d="M117.82,727.84c0.33,0,0.6,0.11,0.8,0.32c0.21,0.21,0.32,0.48,0.32,0.8c0,0.33-0.11,0.61-0.32,0.82
			c-0.2,0.2-0.47,0.3-0.8,0.3c-0.32,0-0.59-0.1-0.8-0.3c-0.2-0.21-0.3-0.49-0.3-0.82c0-0.32,0.1-0.59,0.3-0.8
			C117.23,727.95,117.5,727.84,117.82,727.84z M117.3,732.54c0-0.13,0.07-0.2,0.2-0.2h0.8c0.13,0,0.2,0.07,0.2,0.2l0.12,9.02
			c0,0.13-0.07,0.2-0.2,0.2h-1.02c-0.13,0-0.2-0.07-0.2-0.2L117.3,732.54z M131.28,728.2c0-0.13,0.07-0.2,0.2-0.2h1.02
			c0.13,0,0.2,0.07,0.2,0.2v13.6c0,0.13-0.07,0.2-0.2,0.2h-1c-0.09,0-0.17-0.05-0.24-0.14l-6.82-11.1
			c-0.01-0.04-0.03-0.05-0.06-0.04c-0.03,0-0.04,0.02-0.04,0.06l0.02,11.02c0,0.13-0.07,0.2-0.2,0.2h-1.02c-0.13,0-0.2-0.07-0.2-0.2
			v-13.6c0-0.13,0.07-0.2,0.2-0.2h1c0.09,0,0.17,0.05,0.24,0.14l6.82,11.1c0.01,0.04,0.03,0.06,0.06,0.06
			c0.03-0.01,0.04-0.04,0.04-0.08L131.28,728.2z M142.3,732.08c0-0.13,0.07-0.2,0.2-0.2h1.02c0.13,0,0.2,0.07,0.2,0.2v9.72
			c0,0.13-0.07,0.2-0.2,0.2h-1.02c-0.13,0-0.2-0.07-0.2-0.2v-0.86c0-0.03-0.01-0.05-0.04-0.06c-0.03-0.01-0.05-0.01-0.06,0.02
			c-0.56,0.83-1.45,1.24-2.66,1.24c-0.64,0-1.23-0.13-1.78-0.38c-0.53-0.27-0.96-0.65-1.28-1.14c-0.31-0.49-0.46-1.09-0.46-1.78
			v-6.76c0-0.13,0.07-0.2,0.2-0.2h1.02c0.13,0,0.2,0.07,0.2,0.2v6.34c0,0.76,0.21,1.37,0.64,1.82c0.43,0.44,1.01,0.66,1.74,0.66
			c0.76,0,1.36-0.23,1.8-0.68c0.45-0.45,0.68-1.05,0.68-1.8V732.08z M151.1,731.74c1.07,0,1.91,0.31,2.54,0.94
			c0.64,0.63,0.96,1.47,0.96,2.52v6.6c0,0.13-0.07,0.2-0.2,0.2h-1.02c-0.13,0-0.2-0.07-0.2-0.2v-6.32c0-0.73-0.23-1.33-0.68-1.8
			c-0.44-0.47-1.01-0.7-1.72-0.7c-0.73,0-1.33,0.23-1.78,0.68c-0.45,0.45-0.68,1.05-0.68,1.78v6.36c0,0.13-0.07,0.2-0.2,0.2h-1.02
			c-0.13,0-0.2-0.07-0.2-0.2v-9.72c0-0.13,0.07-0.2,0.2-0.2h1.02c0.13,0,0.2,0.07,0.2,0.2v0.86c0,0.03,0.01,0.05,0.02,0.06
			c0.03,0.01,0.05,0.01,0.06-0.02C148.99,732.15,149.89,731.74,151.1,731.74z M161.37,742.16c-0.96,0-1.79-0.25-2.48-0.74
			c-0.68-0.51-1.15-1.19-1.4-2.04c-0.17-0.59-0.26-1.41-0.26-2.48c0-0.96,0.09-1.77,0.26-2.44c0.24-0.83,0.71-1.49,1.4-1.98
			c0.69-0.51,1.52-0.76,2.48-0.76c0.97,0,1.81,0.25,2.52,0.74c0.72,0.49,1.19,1.11,1.4,1.84c0.07,0.24,0.11,0.44,0.12,0.6v0.04
			c0,0.09-0.06,0.15-0.18,0.18l-1,0.14h-0.04c-0.09,0-0.15-0.06-0.18-0.18l-0.06-0.3c-0.12-0.51-0.41-0.93-0.88-1.28
			c-0.47-0.36-1.03-0.54-1.7-0.54c-0.67,0-1.23,0.18-1.68,0.54c-0.44,0.35-0.73,0.81-0.86,1.4c-0.12,0.51-0.18,1.18-0.18,2.02
			c0,0.88,0.06,1.56,0.18,2.04c0.13,0.6,0.42,1.08,0.86,1.44c0.45,0.35,1.01,0.52,1.68,0.52c0.65,0,1.21-0.17,1.68-0.5
			c0.48-0.35,0.78-0.79,0.9-1.32v-0.08l0.02-0.08c0.01-0.13,0.09-0.19,0.24-0.16l0.98,0.16c0.13,0.03,0.19,0.1,0.18,0.22l-0.08,0.4
			c-0.2,0.77-0.66,1.4-1.38,1.88S162.34,742.16,161.37,742.16z M171.44,731.72c1.2,0,2.13,0.31,2.78,0.92
			c0.65,0.61,0.98,1.43,0.98,2.44v6.72c0,0.13-0.07,0.2-0.2,0.2h-1.02c-0.13,0-0.2-0.07-0.2-0.2v-0.82c0-0.03-0.01-0.05-0.04-0.06
			c-0.01-0.01-0.03-0.01-0.06,0.02c-0.33,0.4-0.77,0.71-1.3,0.92c-0.53,0.2-1.13,0.3-1.78,0.3c-0.95,0-1.74-0.24-2.38-0.72
			s-0.96-1.21-0.96-2.2c0-1,0.36-1.79,1.08-2.36c0.73-0.59,1.75-0.88,3.04-0.88h2.32c0.05,0,0.08-0.03,0.08-0.08v-0.76
			c0-0.68-0.19-1.21-0.58-1.6c-0.37-0.4-0.96-0.6-1.76-0.6c-0.64,0-1.16,0.13-1.56,0.38c-0.4,0.24-0.65,0.58-0.74,1.02
			c-0.04,0.13-0.12,0.19-0.24,0.18l-1.08-0.14c-0.15-0.03-0.21-0.08-0.18-0.16c0.11-0.75,0.51-1.35,1.2-1.82
			C169.53,731.95,170.4,731.72,171.44,731.72z M170.88,740.94c0.79,0,1.47-0.19,2.04-0.58c0.57-0.4,0.86-0.93,0.86-1.6v-1.56
			c0-0.05-0.03-0.08-0.08-0.08h-2.1c-0.88,0-1.59,0.18-2.12,0.54c-0.53,0.36-0.8,0.86-0.8,1.5c0,0.59,0.2,1.03,0.6,1.34
			C169.69,740.79,170.23,740.94,170.88,740.94z M186.36,731.74c1.07,0,1.91,0.31,2.54,0.94c0.64,0.63,0.96,1.47,0.96,2.52v6.6
			c0,0.13-0.07,0.2-0.2,0.2h-1.02c-0.13,0-0.2-0.07-0.2-0.2v-6.32c0-0.73-0.23-1.33-0.68-1.8c-0.44-0.47-1.01-0.7-1.72-0.7
			c-0.73,0-1.33,0.23-1.78,0.68c-0.45,0.45-0.68,1.05-0.68,1.78v6.36c0,0.13-0.07,0.2-0.2,0.2h-1.02c-0.13,0-0.2-0.07-0.2-0.2v-13.6
			c0-0.13,0.07-0.2,0.2-0.2h1.02c0.13,0,0.2,0.07,0.2,0.2v4.74c0,0.03,0.01,0.05,0.02,0.06c0.03,0.01,0.05,0.01,0.06-0.02
			C184.24,732.15,185.14,731.74,186.36,731.74z M196.44,731.72c1.2,0,2.13,0.31,2.78,0.92c0.65,0.61,0.98,1.43,0.98,2.44v6.72
			c0,0.13-0.07,0.2-0.2,0.2h-1.02c-0.13,0-0.2-0.07-0.2-0.2v-0.82c0-0.03-0.01-0.05-0.04-0.06c-0.01-0.01-0.03-0.01-0.06,0.02
			c-0.33,0.4-0.77,0.71-1.3,0.92c-0.53,0.2-1.13,0.3-1.78,0.3c-0.95,0-1.74-0.24-2.38-0.72s-0.96-1.21-0.96-2.2
			c0-1,0.36-1.79,1.08-2.36c0.73-0.59,1.75-0.88,3.04-0.88h2.32c0.05,0,0.08-0.03,0.08-0.08v-0.76c0-0.68-0.19-1.21-0.58-1.6
			c-0.37-0.4-0.96-0.6-1.76-0.6c-0.64,0-1.16,0.13-1.56,0.38c-0.4,0.24-0.65,0.58-0.74,1.02c-0.04,0.13-0.12,0.19-0.24,0.18
			l-1.08-0.14c-0.15-0.03-0.21-0.08-0.18-0.16c0.11-0.75,0.51-1.35,1.2-1.82C194.53,731.95,195.4,731.72,196.44,731.72z
			 M195.88,740.94c0.79,0,1.47-0.19,2.04-0.58c0.57-0.4,0.86-0.93,0.86-1.6v-1.56c0-0.05-0.03-0.08-0.08-0.08h-2.1
			c-0.88,0-1.59,0.18-2.12,0.54c-0.53,0.36-0.8,0.86-0.8,1.5c0,0.59,0.2,1.03,0.6,1.34C194.69,740.79,195.23,740.94,195.88,740.94z
			 M210.48,742.1c-0.75,0-1.41-0.12-2-0.36c-0.57-0.24-1.02-0.56-1.34-0.96c-0.31-0.4-0.46-0.85-0.46-1.34v-0.24
			c0-0.13,0.07-0.2,0.2-0.2h0.96c0.13,0,0.2,0.07,0.2,0.2v0.16c0,0.44,0.23,0.83,0.68,1.16c0.47,0.32,1.05,0.48,1.74,0.48
			c0.69,0,1.25-0.15,1.68-0.46c0.43-0.32,0.64-0.72,0.64-1.2c0-0.33-0.11-0.61-0.34-0.82c-0.21-0.21-0.47-0.38-0.78-0.5
			c-0.29-0.12-0.75-0.27-1.38-0.46c-0.75-0.21-1.36-0.43-1.84-0.64c-0.48-0.21-0.89-0.51-1.22-0.88c-0.32-0.39-0.48-0.87-0.48-1.46
			c0-0.85,0.33-1.53,1-2.04c0.67-0.51,1.55-0.76,2.64-0.76c0.73,0,1.38,0.12,1.94,0.36c0.57,0.24,1.01,0.57,1.32,1
			c0.31,0.41,0.46,0.88,0.46,1.4v0.06c0,0.13-0.07,0.2-0.2,0.2h-0.94c-0.13,0-0.2-0.07-0.2-0.2v-0.06c0-0.45-0.22-0.83-0.66-1.14
			c-0.43-0.31-1.01-0.46-1.74-0.46c-0.68,0-1.23,0.14-1.64,0.42c-0.41,0.27-0.62,0.64-0.62,1.12c0,0.45,0.2,0.8,0.6,1.04
			c0.4,0.24,1.02,0.48,1.86,0.72c0.77,0.23,1.4,0.44,1.88,0.64c0.48,0.2,0.89,0.49,1.24,0.88c0.35,0.37,0.52,0.87,0.52,1.48
			c0,0.87-0.34,1.56-1.02,2.08C212.5,741.84,211.6,742.1,210.48,742.1z M217.75,730.04c-0.32,0-0.59-0.11-0.8-0.32
			c-0.21-0.21-0.32-0.48-0.32-0.8c0-0.33,0.11-0.6,0.32-0.8c0.21-0.21,0.48-0.32,0.8-0.32c0.32,0,0.59,0.11,0.8,0.32
			c0.21,0.2,0.32,0.47,0.32,0.8c0,0.32-0.11,0.59-0.32,0.8C218.33,729.93,218.07,730.04,217.75,730.04z M217.19,741.98
			c-0.13,0-0.2-0.07-0.2-0.2v-9.72c0-0.13,0.07-0.2,0.2-0.2h1.02c0.13,0,0.2,0.07,0.2,0.2v9.72c0,0.13-0.07,0.2-0.2,0.2H217.19z
			 M228.16,728.2c0-0.13,0.07-0.2,0.2-0.2h1.02c0.13,0,0.2,0.07,0.2,0.2v13.6c0,0.13-0.07,0.2-0.2,0.2h-1.02
			c-0.13,0-0.2-0.07-0.2-0.2v-0.84c0-0.03-0.01-0.04-0.04-0.04c-0.01-0.01-0.03-0.01-0.06,0.02c-0.29,0.39-0.66,0.69-1.1,0.9
			c-0.43,0.21-0.91,0.32-1.44,0.32c-0.93,0-1.72-0.24-2.36-0.72c-0.63-0.48-1.06-1.13-1.3-1.96c-0.19-0.6-0.28-1.45-0.28-2.54
			c0-1.11,0.08-1.93,0.24-2.48c0.24-0.85,0.68-1.52,1.32-2c0.64-0.49,1.43-0.74,2.38-0.74c0.52,0,1,0.11,1.44,0.32
			c0.44,0.2,0.81,0.49,1.1,0.88c0.03,0.03,0.05,0.04,0.06,0.04c0.03-0.01,0.04-0.03,0.04-0.06V728.2z M227.8,739.38
			c0.12-0.27,0.21-0.58,0.26-0.94c0.05-0.36,0.08-0.86,0.08-1.5s-0.03-1.14-0.08-1.5c-0.05-0.37-0.15-0.7-0.28-0.98
			c-0.16-0.45-0.43-0.81-0.8-1.08c-0.36-0.28-0.79-0.42-1.3-0.42c-0.53,0-0.99,0.13-1.38,0.4c-0.39,0.27-0.67,0.62-0.84,1.06
			c-0.16,0.29-0.28,0.63-0.36,1c-0.07,0.36-0.1,0.87-0.1,1.52c0,0.63,0.03,1.12,0.08,1.48c0.05,0.35,0.15,0.66,0.28,0.94
			c0.16,0.48,0.44,0.86,0.84,1.14c0.41,0.28,0.9,0.42,1.46,0.42c0.53,0,0.98-0.14,1.34-0.42S227.63,739.85,227.8,739.38z
			 M236.66,742.16c-0.96,0-1.79-0.25-2.48-0.74c-0.69-0.49-1.17-1.17-1.44-2.04c-0.19-0.61-0.28-1.43-0.28-2.46
			c0-1.03,0.09-1.84,0.28-2.44c0.25-0.85,0.73-1.53,1.42-2.02c0.69-0.49,1.53-0.74,2.52-0.74c0.95,0,1.76,0.25,2.44,0.74
			c0.69,0.49,1.17,1.16,1.42,2c0.19,0.57,0.28,1.39,0.28,2.46c0,1.08-0.09,1.9-0.28,2.46c-0.25,0.87-0.73,1.55-1.42,2.04
			C238.44,741.91,237.62,742.16,236.66,742.16z M236.66,740.92c0.64,0,1.19-0.17,1.64-0.52c0.45-0.36,0.76-0.84,0.92-1.44
			c0.12-0.48,0.18-1.15,0.18-2.02c0-0.88-0.05-1.55-0.16-2.02c-0.16-0.6-0.47-1.07-0.94-1.42c-0.45-0.36-1.01-0.54-1.66-0.54
			c-0.65,0-1.21,0.18-1.66,0.54c-0.45,0.35-0.76,0.82-0.92,1.42c-0.11,0.47-0.16,1.14-0.16,2.02s0.05,1.55,0.16,2.02
			c0.15,0.6,0.45,1.08,0.9,1.44C235.43,740.75,235.99,740.92,236.66,740.92z M252.24,732.86c0,0.13-0.07,0.2-0.2,0.2h-2.26
			c-0.05,0-0.08,0.03-0.08,0.08v5.9c0,0.64,0.14,1.09,0.42,1.36c0.29,0.25,0.75,0.38,1.36,0.38h0.5c0.13,0,0.2,0.07,0.2,0.2v0.82
			c0,0.13-0.07,0.2-0.2,0.2c-0.16,0.01-0.41,0.02-0.74,0.02c-0.96,0-1.69-0.18-2.18-0.54c-0.49-0.36-0.74-1.03-0.74-2v-6.34
			c0-0.05-0.03-0.08-0.08-0.08h-1.22c-0.13,0-0.2-0.07-0.2-0.2v-0.78c0-0.13,0.07-0.2,0.2-0.2h1.22c0.05,0,0.08-0.03,0.08-0.08
			v-2.32c0-0.13,0.07-0.2,0.2-0.2h0.98c0.13,0,0.2,0.07,0.2,0.2v2.32c0,0.05,0.03,0.08,0.08,0.08h2.26c0.13,0,0.2,0.07,0.2,0.2
			V732.86z M258.49,731.72c1.2,0,2.13,0.31,2.78,0.92c0.65,0.61,0.98,1.43,0.98,2.44v6.72c0,0.13-0.07,0.2-0.2,0.2h-1.02
			c-0.13,0-0.2-0.07-0.2-0.2v-0.82c0-0.03-0.01-0.05-0.04-0.06c-0.01-0.01-0.03-0.01-0.06,0.02c-0.33,0.4-0.77,0.71-1.3,0.92
			c-0.53,0.2-1.13,0.3-1.78,0.3c-0.95,0-1.74-0.24-2.38-0.72s-0.96-1.21-0.96-2.2c0-1,0.36-1.79,1.08-2.36
			c0.73-0.59,1.75-0.88,3.04-0.88h2.32c0.05,0,0.08-0.03,0.08-0.08v-0.76c0-0.68-0.19-1.21-0.58-1.6c-0.37-0.4-0.96-0.6-1.76-0.6
			c-0.64,0-1.16,0.13-1.56,0.38c-0.4,0.24-0.65,0.58-0.74,1.02c-0.04,0.13-0.12,0.19-0.24,0.18l-1.08-0.14
			c-0.15-0.03-0.21-0.08-0.18-0.16c0.11-0.75,0.51-1.35,1.2-1.82C256.58,731.95,257.45,731.72,258.49,731.72z M257.93,740.94
			c0.79,0,1.47-0.19,2.04-0.58c0.57-0.4,0.86-0.93,0.86-1.6v-1.56c0-0.05-0.03-0.08-0.08-0.08h-2.1c-0.88,0-1.59,0.18-2.12,0.54
			c-0.53,0.36-0.8,0.86-0.8,1.5c0,0.59,0.2,1.03,0.6,1.34C256.74,740.79,257.27,740.94,257.93,740.94z M269.4,731.74
			c1.07,0,1.91,0.31,2.54,0.94c0.64,0.63,0.96,1.47,0.96,2.52v6.6c0,0.13-0.07,0.2-0.2,0.2h-1.02c-0.13,0-0.2-0.07-0.2-0.2v-6.32
			c0-0.73-0.23-1.33-0.68-1.8c-0.44-0.47-1.01-0.7-1.72-0.7c-0.73,0-1.33,0.23-1.78,0.68c-0.45,0.45-0.68,1.05-0.68,1.78v6.36
			c0,0.13-0.07,0.2-0.2,0.2h-1.02c-0.13,0-0.2-0.07-0.2-0.2v-9.72c0-0.13,0.07-0.2,0.2-0.2h1.02c0.13,0,0.2,0.07,0.2,0.2v0.86
			c0,0.03,0.01,0.05,0.02,0.06c0.03,0.01,0.05,0.01,0.06-0.02C267.29,732.15,268.19,731.74,269.4,731.74z M283.99,729.24
			c-0.73,0-1.23,0.17-1.5,0.5c-0.27,0.32-0.4,0.87-0.4,1.66v0.4c0,0.05,0.03,0.08,0.08,0.08h2.24c0.13,0,0.2,0.07,0.2,0.2v0.9
			c0,0.13-0.07,0.2-0.2,0.2h-2.24c-0.05,0-0.08,0.03-0.08,0.08v8.54c0,0.13-0.07,0.2-0.2,0.2h-1c-0.13,0-0.2-0.07-0.2-0.2v-8.54
			c0-0.05-0.03-0.08-0.08-0.08h-1.34c-0.13,0-0.2-0.07-0.2-0.2v-0.9c0-0.13,0.07-0.2,0.2-0.2h1.34c0.05,0,0.08-0.03,0.08-0.08v-0.48
			c0-0.83,0.09-1.47,0.28-1.94c0.19-0.48,0.51-0.83,0.96-1.04c0.47-0.23,1.11-0.34,1.94-0.34h0.58c0.13,0,0.2,0.07,0.2,0.2v0.84
			c0,0.13-0.07,0.2-0.2,0.2H283.99z M290.27,731.72c1.2,0,2.13,0.31,2.78,0.92c0.65,0.61,0.98,1.43,0.98,2.44v6.72
			c0,0.13-0.07,0.2-0.2,0.2h-1.02c-0.13,0-0.2-0.07-0.2-0.2v-0.82c0-0.03-0.01-0.05-0.04-0.06c-0.01-0.01-0.03-0.01-0.06,0.02
			c-0.33,0.4-0.77,0.71-1.3,0.92c-0.53,0.2-1.13,0.3-1.78,0.3c-0.95,0-1.74-0.24-2.38-0.72c-0.64-0.48-0.96-1.21-0.96-2.2
			c0-1,0.36-1.79,1.08-2.36c0.73-0.59,1.75-0.88,3.04-0.88h2.32c0.05,0,0.08-0.03,0.08-0.08v-0.76c0-0.68-0.19-1.21-0.58-1.6
			c-0.37-0.4-0.96-0.6-1.76-0.6c-0.64,0-1.16,0.13-1.56,0.38c-0.4,0.24-0.65,0.58-0.74,1.02c-0.04,0.13-0.12,0.19-0.24,0.18
			l-1.08-0.14c-0.15-0.03-0.21-0.08-0.18-0.16c0.11-0.75,0.51-1.35,1.2-1.82C288.36,731.95,289.23,731.72,290.27,731.72z
			 M289.71,740.94c0.79,0,1.47-0.19,2.04-0.58c0.57-0.4,0.86-0.93,0.86-1.6v-1.56c0-0.05-0.03-0.08-0.08-0.08h-2.1
			c-0.88,0-1.59,0.18-2.12,0.54c-0.53,0.36-0.8,0.86-0.8,1.5c0,0.59,0.2,1.03,0.6,1.34C288.52,740.79,289.05,740.94,289.71,740.94z
			 M289.61,730.56c-0.08,0-0.13-0.02-0.16-0.06c-0.03-0.05-0.02-0.11,0.02-0.18l1.2-2.18c0.04-0.09,0.12-0.14,0.24-0.14h0.9
			c0.08,0,0.13,0.03,0.14,0.08c0.03,0.04,0.02,0.09-0.02,0.16l-1.36,2.18c-0.07,0.09-0.15,0.14-0.24,0.14H289.61z M300.64,742.16
			c-0.96,0-1.79-0.25-2.48-0.74c-0.68-0.51-1.15-1.19-1.4-2.04c-0.17-0.59-0.26-1.41-0.26-2.48c0-0.96,0.09-1.77,0.26-2.44
			c0.24-0.83,0.71-1.49,1.4-1.98c0.69-0.51,1.52-0.76,2.48-0.76c0.97,0,1.81,0.25,2.52,0.74c0.72,0.49,1.19,1.11,1.4,1.84
			c0.07,0.24,0.11,0.44,0.12,0.6v0.04c0,0.09-0.06,0.15-0.18,0.18l-1,0.14h-0.04c-0.09,0-0.15-0.06-0.18-0.18l-0.06-0.3
			c-0.12-0.51-0.41-0.93-0.88-1.28c-0.47-0.36-1.03-0.54-1.7-0.54c-0.67,0-1.23,0.18-1.68,0.54c-0.44,0.35-0.73,0.81-0.86,1.4
			c-0.12,0.51-0.18,1.18-0.18,2.02c0,0.88,0.06,1.56,0.18,2.04c0.13,0.6,0.42,1.08,0.86,1.44c0.45,0.35,1.01,0.52,1.68,0.52
			c0.65,0,1.21-0.17,1.68-0.5c0.48-0.35,0.78-0.79,0.9-1.32v-0.08l0.02-0.08c0.01-0.13,0.09-0.19,0.24-0.16l0.98,0.16
			c0.13,0.03,0.19,0.1,0.18,0.22l-0.08,0.4c-0.2,0.77-0.66,1.4-1.38,1.88S301.62,742.16,300.64,742.16z M308.17,730.04
			c-0.32,0-0.59-0.11-0.8-0.32c-0.21-0.21-0.32-0.48-0.32-0.8c0-0.33,0.11-0.6,0.32-0.8c0.21-0.21,0.48-0.32,0.8-0.32
			c0.32,0,0.59,0.11,0.8,0.32c0.21,0.2,0.32,0.47,0.32,0.8c0,0.32-0.11,0.59-0.32,0.8C308.76,729.93,308.49,730.04,308.17,730.04z
			 M307.61,741.98c-0.13,0-0.2-0.07-0.2-0.2v-9.72c0-0.13,0.07-0.2,0.2-0.2h1.02c0.13,0,0.2,0.07,0.2,0.2v9.72
			c0,0.13-0.07,0.2-0.2,0.2H307.61z M312.51,742c-0.13,0-0.2-0.07-0.2-0.2v-13.6c0-0.13,0.07-0.2,0.2-0.2h1.02
			c0.13,0,0.2,0.07,0.2,0.2v13.6c0,0.13-0.07,0.2-0.2,0.2H312.51z M111.79,766.16c-0.96,0-1.79-0.25-2.48-0.74
			c-0.68-0.51-1.15-1.19-1.4-2.04c-0.17-0.59-0.26-1.41-0.26-2.48c0-0.96,0.09-1.77,0.26-2.44c0.24-0.83,0.71-1.49,1.4-1.98
			c0.69-0.51,1.52-0.76,2.48-0.76c0.97,0,1.81,0.25,2.52,0.74c0.72,0.49,1.19,1.11,1.4,1.84c0.07,0.24,0.11,0.44,0.12,0.6v0.04
			c0,0.09-0.06,0.15-0.18,0.18l-1,0.14h-0.04c-0.09,0-0.15-0.06-0.18-0.18l-0.06-0.3c-0.12-0.51-0.41-0.93-0.88-1.28
			c-0.47-0.36-1.03-0.54-1.7-0.54c-0.67,0-1.23,0.18-1.68,0.54c-0.44,0.35-0.73,0.81-0.86,1.4c-0.12,0.51-0.18,1.18-0.18,2.02
			c0,0.88,0.06,1.56,0.18,2.04c0.13,0.6,0.42,1.08,0.86,1.44c0.45,0.35,1.01,0.52,1.68,0.52c0.65,0,1.21-0.17,1.68-0.5
			c0.48-0.35,0.78-0.79,0.9-1.32v-0.08l0.02-0.08c0.01-0.13,0.09-0.19,0.24-0.16l0.98,0.16c0.13,0.03,0.19,0.1,0.18,0.22l-0.08,0.4
			c-0.2,0.77-0.66,1.4-1.38,1.88C113.61,765.92,112.76,766.16,111.79,766.16z M122.16,766.16c-0.96,0-1.79-0.25-2.48-0.74
			c-0.69-0.49-1.17-1.17-1.44-2.04c-0.19-0.61-0.28-1.43-0.28-2.46c0-1.03,0.09-1.84,0.28-2.44c0.25-0.85,0.73-1.53,1.42-2.02
			c0.69-0.49,1.53-0.74,2.52-0.74c0.95,0,1.76,0.25,2.44,0.74c0.69,0.49,1.17,1.16,1.42,2c0.19,0.57,0.28,1.39,0.28,2.46
			c0,1.08-0.09,1.9-0.28,2.46c-0.25,0.87-0.73,1.55-1.42,2.04C123.94,765.91,123.12,766.16,122.16,766.16z M122.16,764.92
			c0.64,0,1.19-0.17,1.64-0.52c0.45-0.36,0.76-0.84,0.92-1.44c0.12-0.48,0.18-1.15,0.18-2.02c0-0.88-0.05-1.55-0.16-2.02
			c-0.16-0.6-0.47-1.07-0.94-1.42c-0.45-0.36-1.01-0.54-1.66-0.54c-0.65,0-1.21,0.18-1.66,0.54c-0.45,0.35-0.76,0.82-0.92,1.42
			c-0.11,0.47-0.16,1.14-0.16,2.02s0.05,1.55,0.16,2.02c0.15,0.6,0.45,1.08,0.9,1.44C120.93,764.75,121.49,764.92,122.16,764.92z
			 M133.4,755.74c1.07,0,1.91,0.31,2.54,0.94c0.64,0.63,0.96,1.47,0.96,2.52v6.6c0,0.13-0.07,0.2-0.2,0.2h-1.02
			c-0.13,0-0.2-0.07-0.2-0.2v-6.32c0-0.73-0.23-1.33-0.68-1.8c-0.44-0.47-1.01-0.7-1.72-0.7c-0.73,0-1.33,0.23-1.78,0.68
			c-0.45,0.45-0.68,1.05-0.68,1.78v6.36c0,0.13-0.07,0.2-0.2,0.2h-1.02c-0.13,0-0.2-0.07-0.2-0.2v-9.72c0-0.13,0.07-0.2,0.2-0.2
			h1.02c0.13,0,0.2,0.07,0.2,0.2v0.86c0,0.03,0.01,0.05,0.02,0.06c0.03,0.01,0.05,0.01,0.06-0.02
			C131.28,756.15,132.18,755.74,133.4,755.74z M143.3,766.1c-0.75,0-1.41-0.12-2-0.36c-0.57-0.24-1.02-0.56-1.34-0.96
			c-0.31-0.4-0.46-0.85-0.46-1.34v-0.24c0-0.13,0.07-0.2,0.2-0.2h0.96c0.13,0,0.2,0.07,0.2,0.2v0.16c0,0.44,0.23,0.83,0.68,1.16
			c0.47,0.32,1.05,0.48,1.74,0.48c0.69,0,1.25-0.15,1.68-0.46c0.43-0.32,0.64-0.72,0.64-1.2c0-0.33-0.11-0.61-0.34-0.82
			c-0.21-0.21-0.47-0.38-0.78-0.5c-0.29-0.12-0.75-0.27-1.38-0.46c-0.75-0.21-1.36-0.43-1.84-0.64s-0.89-0.51-1.22-0.88
			c-0.32-0.39-0.48-0.87-0.48-1.46c0-0.85,0.33-1.53,1-2.04c0.67-0.51,1.55-0.76,2.64-0.76c0.73,0,1.38,0.12,1.94,0.36
			c0.57,0.24,1.01,0.57,1.32,1c0.31,0.41,0.46,0.88,0.46,1.4v0.06c0,0.13-0.07,0.2-0.2,0.2h-0.94c-0.13,0-0.2-0.07-0.2-0.2v-0.06
			c0-0.45-0.22-0.83-0.66-1.14c-0.43-0.31-1.01-0.46-1.74-0.46c-0.68,0-1.23,0.14-1.64,0.42c-0.41,0.27-0.62,0.64-0.62,1.12
			c0,0.45,0.2,0.8,0.6,1.04c0.4,0.24,1.02,0.48,1.86,0.72c0.77,0.23,1.4,0.44,1.88,0.64s0.89,0.49,1.24,0.88
			c0.35,0.37,0.52,0.87,0.52,1.48c0,0.87-0.34,1.56-1.02,2.08C145.32,765.84,144.42,766.1,143.3,766.1z M157.37,759.24
			c0.05,0.37,0.08,0.84,0.08,1.4v0.64c0,0.13-0.07,0.2-0.2,0.2h-6.46c-0.05,0-0.08,0.03-0.08,0.08c0.03,0.73,0.07,1.21,0.12,1.42
			c0.15,0.6,0.46,1.07,0.94,1.42c0.48,0.35,1.09,0.52,1.84,0.52c0.56,0,1.05-0.13,1.48-0.38c0.43-0.25,0.76-0.61,1-1.08
			c0.08-0.12,0.17-0.15,0.28-0.08l0.78,0.46c0.11,0.07,0.13,0.16,0.08,0.28c-0.33,0.64-0.83,1.15-1.5,1.52
			c-0.67,0.36-1.43,0.54-2.3,0.54c-0.95-0.01-1.74-0.24-2.38-0.68s-1.1-1.05-1.38-1.84c-0.24-0.64-0.36-1.56-0.36-2.76
			c0-0.56,0.01-1.01,0.02-1.36c0.03-0.36,0.08-0.68,0.16-0.96c0.23-0.87,0.68-1.56,1.36-2.08c0.69-0.52,1.53-0.78,2.5-0.78
			c1.21,0,2.15,0.31,2.8,0.92C156.8,757.25,157.21,758.12,157.37,759.24z M153.35,756.96c-0.65,0-1.2,0.17-1.64,0.52
			c-0.43,0.33-0.71,0.79-0.84,1.36c-0.08,0.28-0.13,0.73-0.16,1.36c0,0.05,0.03,0.08,0.08,0.08h5.18c0.05,0,0.08-0.03,0.08-0.08
			c-0.03-0.6-0.07-1.03-0.12-1.28c-0.15-0.6-0.45-1.07-0.9-1.42C154.59,757.14,154.03,756.96,153.35,756.96z M166.51,756.08
			c0-0.13,0.07-0.2,0.2-0.2h1.02c0.13,0,0.2,0.07,0.2,0.2v9.58c0,1.49-0.43,2.59-1.3,3.28c-0.85,0.69-2.03,1.04-3.54,1.04
			c-0.31,0-0.54-0.01-0.7-0.02c-0.13-0.01-0.2-0.09-0.2-0.22l0.04-0.92c0-0.07,0.02-0.12,0.06-0.16c0.04-0.03,0.09-0.03,0.14-0.02
			l0.54,0.02c1.24,0,2.14-0.25,2.7-0.74c0.56-0.48,0.84-1.25,0.84-2.3v-0.74c0-0.03-0.01-0.04-0.04-0.04
			c-0.01-0.01-0.03-0.01-0.06,0.02c-0.61,0.8-1.49,1.2-2.62,1.2c-0.87,0-1.64-0.23-2.32-0.7c-0.67-0.47-1.11-1.13-1.34-1.98
			c-0.16-0.55-0.24-1.36-0.24-2.44c0-0.59,0.01-1.08,0.04-1.48c0.04-0.4,0.11-0.76,0.22-1.08c0.24-0.8,0.67-1.44,1.3-1.92
			c0.63-0.49,1.38-0.74,2.26-0.74c1.19,0,2.09,0.39,2.7,1.18c0.03,0.03,0.05,0.03,0.06,0.02c0.03-0.01,0.04-0.03,0.04-0.06V756.08z
			 M166.41,762.94c0.04-0.2,0.07-0.45,0.08-0.74c0.01-0.29,0.02-0.72,0.02-1.28c0-0.68-0.01-1.13-0.02-1.36
			c-0.01-0.24-0.05-0.46-0.1-0.66c-0.11-0.56-0.37-1.02-0.8-1.38c-0.41-0.37-0.94-0.56-1.58-0.56c-0.63,0-1.16,0.18-1.6,0.54
			c-0.43,0.36-0.73,0.83-0.9,1.4c-0.13,0.43-0.2,1.09-0.2,2c0,0.97,0.07,1.65,0.2,2.02c0.13,0.56,0.42,1.03,0.86,1.4
			c0.45,0.36,1,0.54,1.64,0.54c0.65,0,1.19-0.18,1.6-0.54C166.04,763.96,166.3,763.5,166.41,762.94z M177.1,756.08
			c0-0.13,0.07-0.2,0.2-0.2h1.02c0.13,0,0.2,0.07,0.2,0.2v9.72c0,0.13-0.07,0.2-0.2,0.2h-1.02c-0.13,0-0.2-0.07-0.2-0.2v-0.86
			c0-0.03-0.01-0.05-0.04-0.06c-0.03-0.01-0.05-0.01-0.06,0.02c-0.56,0.83-1.45,1.24-2.66,1.24c-0.64,0-1.23-0.13-1.78-0.38
			c-0.53-0.27-0.96-0.65-1.28-1.14c-0.31-0.49-0.46-1.09-0.46-1.78v-6.76c0-0.13,0.07-0.2,0.2-0.2h1.02c0.13,0,0.2,0.07,0.2,0.2
			v6.34c0,0.76,0.21,1.37,0.64,1.82c0.43,0.44,1.01,0.66,1.74,0.66c0.76,0,1.36-0.23,1.8-0.68c0.45-0.45,0.68-1.05,0.68-1.8V756.08z
			 M182.66,754.04c-0.32,0-0.59-0.11-0.8-0.32c-0.21-0.21-0.32-0.48-0.32-0.8c0-0.33,0.11-0.6,0.32-0.8
			c0.21-0.21,0.48-0.32,0.8-0.32c0.32,0,0.59,0.11,0.8,0.32c0.21,0.2,0.32,0.47,0.32,0.8c0,0.32-0.11,0.59-0.32,0.8
			C183.24,753.93,182.98,754.04,182.66,754.04z M182.1,765.98c-0.13,0-0.2-0.07-0.2-0.2v-9.72c0-0.13,0.07-0.2,0.2-0.2h1.02
			c0.13,0,0.2,0.07,0.2,0.2v9.72c0,0.13-0.07,0.2-0.2,0.2H182.1z M190.88,755.78c0.44,0,0.82,0.09,1.14,0.26
			c0.11,0.05,0.15,0.14,0.12,0.26l-0.22,0.98c-0.04,0.13-0.13,0.17-0.26,0.12c-0.23-0.09-0.49-0.14-0.78-0.14l-0.26,0.02
			c-0.69,0.03-1.27,0.29-1.72,0.78c-0.45,0.48-0.68,1.09-0.68,1.84v5.9c0,0.13-0.07,0.2-0.2,0.2h-1.02c-0.13,0-0.2-0.07-0.2-0.2
			v-9.72c0-0.13,0.07-0.2,0.2-0.2h1.02c0.13,0,0.2,0.07,0.2,0.2v1.22c0,0.04,0.01,0.07,0.02,0.08c0.03,0,0.05-0.01,0.06-0.04
			c0.28-0.49,0.63-0.87,1.06-1.14C189.79,755.92,190.3,755.78,190.88,755.78z M198.28,766c-0.13,0-0.2-0.07-0.2-0.2v-13.6
			c0-0.13,0.07-0.2,0.2-0.2h1.02c0.13,0,0.2,0.07,0.2,0.2v13.6c0,0.13-0.07,0.2-0.2,0.2H198.28z M206.55,766.16
			c-0.96,0-1.79-0.25-2.48-0.74c-0.69-0.49-1.17-1.17-1.44-2.04c-0.19-0.61-0.28-1.43-0.28-2.46c0-1.03,0.09-1.84,0.28-2.44
			c0.25-0.85,0.73-1.53,1.42-2.02c0.69-0.49,1.53-0.74,2.52-0.74c0.95,0,1.76,0.25,2.44,0.74c0.69,0.49,1.17,1.16,1.42,2
			c0.19,0.57,0.28,1.39,0.28,2.46c0,1.08-0.09,1.9-0.28,2.46c-0.25,0.87-0.73,1.55-1.42,2.04
			C208.33,765.91,207.51,766.16,206.55,766.16z M206.55,764.92c0.64,0,1.19-0.17,1.64-0.52c0.45-0.36,0.76-0.84,0.92-1.44
			c0.12-0.48,0.18-1.15,0.18-2.02c0-0.88-0.05-1.55-0.16-2.02c-0.16-0.6-0.47-1.07-0.94-1.42c-0.45-0.36-1.01-0.54-1.66-0.54
			c-0.65,0-1.21,0.18-1.66,0.54c-0.45,0.35-0.76,0.82-0.92,1.42c-0.11,0.47-0.16,1.14-0.16,2.02s0.05,1.55,0.16,2.02
			c0.15,0.6,0.45,1.08,0.9,1.44C205.32,764.75,205.89,764.92,206.55,764.92z M223.88,756.08c0-0.13,0.07-0.2,0.2-0.2h1.02
			c0.13,0,0.2,0.07,0.2,0.2v13.6c0,0.13-0.07,0.2-0.2,0.2h-1.02c-0.13,0-0.2-0.07-0.2-0.2v-4.7c0-0.03-0.01-0.04-0.04-0.04
			c-0.01-0.01-0.03-0.01-0.06,0.02c-0.29,0.39-0.66,0.69-1.1,0.9c-0.44,0.2-0.92,0.3-1.44,0.3c-0.95,0-1.74-0.24-2.38-0.72
			c-0.64-0.49-1.08-1.17-1.32-2.02c-0.16-0.55-0.24-1.37-0.24-2.48c0-1.09,0.09-1.94,0.28-2.54c0.24-0.83,0.67-1.48,1.3-1.96
			c0.64-0.48,1.43-0.72,2.36-0.72c0.53,0,1.01,0.11,1.44,0.32c0.44,0.21,0.81,0.51,1.1,0.9c0.03,0.03,0.05,0.04,0.06,0.04
			c0.03-0.01,0.04-0.03,0.04-0.06V756.08z M223.5,763.42c0.13-0.28,0.23-0.6,0.28-0.96c0.05-0.37,0.08-0.88,0.08-1.52
			s-0.03-1.14-0.08-1.5s-0.14-0.67-0.26-0.94c-0.17-0.47-0.44-0.84-0.8-1.12c-0.36-0.28-0.81-0.42-1.34-0.42
			c-0.56,0-1.05,0.14-1.46,0.42c-0.4,0.28-0.68,0.66-0.84,1.14c-0.13,0.28-0.23,0.6-0.28,0.96c-0.05,0.35-0.08,0.83-0.08,1.46
			c0,0.65,0.03,1.17,0.1,1.54c0.08,0.36,0.2,0.69,0.36,0.98c0.17,0.44,0.45,0.79,0.84,1.06c0.39,0.27,0.85,0.4,1.38,0.4
			c0.51,0,0.94-0.13,1.3-0.4C223.07,764.24,223.34,763.87,223.5,763.42z M234.75,756.08c0-0.13,0.07-0.2,0.2-0.2h1.02
			c0.13,0,0.2,0.07,0.2,0.2v9.72c0,0.13-0.07,0.2-0.2,0.2h-1.02c-0.13,0-0.2-0.07-0.2-0.2v-0.86c0-0.03-0.01-0.05-0.04-0.06
			c-0.03-0.01-0.05-0.01-0.06,0.02c-0.56,0.83-1.45,1.24-2.66,1.24c-0.64,0-1.23-0.13-1.78-0.38c-0.53-0.27-0.96-0.65-1.28-1.14
			c-0.31-0.49-0.46-1.09-0.46-1.78v-6.76c0-0.13,0.07-0.2,0.2-0.2h1.02c0.13,0,0.2,0.07,0.2,0.2v6.34c0,0.76,0.21,1.37,0.64,1.82
			c0.43,0.44,1.01,0.66,1.74,0.66c0.76,0,1.36-0.23,1.8-0.68c0.45-0.45,0.68-1.05,0.68-1.8V756.08z M247.11,759.24
			c0.05,0.37,0.08,0.84,0.08,1.4v0.64c0,0.13-0.07,0.2-0.2,0.2h-6.46c-0.05,0-0.08,0.03-0.08,0.08c0.03,0.73,0.07,1.21,0.12,1.42
			c0.15,0.6,0.46,1.07,0.94,1.42c0.48,0.35,1.09,0.52,1.84,0.52c0.56,0,1.05-0.13,1.48-0.38c0.43-0.25,0.76-0.61,1-1.08
			c0.08-0.12,0.17-0.15,0.28-0.08l0.78,0.46c0.11,0.07,0.13,0.16,0.08,0.28c-0.33,0.64-0.83,1.15-1.5,1.52
			c-0.67,0.36-1.43,0.54-2.3,0.54c-0.95-0.01-1.74-0.24-2.38-0.68s-1.1-1.05-1.38-1.84c-0.24-0.64-0.36-1.56-0.36-2.76
			c0-0.56,0.01-1.01,0.02-1.36c0.03-0.36,0.08-0.68,0.16-0.96c0.23-0.87,0.68-1.56,1.36-2.08c0.69-0.52,1.53-0.78,2.5-0.78
			c1.21,0,2.15,0.31,2.8,0.92C246.55,757.25,246.95,758.12,247.11,759.24z M243.09,756.96c-0.65,0-1.2,0.17-1.64,0.52
			c-0.43,0.33-0.71,0.79-0.84,1.36c-0.08,0.28-0.13,0.73-0.16,1.36c0,0.05,0.03,0.08,0.08,0.08h5.18c0.05,0,0.08-0.03,0.08-0.08
			c-0.03-0.6-0.07-1.03-0.12-1.28c-0.15-0.6-0.45-1.07-0.9-1.42C244.33,757.14,243.77,756.96,243.09,756.96z M260.3,756.08
			c0-0.13,0.07-0.2,0.2-0.2h1.02c0.13,0,0.2,0.07,0.2,0.2v13.6c0,0.13-0.07,0.2-0.2,0.2h-1.02c-0.13,0-0.2-0.07-0.2-0.2v-4.7
			c0-0.03-0.01-0.04-0.04-0.04c-0.01-0.01-0.03-0.01-0.06,0.02c-0.29,0.39-0.66,0.69-1.1,0.9c-0.44,0.2-0.92,0.3-1.44,0.3
			c-0.95,0-1.74-0.24-2.38-0.72c-0.64-0.49-1.08-1.17-1.32-2.02c-0.16-0.55-0.24-1.37-0.24-2.48c0-1.09,0.09-1.94,0.28-2.54
			c0.24-0.83,0.67-1.48,1.3-1.96c0.64-0.48,1.43-0.72,2.36-0.72c0.53,0,1.01,0.11,1.44,0.32c0.44,0.21,0.81,0.51,1.1,0.9
			c0.03,0.03,0.05,0.04,0.06,0.04c0.03-0.01,0.04-0.03,0.04-0.06V756.08z M259.92,763.42c0.13-0.28,0.23-0.6,0.28-0.96
			c0.05-0.37,0.08-0.88,0.08-1.52s-0.03-1.14-0.08-1.5s-0.14-0.67-0.26-0.94c-0.17-0.47-0.44-0.84-0.8-1.12
			c-0.36-0.28-0.81-0.42-1.34-0.42c-0.56,0-1.05,0.14-1.46,0.42c-0.4,0.28-0.68,0.66-0.84,1.14c-0.13,0.28-0.23,0.6-0.28,0.96
			c-0.05,0.35-0.08,0.83-0.08,1.46c0,0.65,0.03,1.17,0.1,1.54c0.08,0.36,0.2,0.69,0.36,0.98c0.17,0.44,0.45,0.79,0.84,1.06
			c0.39,0.27,0.85,0.4,1.38,0.4c0.51,0,0.94-0.13,1.3-0.4C259.49,764.24,259.76,763.87,259.92,763.42z M271.18,756.08
			c0-0.13,0.07-0.2,0.2-0.2h1.02c0.13,0,0.2,0.07,0.2,0.2v9.72c0,0.13-0.07,0.2-0.2,0.2h-1.02c-0.13,0-0.2-0.07-0.2-0.2v-0.86
			c0-0.03-0.01-0.05-0.04-0.06s-0.05-0.01-0.06,0.02c-0.56,0.83-1.45,1.24-2.66,1.24c-0.64,0-1.23-0.13-1.78-0.38
			c-0.53-0.27-0.96-0.65-1.28-1.14c-0.31-0.49-0.46-1.09-0.46-1.78v-6.76c0-0.13,0.07-0.2,0.2-0.2h1.02c0.13,0,0.2,0.07,0.2,0.2
			v6.34c0,0.76,0.21,1.37,0.64,1.82c0.43,0.44,1.01,0.66,1.74,0.66c0.76,0,1.36-0.23,1.8-0.68c0.45-0.45,0.68-1.05,0.68-1.8V756.08z
			 M276.74,754.04c-0.32,0-0.59-0.11-0.8-0.32c-0.21-0.21-0.32-0.48-0.32-0.8c0-0.33,0.11-0.6,0.32-0.8
			c0.21-0.21,0.48-0.32,0.8-0.32c0.32,0,0.59,0.11,0.8,0.32c0.21,0.2,0.32,0.47,0.32,0.8c0,0.32-0.11,0.59-0.32,0.8
			C277.33,753.93,277.06,754.04,276.74,754.04z M276.18,765.98c-0.13,0-0.2-0.07-0.2-0.2v-9.72c0-0.13,0.07-0.2,0.2-0.2h1.02
			c0.13,0,0.2,0.07,0.2,0.2v9.72c0,0.13-0.07,0.2-0.2,0.2H276.18z M288.64,759.24c0.05,0.37,0.08,0.84,0.08,1.4v0.64
			c0,0.13-0.07,0.2-0.2,0.2h-6.46c-0.05,0-0.08,0.03-0.08,0.08c0.03,0.73,0.07,1.21,0.12,1.42c0.15,0.6,0.46,1.07,0.94,1.42
			c0.48,0.35,1.09,0.52,1.84,0.52c0.56,0,1.05-0.13,1.48-0.38c0.43-0.25,0.76-0.61,1-1.08c0.08-0.12,0.17-0.15,0.28-0.08l0.78,0.46
			c0.11,0.07,0.13,0.16,0.08,0.28c-0.33,0.64-0.83,1.15-1.5,1.52c-0.67,0.36-1.43,0.54-2.3,0.54c-0.95-0.01-1.74-0.24-2.38-0.68
			c-0.64-0.44-1.1-1.05-1.38-1.84c-0.24-0.64-0.36-1.56-0.36-2.76c0-0.56,0.01-1.01,0.02-1.36c0.03-0.36,0.08-0.68,0.16-0.96
			c0.23-0.87,0.68-1.56,1.36-2.08c0.69-0.52,1.53-0.78,2.5-0.78c1.21,0,2.15,0.31,2.8,0.92
			C288.07,757.25,288.48,758.12,288.64,759.24z M284.62,756.96c-0.65,0-1.2,0.17-1.64,0.52c-0.43,0.33-0.71,0.79-0.84,1.36
			c-0.08,0.28-0.13,0.73-0.16,1.36c0,0.05,0.03,0.08,0.08,0.08h5.18c0.05,0,0.08-0.03,0.08-0.08c-0.03-0.6-0.07-1.03-0.12-1.28
			c-0.15-0.6-0.45-1.07-0.9-1.42C285.86,757.14,285.3,756.96,284.62,756.96z M295.62,755.78c0.44,0,0.82,0.09,1.14,0.26
			c0.11,0.05,0.15,0.14,0.12,0.26l-0.22,0.98c-0.04,0.13-0.13,0.17-0.26,0.12c-0.23-0.09-0.49-0.14-0.78-0.14l-0.26,0.02
			c-0.69,0.03-1.27,0.29-1.72,0.78c-0.45,0.48-0.68,1.09-0.68,1.84v5.9c0,0.13-0.07,0.2-0.2,0.2h-1.02c-0.13,0-0.2-0.07-0.2-0.2
			v-9.72c0-0.13,0.07-0.2,0.2-0.2h1.02c0.13,0,0.2,0.07,0.2,0.2v1.22c0,0.04,0.01,0.07,0.02,0.08c0.03,0,0.05-0.01,0.06-0.04
			c0.28-0.49,0.63-0.87,1.06-1.14C294.54,755.92,295.05,755.78,295.62,755.78z M306.49,759.24c0.05,0.37,0.08,0.84,0.08,1.4v0.64
			c0,0.13-0.07,0.2-0.2,0.2h-6.46c-0.05,0-0.08,0.03-0.08,0.08c0.03,0.73,0.07,1.21,0.12,1.42c0.15,0.6,0.46,1.07,0.94,1.42
			c0.48,0.35,1.09,0.52,1.84,0.52c0.56,0,1.05-0.13,1.48-0.38c0.43-0.25,0.76-0.61,1-1.08c0.08-0.12,0.17-0.15,0.28-0.08l0.78,0.46
			c0.11,0.07,0.13,0.16,0.08,0.28c-0.33,0.64-0.83,1.15-1.5,1.52c-0.67,0.36-1.43,0.54-2.3,0.54c-0.95-0.01-1.74-0.24-2.38-0.68
			c-0.64-0.44-1.1-1.05-1.38-1.84c-0.24-0.64-0.36-1.56-0.36-2.76c0-0.56,0.01-1.01,0.02-1.36c0.03-0.36,0.08-0.68,0.16-0.96
			c0.23-0.87,0.68-1.56,1.36-2.08c0.69-0.52,1.53-0.78,2.5-0.78c1.21,0,2.15,0.31,2.8,0.92
			C305.92,757.25,306.33,758.12,306.49,759.24z M302.47,756.96c-0.65,0-1.2,0.17-1.64,0.52c-0.43,0.33-0.71,0.79-0.84,1.36
			c-0.08,0.28-0.13,0.73-0.16,1.36c0,0.05,0.03,0.08,0.08,0.08h5.18c0.05,0,0.08-0.03,0.08-0.08c-0.03-0.6-0.07-1.03-0.12-1.28
			c-0.15-0.6-0.45-1.07-0.9-1.42C303.71,757.14,303.15,756.96,302.47,756.96z M312.54,766.1c-0.75,0-1.41-0.12-2-0.36
			c-0.57-0.24-1.02-0.56-1.34-0.96c-0.31-0.4-0.46-0.85-0.46-1.34v-0.24c0-0.13,0.07-0.2,0.2-0.2h0.96c0.13,0,0.2,0.07,0.2,0.2v0.16
			c0,0.44,0.23,0.83,0.68,1.16c0.47,0.32,1.05,0.48,1.74,0.48c0.69,0,1.25-0.15,1.68-0.46c0.43-0.32,0.64-0.72,0.64-1.2
			c0-0.33-0.11-0.61-0.34-0.82c-0.21-0.21-0.47-0.38-0.78-0.5c-0.29-0.12-0.75-0.27-1.38-0.46c-0.75-0.21-1.36-0.43-1.84-0.64
			c-0.48-0.21-0.89-0.51-1.22-0.88c-0.32-0.39-0.48-0.87-0.48-1.46c0-0.85,0.33-1.53,1-2.04c0.67-0.51,1.55-0.76,2.64-0.76
			c0.73,0,1.38,0.12,1.94,0.36c0.57,0.24,1.01,0.57,1.32,1c0.31,0.41,0.46,0.88,0.46,1.4v0.06c0,0.13-0.07,0.2-0.2,0.2h-0.94
			c-0.13,0-0.2-0.07-0.2-0.2v-0.06c0-0.45-0.22-0.83-0.66-1.14c-0.43-0.31-1.01-0.46-1.74-0.46c-0.68,0-1.23,0.14-1.64,0.42
			c-0.41,0.27-0.62,0.64-0.62,1.12c0,0.45,0.2,0.8,0.6,1.04c0.4,0.24,1.02,0.48,1.86,0.72c0.77,0.23,1.4,0.44,1.88,0.64
			c0.48,0.2,0.89,0.49,1.24,0.88c0.35,0.37,0.52,0.87,0.52,1.48c0,0.87-0.34,1.56-1.02,2.08S313.66,766.1,312.54,766.1z
			 M320.07,761.44c-0.13,0-0.2-0.07-0.2-0.2l-0.1-9.04c0-0.13,0.07-0.2,0.2-0.2h1.02c0.13,0,0.2,0.07,0.2,0.2l-0.12,9.04
			c0,0.13-0.07,0.2-0.2,0.2H320.07z M320.39,765.92c-0.32,0-0.59-0.1-0.8-0.3c-0.2-0.21-0.3-0.48-0.3-0.8c0-0.33,0.1-0.6,0.3-0.8
			c0.21-0.21,0.48-0.32,0.8-0.32c0.33,0,0.6,0.11,0.8,0.32c0.21,0.2,0.32,0.47,0.32,0.8c0,0.32-0.11,0.59-0.32,0.8
			C320.99,765.82,320.72,765.92,320.39,765.92z"/>
		<path fill="#83EA73" d="M140.29,468.35c-89.1-33.11-90.17-124.53-90.17-124.53C126.72,366.78,140.29,468.35,140.29,468.35z"/>
		<path fill="#73C766" d="M50.12,343.82l90.17,124.53C51.19,435.27,50.12,343.82,50.12,343.82z"/>
		<path fill="#83EA73" d="M164.75,464.07C74.96,495.17,16,425.29,16,425.29C89.73,394.29,164.75,464.07,164.75,464.07z"/>
		<path fill="#73C766" d="M16,425.29l148.75,38.78C74.96,495.17,16,425.29,16,425.29z"/>
		<path fill="#83EA73" d="M146.74,480.15c-63.54-70.68-22-152.15-22-152.15C181.93,383.91,146.74,480.15,146.74,480.15z"/>
		<path fill="#73C766" d="M124.74,328l22,152.15C83.2,409.47,124.74,328,124.74,328z"/>
		<path fill="#83EA73" d="M324.99,520.14c9.5-62.71,69.08-75.82,69.08-75.82C389.49,497.47,324.99,520.14,324.99,520.14z"/>
		<path fill="#73C766" d="M393.96,444.32l-69.08,75.82C334.49,457.43,393.96,444.32,393.96,444.32z"/>
		<path fill="#83EA73" d="M331.09,531.62c-32.52-54.44,5.14-102.45,5.14-102.45C366.5,473.17,331.09,531.62,331.09,531.62z"/>
		<path fill="#73C766" d="M336.23,429.22l-5.14,102.4C298.57,477.23,336.23,429.22,336.23,429.22z"/>
		<path fill="#83EA73" d="M318.14,525.95c37.47-51.09,96.35-35.03,96.35-35.03C385.93,535.85,318.14,525.95,318.14,525.95z"/>
		<path fill="#73C766" d="M414.54,490.91l-96.35,35.03C355.69,474.85,414.54,490.91,414.54,490.91z"/>
		<path fill="#FDAB23" d="M358.04,375.61c-3.75,1.23-7.15,3.33-9.94,6.12s-4.88,6.2-6.12,9.94c-1.23-3.75-3.33-7.15-6.12-9.94
			c-2.79-2.79-6.19-4.88-9.94-6.12c3.75-1.23,7.15-3.33,9.94-6.12c2.79-2.79,4.89-6.19,6.12-9.94c1.23,3.75,3.33,7.15,6.12,9.94
			S354.3,374.38,358.04,375.61z"/>
		<path fill="#FDAB23" d="M329.64,411.42c3.72,0,6.74-3.02,6.74-6.74s-3.02-6.74-6.74-6.74c-3.72,0-6.74,3.02-6.74,6.74
			S325.92,411.42,329.64,411.42z"/>
		<path fill="#FDAB23" d="M56.73,454.54c3.75,1.23,7.15,3.33,9.94,6.12c2.79,2.79,4.88,6.19,6.12,9.94
			c1.23-3.75,3.33-7.15,6.12-9.94c2.79-2.79,6.19-4.89,9.94-6.12c-3.75-1.23-7.15-3.33-9.94-6.12c-2.79-2.79-4.88-6.2-6.12-9.94
			c-1.23,3.75-3.33,7.15-6.12,9.94C63.88,451.21,60.48,453.3,56.73,454.54z"/>
		<path fill="#FDAB23" d="M85.16,490.35c3.72,0,6.74-3.02,6.74-6.74c0-3.73-3.02-6.75-6.74-6.75c-3.72,0-6.74,3.02-6.74,6.75
			C78.41,487.33,81.43,490.35,85.16,490.35z"/>
		<path fill="#FDAB23" d="M357.48,480.12h-81.82v77.11h81.82V480.12z"/>
		<path fill="#E08F19" d="M324.69,480.12h-16.24v77.11h16.24V480.12z"/>
		<path opacity="0.59" fill="#E08F19" enable-background="new    " d="M357.48,540.8v16.43h-81.82v-77.11h5.54
			c-0.24,12.15,2.68,36.43,27.25,50.21c5.12,2.84,10.58,5.03,16.24,6.5c8.75,2.27,17.73,3.48,26.76,3.61L357.48,540.8z"/>
		<path fill="#FFFFFF" d="M350.52,490.7h-20.13v20.9h20.13V490.7z"/>
		<path fill="#FDAB23" d="M331.95,403.53h-81.82v77.11h81.82V403.53z"/>
		<path fill="#E08F19" d="M299.16,403.53h-16.25v77.11h16.25V403.53z"/>
		<path opacity="0.59" fill="#E08F19" enable-background="new    " d="M331.95,464.2v16.57h-81.82v-77.08h5.54
			c-0.24,12.12,2.68,36.4,27.25,50.18c5.12,2.84,10.58,5.02,16.25,6.5c8.75,2.27,17.73,3.48,26.76,3.61L331.95,464.2z"/>
		<path fill="#FFFFFF" d="M325.02,414.1h-20.13V435h20.13V414.1z"/>
		<path fill="#CFCFCF" d="M197.81,375.08c-1.23-9.26-7.17-19.4-17.77-18.73c-10.14,0.51-16.19,10.06-18.73,18.87
			c-1.45,5.81-2.43,11.73-2.94,17.69c-1.12,6.39-0.95,12.94,0.51,19.27c0.13,0.4,0.38,0.75,0.72,1c0.34,0.25,0.75,0.38,1.17,0.38
			s0.83-0.13,1.17-0.38c0.34-0.25,0.59-0.6,0.72-1c2.68-9.05,2.14-19.19,3.77-28.53c1.31-7.52,3.77-18.55,12.69-20.29
			c10.36-2.01,12.15,12.1,12.36,19.16c0.27,9.66-0.91,19.16-1.31,28.82c0.12,0.54,0.4,1.02,0.8,1.39c0.4,0.37,0.91,0.61,1.45,0.68
			c0.54,0.07,1.09-0.02,1.58-0.27c0.49-0.25,0.88-0.65,1.14-1.13C198.53,400.01,199.44,387.44,197.81,375.08z"/>
		<path fill="#C0D1FC" d="M229.04,392.21H99.05v163.37h129.99V392.21z"/>
		<path fill="#81A8E2" d="M229.04,392.21h-26.36v163.37h26.36V392.21z"/>
		<path fill="#FFFFFF" d="M175.83,375.08c-1.2-9.26-7.15-19.4-17.77-18.73c-10.12,0.51-16.19,10.06-18.74,18.87
			c-1.45,5.81-2.43,11.73-2.94,17.69c-1.13,6.39-0.96,12.95,0.51,19.27c0.12,0.4,0.37,0.76,0.7,1.01c0.34,0.25,0.75,0.39,1.17,0.39
			c0.42,0,0.83-0.14,1.17-0.39c0.34-0.25,0.58-0.61,0.7-1.01c2.68-9.05,2.14-19.19,3.8-28.53c1.31-7.52,3.77-18.55,12.66-20.29
			c10.38-2.01,12.18,12.1,12.36,19.16c0.29,9.66-0.91,19.16-1.28,28.82c0.12,0.54,0.4,1.02,0.8,1.39c0.4,0.37,0.91,0.61,1.45,0.68
			c0.54,0.07,1.09-0.02,1.58-0.27c0.49-0.25,0.88-0.65,1.14-1.13C176.56,400.01,177.47,387.44,175.83,375.08z"/>
		<path opacity="0.3" fill="#81A8E2" enable-background="new    " d="M229.04,531.06v24.65H99.02V392.45h7.73
			c0.96,36.48,12.23,135.72,95.92,140.3C211.5,533.09,220.33,532.53,229.04,531.06z"/>
		<path fill="#D9D9D9" d="M252.27,452.37c-1.23-9.26-7.17-19.4-17.8-18.73c-10.12,0.51-16.06,10.06-18.6,18.87
			c-1.45,5.81-2.43,11.73-2.94,17.69c-1.12,6.39-0.94,12.94,0.51,19.27c0.13,0.4,0.38,0.75,0.72,1c0.34,0.25,0.75,0.38,1.17,0.38
			s0.83-0.13,1.17-0.38c0.34-0.25,0.59-0.6,0.72-1c2.68-9.05,2.14-19.19,3.77-28.53c1.31-7.49,3.77-18.55,12.69-20.29
			c10.36-2.01,12.15,12.1,12.34,19.16c0.29,9.66-0.88,19.16-1.28,28.82c0.12,0.54,0.4,1.02,0.8,1.39c0.4,0.37,0.91,0.61,1.45,0.68
			c0.54,0.07,1.09-0.02,1.58-0.27c0.49-0.25,0.89-0.64,1.14-1.13C253.05,477.3,253.93,464.73,252.27,452.37z"/>
		<path fill="#F95C05" d="M283.5,469.5H153.51v93.99H283.5V469.5z"/>
		<path fill="#E54C00" d="M283.5,469.5h-26.36v93.99h26.36V469.5z"/>
		<path fill="#FFFFFF" d="M230.3,452.37c-1.2-9.26-7.15-19.4-17.77-18.73c-10.12,0.51-16.19,10.06-18.73,18.87
			c-1.45,5.81-2.43,11.73-2.94,17.69c-1.13,6.39-0.96,12.94,0.48,19.27c0.13,0.4,0.38,0.75,0.72,1c0.34,0.25,0.75,0.38,1.17,0.38
			s0.83-0.13,1.17-0.38c0.34-0.25,0.59-0.6,0.72-1c2.68-9.05,2.14-19.19,3.77-28.53c1.34-7.49,3.77-18.55,12.69-20.29
			c10.36-2.01,12.15,12.1,12.36,19.16c0.27,9.66-0.91,19.16-1.31,28.82c0.12,0.54,0.4,1.02,0.8,1.39s0.91,0.61,1.45,0.68
			c0.54,0.07,1.1-0.02,1.58-0.27c0.49-0.25,0.88-0.64,1.14-1.13C231.02,477.31,231.94,464.74,230.3,452.37z"/>
		<path opacity="0.56" fill="#E54C00" enable-background="new    " d="M283.48,542v21.41H153.49v-93.89h12.98
			c1.18,29.89,14.37,81.79,90.62,76.25C265.96,545.12,274.78,543.85,283.48,542z"/>
	</g>
</g>
</svg>
